G04 #@! TF.GenerationSoftware,KiCad,Pcbnew,5.1.6-c6e7f7d~87~ubuntu18.04.1*
G04 #@! TF.CreationDate,2020-09-14T18:26:16+02:00*
G04 #@! TF.ProjectId,cooldrv,636f6f6c-6472-4762-9e6b-696361645f70,rev?*
G04 #@! TF.SameCoordinates,Original*
G04 #@! TF.FileFunction,Paste,Bot*
G04 #@! TF.FilePolarity,Positive*
%FSLAX46Y46*%
G04 Gerber Fmt 4.6, Leading zero omitted, Abs format (unit mm)*
G04 Created by KiCad (PCBNEW 5.1.6-c6e7f7d~87~ubuntu18.04.1) date 2020-09-14 18:26:16*
%MOMM*%
%LPD*%
G01*
G04 APERTURE LIST*
%ADD10R,0.300000X1.600000*%
%ADD11R,1.100000X1.500000*%
%ADD12R,1.600000X1.300000*%
%ADD13R,1.050000X1.080000*%
%ADD14R,1.000000X1.100000*%
%ADD15R,0.600000X0.600000*%
G04 APERTURE END LIST*
D10*
G04 #@! TO.C,U$1*
X144463600Y-108763600D03*
X145113600Y-108763600D03*
X145763600Y-108763600D03*
X146413600Y-108763600D03*
X147063600Y-108763600D03*
X147713600Y-108763600D03*
X148363600Y-108763600D03*
X149013600Y-108763600D03*
X149663600Y-108763600D03*
X150313600Y-108763600D03*
X150963600Y-108763600D03*
X151613600Y-108763600D03*
X152263600Y-108763600D03*
X152913600Y-108763600D03*
X152913600Y-103163600D03*
X152263600Y-103163600D03*
X151613600Y-103163600D03*
X150963600Y-103163600D03*
X150313600Y-103163600D03*
X149663600Y-103163600D03*
X149013600Y-103163600D03*
X148363600Y-103163600D03*
X147713600Y-103163600D03*
X147063600Y-103163600D03*
X146413600Y-103163600D03*
X145763600Y-103163600D03*
X145113600Y-103163600D03*
X144463600Y-103163600D03*
G04 #@! TD*
D11*
G04 #@! TO.C,R1*
X151934600Y-100483600D03*
X150034600Y-100483600D03*
G04 #@! TD*
G04 #@! TO.C,R2*
X147578600Y-100448600D03*
X145678600Y-100448600D03*
G04 #@! TD*
D12*
G04 #@! TO.C,C3*
X139723600Y-100428600D03*
X139723600Y-102428600D03*
G04 #@! TD*
D13*
G04 #@! TO.C,C4*
X142473600Y-101033600D03*
X144223600Y-101033600D03*
G04 #@! TD*
D14*
G04 #@! TO.C,C6*
X142983600Y-104453600D03*
X142983600Y-102753600D03*
G04 #@! TD*
G04 #@! TO.C,R5*
X157593600Y-107178600D03*
X155893600Y-107178600D03*
G04 #@! TD*
D15*
G04 #@! TO.C,D1*
X154518600Y-107348600D03*
X154518600Y-109548600D03*
G04 #@! TD*
D14*
G04 #@! TO.C,R3*
X157598600Y-109548600D03*
X155898600Y-109548600D03*
G04 #@! TD*
G04 #@! TO.C,C1*
X141268600Y-100673600D03*
X141268600Y-102373600D03*
G04 #@! TD*
M02*
