G04 #@! TF.GenerationSoftware,KiCad,Pcbnew,5.1.6-c6e7f7d~87~ubuntu18.04.1*
G04 #@! TF.CreationDate,2020-09-14T18:26:16+02:00*
G04 #@! TF.ProjectId,cooldrv,636f6f6c-6472-4762-9e6b-696361645f70,rev?*
G04 #@! TF.SameCoordinates,Original*
G04 #@! TF.FileFunction,Legend,Bot*
G04 #@! TF.FilePolarity,Positive*
%FSLAX46Y46*%
G04 Gerber Fmt 4.6, Leading zero omitted, Abs format (unit mm)*
G04 Created by KiCad (PCBNEW 5.1.6-c6e7f7d~87~ubuntu18.04.1) date 2020-09-14 18:26:16*
%MOMM*%
%LPD*%
G01*
G04 APERTURE LIST*
%ADD10C,0.254000*%
%ADD11C,0.127000*%
%ADD12C,0.193040*%
%ADD13C,0.200000*%
%ADD14C,0.800000*%
%ADD15C,0.100000*%
%ADD16R,9.801600X3.501600*%
%ADD17R,0.401600X1.701600*%
%ADD18C,0.711200*%
%ADD19R,1.201600X1.601600*%
%ADD20R,1.701600X1.401600*%
%ADD21R,1.151600X1.181600*%
%ADD22R,1.101600X1.201600*%
%ADD23R,0.701600X0.701600*%
G04 APERTURE END LIST*
D10*
X154093600Y-108323600D02*
X154893600Y-108323600D01*
X154893600Y-108323600D02*
X154893600Y-108498600D01*
X154893600Y-108498600D02*
X154518600Y-108873600D01*
X154518600Y-108873600D02*
X154093600Y-108448600D01*
X154093600Y-108448600D02*
X154093600Y-108323600D01*
X153968600Y-108973600D02*
X153993600Y-108948600D01*
X153993600Y-108948600D02*
X155018600Y-108948600D01*
X155018600Y-108948600D02*
X155093600Y-108873600D01*
X154493600Y-107873600D02*
X154493600Y-109048600D01*
D11*
G04 #@! TO.C,U$1*
X144488600Y-104563600D02*
G75*
G03*
X144488600Y-104563600I-200000J0D01*
G01*
X144088600Y-103563600D02*
G75*
G03*
X144088600Y-103563600I-200000J0D01*
G01*
X153488600Y-103763600D02*
X143888600Y-103763600D01*
X153488600Y-108163600D02*
X153488600Y-103763600D01*
X143888600Y-108163600D02*
X153488600Y-108163600D01*
X143888600Y-103763600D02*
X143888600Y-108163600D01*
G04 #@! TO.C,R1*
D12*
X150457944Y-102263230D02*
X150715331Y-101895535D01*
X150899178Y-102263230D02*
X150899178Y-101491070D01*
X150605022Y-101491070D01*
X150531483Y-101527840D01*
X150494714Y-101564609D01*
X150457944Y-101638148D01*
X150457944Y-101748457D01*
X150494714Y-101821996D01*
X150531483Y-101858765D01*
X150605022Y-101895535D01*
X150899178Y-101895535D01*
X149722554Y-102263230D02*
X150163788Y-102263230D01*
X149943171Y-102263230D02*
X149943171Y-101491070D01*
X150016710Y-101601379D01*
X150090249Y-101674918D01*
X150163788Y-101711687D01*
D13*
G04 #@! TO.C,R2*
D12*
X147407944Y-102263230D02*
X147665331Y-101895535D01*
X147849178Y-102263230D02*
X147849178Y-101491070D01*
X147555022Y-101491070D01*
X147481483Y-101527840D01*
X147444714Y-101564609D01*
X147407944Y-101638148D01*
X147407944Y-101748457D01*
X147444714Y-101821996D01*
X147481483Y-101858765D01*
X147555022Y-101895535D01*
X147849178Y-101895535D01*
X147113788Y-101564609D02*
X147077018Y-101527840D01*
X147003479Y-101491070D01*
X146819632Y-101491070D01*
X146746093Y-101527840D01*
X146709323Y-101564609D01*
X146672554Y-101638148D01*
X146672554Y-101711687D01*
X146709323Y-101821996D01*
X147150557Y-102263230D01*
X146672554Y-102263230D01*
D13*
G04 #@! TO.C,C3*
D12*
X139907944Y-104089691D02*
X139944714Y-104126460D01*
X140055022Y-104163230D01*
X140128561Y-104163230D01*
X140238870Y-104126460D01*
X140312409Y-104052921D01*
X140349178Y-103979382D01*
X140385948Y-103832304D01*
X140385948Y-103721996D01*
X140349178Y-103574918D01*
X140312409Y-103501379D01*
X140238870Y-103427840D01*
X140128561Y-103391070D01*
X140055022Y-103391070D01*
X139944714Y-103427840D01*
X139907944Y-103464609D01*
X139650557Y-103391070D02*
X139172554Y-103391070D01*
X139429940Y-103685226D01*
X139319632Y-103685226D01*
X139246093Y-103721996D01*
X139209323Y-103758765D01*
X139172554Y-103832304D01*
X139172554Y-104016152D01*
X139209323Y-104089691D01*
X139246093Y-104126460D01*
X139319632Y-104163230D01*
X139540249Y-104163230D01*
X139613788Y-104126460D01*
X139650557Y-104089691D01*
D13*
G04 #@! TO.C,C4*
D12*
X143607944Y-100139691D02*
X143644714Y-100176460D01*
X143755022Y-100213230D01*
X143828561Y-100213230D01*
X143938870Y-100176460D01*
X144012409Y-100102921D01*
X144049178Y-100029382D01*
X144085948Y-99882304D01*
X144085948Y-99771996D01*
X144049178Y-99624918D01*
X144012409Y-99551379D01*
X143938870Y-99477840D01*
X143828561Y-99441070D01*
X143755022Y-99441070D01*
X143644714Y-99477840D01*
X143607944Y-99514609D01*
X142946093Y-99698457D02*
X142946093Y-100213230D01*
X143129940Y-99404300D02*
X143313788Y-99955843D01*
X142835784Y-99955843D01*
D13*
G04 #@! TO.C,C6*
D12*
X143039691Y-105792055D02*
X143076460Y-105755285D01*
X143113230Y-105644977D01*
X143113230Y-105571438D01*
X143076460Y-105461129D01*
X143002921Y-105387590D01*
X142929382Y-105350821D01*
X142782304Y-105314051D01*
X142671996Y-105314051D01*
X142524918Y-105350821D01*
X142451379Y-105387590D01*
X142377840Y-105461129D01*
X142341070Y-105571438D01*
X142341070Y-105644977D01*
X142377840Y-105755285D01*
X142414609Y-105792055D01*
X142341070Y-106453906D02*
X142341070Y-106306828D01*
X142377840Y-106233289D01*
X142414609Y-106196520D01*
X142524918Y-106122981D01*
X142671996Y-106086211D01*
X142966152Y-106086211D01*
X143039691Y-106122981D01*
X143076460Y-106159750D01*
X143113230Y-106233289D01*
X143113230Y-106380367D01*
X143076460Y-106453906D01*
X143039691Y-106490676D01*
X142966152Y-106527445D01*
X142782304Y-106527445D01*
X142708765Y-106490676D01*
X142671996Y-106453906D01*
X142635226Y-106380367D01*
X142635226Y-106233289D01*
X142671996Y-106159750D01*
X142708765Y-106122981D01*
X142782304Y-106086211D01*
D13*
G04 #@! TO.C,R5*
D12*
X156857944Y-106313230D02*
X157115331Y-105945535D01*
X157299178Y-106313230D02*
X157299178Y-105541070D01*
X157005022Y-105541070D01*
X156931483Y-105577840D01*
X156894714Y-105614609D01*
X156857944Y-105688148D01*
X156857944Y-105798457D01*
X156894714Y-105871996D01*
X156931483Y-105908765D01*
X157005022Y-105945535D01*
X157299178Y-105945535D01*
X156159323Y-105541070D02*
X156527018Y-105541070D01*
X156563788Y-105908765D01*
X156527018Y-105871996D01*
X156453479Y-105835226D01*
X156269632Y-105835226D01*
X156196093Y-105871996D01*
X156159323Y-105908765D01*
X156122554Y-105982304D01*
X156122554Y-106166152D01*
X156159323Y-106239691D01*
X156196093Y-106276460D01*
X156269632Y-106313230D01*
X156453479Y-106313230D01*
X156527018Y-106276460D01*
X156563788Y-106239691D01*
D13*
G04 #@! TO.C,D1*
D12*
X155063230Y-105550821D02*
X154291070Y-105550821D01*
X154291070Y-105734668D01*
X154327840Y-105844977D01*
X154401379Y-105918516D01*
X154474918Y-105955285D01*
X154621996Y-105992055D01*
X154732304Y-105992055D01*
X154879382Y-105955285D01*
X154952921Y-105918516D01*
X155026460Y-105844977D01*
X155063230Y-105734668D01*
X155063230Y-105550821D01*
X155063230Y-106727445D02*
X155063230Y-106286211D01*
X155063230Y-106506828D02*
X154291070Y-106506828D01*
X154401379Y-106433289D01*
X154474918Y-106359750D01*
X154511687Y-106286211D01*
D13*
G04 #@! TO.C,R3*
D12*
X156821544Y-108763230D02*
X157078931Y-108395535D01*
X157262778Y-108763230D02*
X157262778Y-107991070D01*
X156968622Y-107991070D01*
X156895083Y-108027840D01*
X156858314Y-108064609D01*
X156821544Y-108138148D01*
X156821544Y-108248457D01*
X156858314Y-108321996D01*
X156895083Y-108358765D01*
X156968622Y-108395535D01*
X157262778Y-108395535D01*
X156564157Y-107991070D02*
X156086154Y-107991070D01*
X156343540Y-108285226D01*
X156233232Y-108285226D01*
X156159693Y-108321996D01*
X156122923Y-108358765D01*
X156086154Y-108432304D01*
X156086154Y-108616152D01*
X156122923Y-108689691D01*
X156159693Y-108726460D01*
X156233232Y-108763230D01*
X156453849Y-108763230D01*
X156527388Y-108726460D01*
X156564157Y-108689691D01*
D13*
G04 #@! TO.C,C1*
D12*
X141589691Y-103642055D02*
X141626460Y-103605285D01*
X141663230Y-103494977D01*
X141663230Y-103421438D01*
X141626460Y-103311129D01*
X141552921Y-103237590D01*
X141479382Y-103200821D01*
X141332304Y-103164051D01*
X141221996Y-103164051D01*
X141074918Y-103200821D01*
X141001379Y-103237590D01*
X140927840Y-103311129D01*
X140891070Y-103421438D01*
X140891070Y-103494977D01*
X140927840Y-103605285D01*
X140964609Y-103642055D01*
X141663230Y-104377445D02*
X141663230Y-103936211D01*
X141663230Y-104156828D02*
X140891070Y-104156828D01*
X141001379Y-104083289D01*
X141074918Y-104009750D01*
X141111687Y-103936211D01*
D13*
G04 #@! TD*
%LPC*%
D14*
X157730000Y-98660000D02*
G75*
G03*
X157730000Y-98660000I-400000J0D01*
G01*
X155190000Y-98660000D02*
G75*
G03*
X155190000Y-98660000I-400000J0D01*
G01*
X152650000Y-98660000D02*
G75*
G03*
X152650000Y-98660000I-400000J0D01*
G01*
X150110000Y-98660000D02*
G75*
G03*
X150110000Y-98660000I-400000J0D01*
G01*
X147570000Y-98660000D02*
G75*
G03*
X147570000Y-98660000I-400000J0D01*
G01*
X145030000Y-98660000D02*
G75*
G03*
X145030000Y-98660000I-400000J0D01*
G01*
X142490000Y-98660000D02*
G75*
G03*
X142490000Y-98660000I-400000J0D01*
G01*
X139950000Y-98660000D02*
G75*
G03*
X139950000Y-98660000I-400000J0D01*
G01*
X157730000Y-111360000D02*
G75*
G03*
X157730000Y-111360000I-400000J0D01*
G01*
X155190000Y-111360000D02*
G75*
G03*
X155190000Y-111360000I-400000J0D01*
G01*
X152650000Y-111360000D02*
G75*
G03*
X152650000Y-111360000I-400000J0D01*
G01*
X150110000Y-111360000D02*
G75*
G03*
X150110000Y-111360000I-400000J0D01*
G01*
X147570000Y-111360000D02*
G75*
G03*
X147570000Y-111360000I-400000J0D01*
G01*
X145030000Y-111360000D02*
G75*
G03*
X145030000Y-111360000I-400000J0D01*
G01*
X142490000Y-111360000D02*
G75*
G03*
X142490000Y-111360000I-400000J0D01*
G01*
X139950000Y-111360000D02*
G75*
G03*
X139950000Y-111360000I-400000J0D01*
G01*
D15*
G04 #@! TO.C,U$1*
G36*
X147188600Y-104463600D02*
G01*
X147188600Y-107463600D01*
X146288600Y-107463600D01*
X146288600Y-104463600D01*
X147188600Y-104463600D01*
G37*
G36*
X148488600Y-104463600D02*
G01*
X148488600Y-107463600D01*
X147588600Y-107463600D01*
X147588600Y-104463600D01*
X148488600Y-104463600D01*
G37*
G36*
X149788600Y-104463600D02*
G01*
X149788600Y-107463600D01*
X148888600Y-107463600D01*
X148888600Y-104463600D01*
X149788600Y-104463600D01*
G37*
G36*
X151088600Y-104463600D02*
G01*
X151088600Y-107463600D01*
X150188600Y-107463600D01*
X150188600Y-104463600D01*
X151088600Y-104463600D01*
G37*
G36*
X151288600Y-106163600D02*
G01*
X151288600Y-107063600D01*
X146088600Y-107063600D01*
X146088600Y-106163600D01*
X151288600Y-106163600D01*
G37*
G36*
X151288600Y-104863600D02*
G01*
X151288600Y-105763600D01*
X146088600Y-105763600D01*
X146088600Y-104863600D01*
X151288600Y-104863600D01*
G37*
G04 #@! TD*
D16*
G04 #@! TO.C,U$1*
X148688600Y-105963600D03*
D17*
X144463600Y-108763600D03*
X145113600Y-108763600D03*
X145763600Y-108763600D03*
X146413600Y-108763600D03*
X147063600Y-108763600D03*
X147713600Y-108763600D03*
X148363600Y-108763600D03*
X149013600Y-108763600D03*
X149663600Y-108763600D03*
X150313600Y-108763600D03*
X150963600Y-108763600D03*
X151613600Y-108763600D03*
X152263600Y-108763600D03*
X152913600Y-108763600D03*
X152913600Y-103163600D03*
X152263600Y-103163600D03*
X151613600Y-103163600D03*
X150963600Y-103163600D03*
X150313600Y-103163600D03*
X149663600Y-103163600D03*
X149013600Y-103163600D03*
X148363600Y-103163600D03*
X147713600Y-103163600D03*
X147063600Y-103163600D03*
X146413600Y-103163600D03*
X145763600Y-103163600D03*
X145113600Y-103163600D03*
X144463600Y-103163600D03*
D18*
X152588600Y-107263600D03*
X152588600Y-105963600D03*
X152588600Y-104663600D03*
X151288600Y-104663600D03*
X151288600Y-105963600D03*
X151288600Y-107263600D03*
X149988600Y-107263600D03*
X149988600Y-105963600D03*
X149988600Y-104663600D03*
X144788600Y-104663600D03*
X144788600Y-107263600D03*
X144788600Y-105963600D03*
X146088600Y-104663600D03*
X146088600Y-107263600D03*
X146088600Y-105963600D03*
X147388600Y-104663600D03*
X147388600Y-107263600D03*
X147388600Y-105963600D03*
X148688600Y-104663600D03*
X148688600Y-107263600D03*
X148688600Y-105963600D03*
G04 #@! TD*
D19*
G04 #@! TO.C,R1*
X151934600Y-100483600D03*
X150034600Y-100483600D03*
G04 #@! TD*
G04 #@! TO.C,R2*
X147578600Y-100448600D03*
X145678600Y-100448600D03*
G04 #@! TD*
D20*
G04 #@! TO.C,C3*
X139723600Y-100428600D03*
X139723600Y-102428600D03*
G04 #@! TD*
D21*
G04 #@! TO.C,C4*
X142473600Y-101033600D03*
X144223600Y-101033600D03*
G04 #@! TD*
D22*
G04 #@! TO.C,C6*
X142983600Y-104453600D03*
X142983600Y-102753600D03*
G04 #@! TD*
G04 #@! TO.C,R5*
X157593600Y-107178600D03*
X155893600Y-107178600D03*
G04 #@! TD*
D23*
G04 #@! TO.C,D1*
X154518600Y-107348600D03*
X154518600Y-109548600D03*
G04 #@! TD*
D22*
G04 #@! TO.C,R3*
X157598600Y-109548600D03*
X155898600Y-109548600D03*
G04 #@! TD*
G04 #@! TO.C,C1*
X141268600Y-100673600D03*
X141268600Y-102373600D03*
G04 #@! TD*
M02*
