G04 #@! TF.GenerationSoftware,KiCad,Pcbnew,5.1.6-c6e7f7d~87~ubuntu18.04.1*
G04 #@! TF.CreationDate,2020-09-14T18:26:16+02:00*
G04 #@! TF.ProjectId,cooldrv,636f6f6c-6472-4762-9e6b-696361645f70,rev?*
G04 #@! TF.SameCoordinates,Original*
G04 #@! TF.FileFunction,Copper,L4,Bot*
G04 #@! TF.FilePolarity,Positive*
%FSLAX46Y46*%
G04 Gerber Fmt 4.6, Leading zero omitted, Abs format (unit mm)*
G04 Created by KiCad (PCBNEW 5.1.6-c6e7f7d~87~ubuntu18.04.1) date 2020-09-14 18:26:16*
%MOMM*%
%LPD*%
G01*
G04 APERTURE LIST*
G04 #@! TA.AperFunction,SMDPad,CuDef*
%ADD10R,9.700000X3.400000*%
G04 #@! TD*
G04 #@! TA.AperFunction,SMDPad,CuDef*
%ADD11R,0.300000X1.600000*%
G04 #@! TD*
G04 #@! TA.AperFunction,ComponentPad*
%ADD12C,0.609600*%
G04 #@! TD*
G04 #@! TA.AperFunction,SMDPad,CuDef*
%ADD13R,1.100000X1.500000*%
G04 #@! TD*
G04 #@! TA.AperFunction,SMDPad,CuDef*
%ADD14R,1.600000X1.300000*%
G04 #@! TD*
G04 #@! TA.AperFunction,SMDPad,CuDef*
%ADD15R,1.050000X1.080000*%
G04 #@! TD*
G04 #@! TA.AperFunction,SMDPad,CuDef*
%ADD16R,1.000000X1.100000*%
G04 #@! TD*
G04 #@! TA.AperFunction,SMDPad,CuDef*
%ADD17R,0.600000X0.600000*%
G04 #@! TD*
G04 #@! TA.AperFunction,ViaPad*
%ADD18C,1.600000*%
G04 #@! TD*
G04 #@! TA.AperFunction,ViaPad*
%ADD19C,0.600000*%
G04 #@! TD*
G04 #@! TA.AperFunction,ViaPad*
%ADD20C,0.700000*%
G04 #@! TD*
G04 #@! TA.AperFunction,ViaPad*
%ADD21C,1.200000*%
G04 #@! TD*
G04 #@! TA.AperFunction,ViaPad*
%ADD22C,1.500000*%
G04 #@! TD*
G04 #@! TA.AperFunction,Conductor*
%ADD23C,0.254000*%
G04 #@! TD*
G04 #@! TA.AperFunction,Conductor*
%ADD24C,0.304800*%
G04 #@! TD*
G04 #@! TA.AperFunction,Conductor*
%ADD25C,0.406400*%
G04 #@! TD*
G04 #@! TA.AperFunction,Conductor*
%ADD26C,0.609600*%
G04 #@! TD*
G04 #@! TA.AperFunction,Conductor*
%ADD27C,0.812800*%
G04 #@! TD*
G04 #@! TA.AperFunction,Conductor*
%ADD28C,1.270000*%
G04 #@! TD*
G04 #@! TA.AperFunction,Conductor*
%ADD29C,0.390000*%
G04 #@! TD*
G04 #@! TA.AperFunction,Conductor*
%ADD30C,0.127000*%
G04 #@! TD*
G04 APERTURE END LIST*
D10*
G04 #@! TO.P,U$1,EPAD*
G04 #@! TO.N,/GND*
X148688600Y-105963600D03*
D11*
G04 #@! TO.P,U$1,P$28*
X144463600Y-108763600D03*
G04 #@! TO.P,U$1,P$27*
G04 #@! TO.N,Net-(U$1-PadP$27)*
X145113600Y-108763600D03*
G04 #@! TO.P,U$1,P$26*
G04 #@! TO.N,Net-(U$1-PadP$26)*
X145763600Y-108763600D03*
G04 #@! TO.P,U$1,P$25*
G04 #@! TO.N,Net-(U$1-PadP$25)*
X146413600Y-108763600D03*
G04 #@! TO.P,U$1,P$24*
G04 #@! TO.N,Net-(U$1-PadP$24)*
X147063600Y-108763600D03*
G04 #@! TO.P,U$1,P$23*
G04 #@! TO.N,Net-(U$1-PadP$23)*
X147713600Y-108763600D03*
G04 #@! TO.P,U$1,P$22*
G04 #@! TO.N,Net-(U$1-PadP$22)*
X148363600Y-108763600D03*
G04 #@! TO.P,U$1,P$21*
G04 #@! TO.N,Net-(U$1-PadP$21)*
X149013600Y-108763600D03*
G04 #@! TO.P,U$1,P$20*
G04 #@! TO.N,Net-(U$1-PadP$20)*
X149663600Y-108763600D03*
G04 #@! TO.P,U$1,P$19*
G04 #@! TO.N,Net-(U$1-PadP$19)*
X150313600Y-108763600D03*
G04 #@! TO.P,U$1,P$18*
G04 #@! TO.N,Net-(U$1-PadP$18)*
X150963600Y-108763600D03*
G04 #@! TO.P,U$1,P$17*
G04 #@! TO.N,Net-(D1-PadC)*
X151613600Y-108763600D03*
G04 #@! TO.P,U$1,P$16*
X152263600Y-108763600D03*
G04 #@! TO.P,U$1,P$15*
G04 #@! TO.N,Net-(R5-Pad1)*
X152913600Y-108763600D03*
G04 #@! TO.P,U$1,P$14*
G04 #@! TO.N,/GND*
X152913600Y-103163600D03*
G04 #@! TO.P,U$1,P$13*
G04 #@! TO.N,Net-(U$1-PadP$12)*
X152263600Y-103163600D03*
G04 #@! TO.P,U$1,P$12*
X151613600Y-103163600D03*
G04 #@! TO.P,U$1,P$11*
G04 #@! TO.N,Net-(C1-Pad2)*
X150963600Y-103163600D03*
G04 #@! TO.P,U$1,P$10*
G04 #@! TO.N,Net-(U$1-PadP$10)*
X150313600Y-103163600D03*
G04 #@! TO.P,U$1,P$9*
G04 #@! TO.N,Net-(R1-Pad1)*
X149663600Y-103163600D03*
G04 #@! TO.P,U$1,P$8*
G04 #@! TO.N,Net-(U$1-PadP$8)*
X149013600Y-103163600D03*
G04 #@! TO.P,U$1,P$7*
G04 #@! TO.N,Net-(U$1-PadP$7)*
X148363600Y-103163600D03*
G04 #@! TO.P,U$1,P$6*
G04 #@! TO.N,Net-(R2-Pad2)*
X147713600Y-103163600D03*
G04 #@! TO.P,U$1,P$5*
G04 #@! TO.N,Net-(U$1-PadP$5)*
X147063600Y-103163600D03*
G04 #@! TO.P,U$1,P$4*
G04 #@! TO.N,Net-(C1-Pad2)*
X146413600Y-103163600D03*
G04 #@! TO.P,U$1,P$3*
G04 #@! TO.N,Net-(C4-Pad1)*
X145763600Y-103163600D03*
G04 #@! TO.P,U$1,P$2*
G04 #@! TO.N,Net-(C6-Pad1)*
X145113600Y-103163600D03*
G04 #@! TO.P,U$1,P$1*
G04 #@! TO.N,Net-(C6-Pad2)*
X144463600Y-103163600D03*
D12*
G04 #@! TO.P,U$1,T20*
G04 #@! TO.N,/GND*
X152588600Y-107263600D03*
G04 #@! TO.P,U$1,T19*
X152588600Y-105963600D03*
G04 #@! TO.P,U$1,T18*
X152588600Y-104663600D03*
G04 #@! TO.P,U$1,T15*
X151288600Y-104663600D03*
G04 #@! TO.P,U$1,T16*
X151288600Y-105963600D03*
G04 #@! TO.P,U$1,T17*
X151288600Y-107263600D03*
G04 #@! TO.P,U$1,T14*
X149988600Y-107263600D03*
G04 #@! TO.P,U$1,T13*
X149988600Y-105963600D03*
G04 #@! TO.P,U$1,T12*
X149988600Y-104663600D03*
G04 #@! TO.P,U$1,T0*
X144788600Y-104663600D03*
G04 #@! TO.P,U$1,T2*
X144788600Y-107263600D03*
G04 #@! TO.P,U$1,T1*
X144788600Y-105963600D03*
G04 #@! TO.P,U$1,T3*
X146088600Y-104663600D03*
G04 #@! TO.P,U$1,T5*
X146088600Y-107263600D03*
G04 #@! TO.P,U$1,T4*
X146088600Y-105963600D03*
G04 #@! TO.P,U$1,T6*
X147388600Y-104663600D03*
G04 #@! TO.P,U$1,T8*
X147388600Y-107263600D03*
G04 #@! TO.P,U$1,T7*
X147388600Y-105963600D03*
G04 #@! TO.P,U$1,T9*
X148688600Y-104663600D03*
G04 #@! TO.P,U$1,T11*
X148688600Y-107263600D03*
G04 #@! TO.P,U$1,T10*
X148688600Y-105963600D03*
G04 #@! TD*
D13*
G04 #@! TO.P,R1,2*
G04 #@! TO.N,/GND*
X151934600Y-100483600D03*
G04 #@! TO.P,R1,1*
G04 #@! TO.N,Net-(R1-Pad1)*
X150034600Y-100483600D03*
G04 #@! TD*
G04 #@! TO.P,R2,2*
G04 #@! TO.N,Net-(R2-Pad2)*
X147578600Y-100448600D03*
G04 #@! TO.P,R2,1*
G04 #@! TO.N,/GND*
X145678600Y-100448600D03*
G04 #@! TD*
D14*
G04 #@! TO.P,C3,2*
G04 #@! TO.N,Net-(C1-Pad2)*
X139723600Y-100428600D03*
G04 #@! TO.P,C3,1*
G04 #@! TO.N,/GND*
X139723600Y-102428600D03*
G04 #@! TD*
D15*
G04 #@! TO.P,C4,2*
G04 #@! TO.N,Net-(C1-Pad2)*
X142473600Y-101033600D03*
G04 #@! TO.P,C4,1*
G04 #@! TO.N,Net-(C4-Pad1)*
X144223600Y-101033600D03*
G04 #@! TD*
D16*
G04 #@! TO.P,C6,2*
G04 #@! TO.N,Net-(C6-Pad2)*
X142983600Y-104453600D03*
G04 #@! TO.P,C6,1*
G04 #@! TO.N,Net-(C6-Pad1)*
X142983600Y-102753600D03*
G04 #@! TD*
G04 #@! TO.P,R5,2*
G04 #@! TO.N,Net-(R5-Pad2)*
X157593600Y-107178600D03*
G04 #@! TO.P,R5,1*
G04 #@! TO.N,Net-(R5-Pad1)*
X155893600Y-107178600D03*
G04 #@! TD*
D17*
G04 #@! TO.P,D1,A*
G04 #@! TO.N,/GND*
X154518600Y-107348600D03*
G04 #@! TO.P,D1,C*
G04 #@! TO.N,Net-(D1-PadC)*
X154518600Y-109548600D03*
G04 #@! TD*
D16*
G04 #@! TO.P,R3,2*
G04 #@! TO.N,Net-(C1-Pad2)*
X157598600Y-109548600D03*
G04 #@! TO.P,R3,1*
G04 #@! TO.N,Net-(D1-PadC)*
X155898600Y-109548600D03*
G04 #@! TD*
G04 #@! TO.P,C1,2*
G04 #@! TO.N,Net-(C1-Pad2)*
X141268600Y-100673600D03*
G04 #@! TO.P,C1,1*
G04 #@! TO.N,/GND*
X141268600Y-102373600D03*
G04 #@! TD*
D18*
G04 #@! TO.N,Net-(U$1-PadP$27)*
X152248600Y-111363600D03*
D19*
X143478600Y-109793600D03*
D18*
G04 #@! TO.N,Net-(U$1-PadP$10)*
X152248600Y-98663600D03*
G04 #@! TO.N,Net-(U$1-PadP$8)*
X149708600Y-98663600D03*
G04 #@! TO.N,Net-(U$1-PadP$21)*
X139548600Y-111363600D03*
G04 #@! TO.N,Net-(U$1-PadP$24)*
X142088600Y-111363600D03*
G04 #@! TO.N,NC*
X154788600Y-98663600D03*
G04 #@! TO.N,Net-(U$1-PadP$25)*
X144628600Y-111363600D03*
G04 #@! TO.N,/GND*
X142088600Y-98663600D03*
D19*
X139773600Y-106863600D03*
X139773600Y-106263600D03*
X140373600Y-106863600D03*
X140373600Y-106263600D03*
X140973600Y-106863600D03*
X140973600Y-106263600D03*
X141573600Y-106263600D03*
X141573600Y-106863600D03*
X142173600Y-106863600D03*
X142173600Y-106263600D03*
X142773600Y-106863600D03*
X142773600Y-106263600D03*
X143373600Y-106863600D03*
X143373600Y-106263600D03*
X153908600Y-103168600D03*
X154508600Y-103168600D03*
X153908600Y-103768600D03*
X154508600Y-103768600D03*
X154508600Y-104368600D03*
X153908600Y-104368600D03*
X156188600Y-102458600D03*
X155108600Y-104368600D03*
X155108600Y-103768600D03*
X155108600Y-103168600D03*
X143373600Y-105663600D03*
X142773600Y-105663600D03*
X142173600Y-105663600D03*
X141573600Y-105663600D03*
X140973600Y-105663600D03*
X140373600Y-105663600D03*
X139773600Y-105663600D03*
X139448600Y-107808600D03*
X140048600Y-107808600D03*
X139448600Y-108408600D03*
X140048600Y-108408600D03*
X139448600Y-109008600D03*
X140048600Y-109008600D03*
X141488600Y-107648600D03*
X140888600Y-107648600D03*
X140888600Y-108248600D03*
X141488600Y-108248600D03*
X153808600Y-105068600D03*
X154408600Y-105068600D03*
X153808600Y-105668600D03*
X156828600Y-104808600D03*
X155708600Y-103168600D03*
X156308600Y-103168600D03*
X155708600Y-103768600D03*
X156308600Y-103768600D03*
X156308600Y-104368600D03*
X155708600Y-104368600D03*
X139153600Y-106923600D03*
X140593600Y-108783600D03*
X139213600Y-105023600D03*
X156848600Y-104148600D03*
X155008600Y-105068600D03*
X142088600Y-108248600D03*
X142088600Y-107648600D03*
X140708600Y-104988600D03*
X140708600Y-104388600D03*
X141308600Y-104388600D03*
X141308600Y-104988600D03*
X142688600Y-107648600D03*
X142688600Y-108248600D03*
X155608600Y-105068600D03*
X155608600Y-105668600D03*
X139553600Y-104463600D03*
X153673600Y-107083600D03*
X139153600Y-106283600D03*
X139193600Y-105683600D03*
X143073600Y-108883600D03*
X140033600Y-105043600D03*
X140588600Y-109448600D03*
X156208600Y-105068600D03*
X143288600Y-108248600D03*
X143288600Y-107648600D03*
X141908600Y-104988600D03*
X141908600Y-104388600D03*
X155588600Y-102458600D03*
X153788600Y-106388600D03*
X156868600Y-103548600D03*
X141228600Y-109128600D03*
X141828600Y-109128600D03*
X142428600Y-109128600D03*
D18*
X157328600Y-98663600D03*
G04 #@! TO.N,Net-(U$1-PadP$22)*
X154788600Y-111363600D03*
G04 #@! TO.N,Net-(U$1-PadP$20)*
X157328600Y-111363600D03*
G04 #@! TO.N,Net-(U$1-PadP$26)*
X147168600Y-111363600D03*
G04 #@! TO.N,Net-(U$1-PadP$18)*
X149708600Y-111363600D03*
G04 #@! TO.N,Net-(C1-Pad2)*
X139548600Y-98663600D03*
D20*
X151563600Y-101808600D03*
X146148600Y-101833600D03*
D19*
X157618600Y-108433600D03*
G04 #@! TO.N,Net-(U$1-PadP$12)*
X152713600Y-101803600D03*
D21*
X153538596Y-99853600D03*
D19*
G04 #@! TO.N,Net-(R5-Pad2)*
X156618600Y-100553600D03*
G04 #@! TO.N,Net-(U$1-PadP$26)*
X145650000Y-110200000D03*
G04 #@! TO.N,Net-(U$1-PadP$24)*
X147548026Y-110063372D03*
G04 #@! TO.N,Net-(U$1-PadP$22)*
X148400000Y-110850000D03*
G04 #@! TO.N,Net-(U$1-PadP$21)*
X148988593Y-110208173D03*
G04 #@! TO.N,Net-(U$1-PadP$20)*
X153500000Y-110700000D03*
X150098772Y-110059394D03*
D22*
G04 #@! TO.N,Net-(U$1-PadP$7)*
X147202662Y-98629538D03*
D18*
G04 #@! TO.N,Net-(U$1-PadP$5)*
X144628600Y-98645190D03*
G04 #@! TD*
D23*
G04 #@! TO.N,Net-(U$1-PadP$27)*
X145113600Y-108763600D02*
X145113600Y-109758600D01*
X145113600Y-109758600D02*
X144778600Y-110093600D01*
X144778600Y-110093600D02*
X143778600Y-110093600D01*
X143778600Y-110093600D02*
X143478600Y-109793600D01*
D24*
G04 #@! TO.N,Net-(U$1-PadP$10)*
X152248600Y-98663600D02*
X151408600Y-98663600D01*
X151408600Y-98663600D02*
X151013600Y-99033600D01*
X151013600Y-99033600D02*
X151013600Y-101328600D01*
X151013600Y-101328600D02*
X150653600Y-101688600D01*
X150653600Y-101688600D02*
X150488600Y-101713600D01*
X150488600Y-101713600D02*
X150338600Y-101813600D01*
X150338600Y-101813600D02*
X150338600Y-103138600D01*
X150338600Y-103138600D02*
X150313600Y-103163600D01*
G04 #@! TO.N,Net-(U$1-PadP$8)*
X149013600Y-103163600D02*
X149013600Y-99358600D01*
X149013600Y-99358600D02*
X149708600Y-98663600D01*
D25*
G04 #@! TO.N,Net-(U$1-PadP$7)*
X148488600Y-99088600D02*
X148298600Y-99033600D01*
X148298600Y-99033600D02*
X147438600Y-99033600D01*
D24*
X148488600Y-99088600D02*
X148488600Y-102083600D01*
X148488600Y-102083600D02*
X148358600Y-102213600D01*
X148358600Y-102213600D02*
X148358600Y-103158600D01*
X148358600Y-103158600D02*
X148363600Y-103163600D01*
D25*
G04 #@! TO.N,Net-(U$1-PadP$5)*
X147063600Y-103163600D02*
X147058600Y-101973600D01*
D24*
X147058600Y-101973600D02*
X146598600Y-101163600D01*
X146598600Y-101163600D02*
X146628600Y-100983600D01*
D25*
X146078600Y-99158600D02*
X146078600Y-99153600D01*
X146078600Y-99153600D02*
X145123600Y-99158600D01*
D23*
G04 #@! TO.N,Net-(U$1-PadP$25)*
X146413600Y-108763600D02*
X146413600Y-110418600D01*
X144628600Y-111363600D02*
X145468600Y-111363600D01*
X145468600Y-111363600D02*
X146413600Y-110418600D01*
D24*
G04 #@! TO.N,/GND*
X143963600Y-104338600D02*
X152588600Y-104663600D01*
X144788600Y-107263600D02*
X152413600Y-107588600D01*
X144788600Y-105963600D02*
X144788600Y-104663600D01*
X144788600Y-107263600D02*
X144788600Y-105963600D01*
X146088600Y-107263600D02*
X144788600Y-107263600D01*
X147388600Y-107263600D02*
X146088600Y-107263600D01*
X148688600Y-107263600D02*
X147388600Y-107263600D01*
X148688600Y-105963600D02*
X148688600Y-107263600D01*
X148688600Y-104663600D02*
X148688600Y-105963600D01*
X148688600Y-105963600D02*
X147388600Y-105963600D01*
X149988600Y-105963600D02*
X148688600Y-105963600D01*
X147388600Y-104723600D02*
X147388600Y-104663600D01*
X147398600Y-104733600D02*
X147388600Y-104723600D01*
X147398600Y-105953600D02*
X147398600Y-104733600D01*
X147388600Y-105963600D02*
X147398600Y-105953600D01*
X149988600Y-104663600D02*
X148688600Y-104663600D01*
X149988600Y-104663600D02*
X149988600Y-105963600D01*
X149988600Y-105963600D02*
X149988600Y-105973600D01*
X149988600Y-105973600D02*
X149998600Y-105983600D01*
X149998600Y-105983600D02*
X149998600Y-107253600D01*
X149998600Y-107253600D02*
X149988600Y-107263600D01*
X152588600Y-104663600D02*
X151288600Y-104663600D01*
X151288600Y-104663600D02*
X149988600Y-104663600D01*
X151288600Y-105963600D02*
X152588600Y-105963600D01*
X149988600Y-105963600D02*
X151288600Y-105963600D01*
X151288600Y-107263600D02*
X152588600Y-107263600D01*
X149988600Y-107263600D02*
X151288600Y-107263600D01*
X146088600Y-104663600D02*
X146088600Y-105963600D01*
X144788600Y-104663600D02*
X146088600Y-104663600D01*
X154518600Y-107348600D02*
X152673600Y-107348600D01*
X152673600Y-107348600D02*
X152588600Y-107263600D01*
X151934600Y-100483600D02*
X152608600Y-100323600D01*
X152608600Y-100323600D02*
X153618600Y-101333600D01*
X153298600Y-102778600D02*
X152913600Y-103163600D01*
X153298600Y-102778600D02*
X153298600Y-102693600D01*
X153298600Y-102693600D02*
X153618600Y-102373600D01*
X153618600Y-102373600D02*
X153618600Y-101333600D01*
D26*
X143413799Y-99988799D02*
X142088600Y-98663600D01*
X145152441Y-99988799D02*
X143413799Y-99988799D01*
X145213642Y-100050000D02*
X145152441Y-99988799D01*
X145678600Y-100448600D02*
X145622600Y-100077600D01*
X145622600Y-100077600D02*
X145595000Y-100050000D01*
X145595000Y-100050000D02*
X145213642Y-100050000D01*
D25*
G04 #@! TO.N,Net-(C1-Pad2)*
X151563600Y-101808600D02*
X151063600Y-102093600D01*
X146148600Y-101833600D02*
X146398600Y-101983600D01*
X146398600Y-101983600D02*
X146398600Y-103148600D01*
D23*
X146398600Y-103148600D02*
X146413600Y-103163600D01*
D27*
X139553600Y-100548600D02*
X141268600Y-100673600D01*
X139723600Y-100428600D02*
X139553600Y-100548600D01*
X139753600Y-98868600D02*
X139723600Y-100428600D01*
D23*
X139228600Y-98983600D02*
X139548600Y-98663600D01*
D24*
X150963600Y-103163600D02*
X150963600Y-102193600D01*
X150963600Y-102193600D02*
X151063600Y-102093600D01*
X141268600Y-100673600D02*
X142113600Y-100673600D01*
X142113600Y-100673600D02*
X142473600Y-101033600D01*
X157598600Y-109548600D02*
X157598600Y-109453600D01*
X157598600Y-109453600D02*
X157618600Y-108433600D01*
D28*
X139753600Y-98868600D02*
X139548600Y-98663600D01*
D25*
G04 #@! TO.N,Net-(R2-Pad2)*
X147713600Y-103163600D02*
X147713600Y-100519600D01*
D23*
X147713600Y-100519600D02*
X147578600Y-100448600D01*
G04 #@! TO.N,Net-(R1-Pad1)*
X150034600Y-100483600D02*
X149763600Y-100569600D01*
D25*
X149663600Y-103163600D02*
X149663600Y-102118600D01*
X149663600Y-102118600D02*
X149673600Y-101908600D01*
X149673600Y-101908600D02*
X149873600Y-100484600D01*
X149873600Y-100484600D02*
X150034600Y-100483600D01*
D24*
G04 #@! TO.N,Net-(C6-Pad2)*
X144463600Y-103163600D02*
X144228600Y-103163600D01*
X144228600Y-103163600D02*
X143378600Y-104013600D01*
X143378600Y-104013600D02*
X143378600Y-104058600D01*
X143378600Y-104058600D02*
X142983600Y-104453600D01*
G04 #@! TO.N,Net-(C6-Pad1)*
X145113600Y-103163600D02*
X145033600Y-102288600D01*
X145033600Y-102288600D02*
X144878600Y-102093600D01*
X144878600Y-102093600D02*
X144958600Y-102093600D01*
D23*
X144958600Y-102093600D02*
X144838600Y-102048600D01*
X144838600Y-102048600D02*
X143763600Y-101973600D01*
D24*
X143763600Y-101973600D02*
X142983600Y-102753600D01*
D23*
G04 #@! TO.N,Net-(C4-Pad1)*
X145763600Y-103163600D02*
X145743600Y-102443600D01*
X145743600Y-102443600D02*
X145458600Y-102033600D01*
X145458600Y-102033600D02*
X145358600Y-101733600D01*
X145358600Y-101733600D02*
X145223600Y-101573600D01*
X145223600Y-101573600D02*
X144078600Y-101473600D01*
X144078600Y-101473600D02*
X143978600Y-101373600D01*
D24*
X143978600Y-101373600D02*
X143978600Y-101278600D01*
X143978600Y-101278600D02*
X144223600Y-101033600D01*
G04 #@! TO.N,Net-(U$1-PadP$12)*
X151613600Y-103163600D02*
X152263600Y-103163600D01*
X152263600Y-103163600D02*
X152263600Y-102388600D01*
X152263600Y-102388600D02*
X152713600Y-101803600D01*
G04 #@! TO.N,Net-(R5-Pad2)*
X156618600Y-100553600D02*
X157318600Y-100553600D01*
X157318600Y-100553600D02*
X157618600Y-100853600D01*
X157618600Y-100853600D02*
X157618600Y-107153600D01*
X157618600Y-107153600D02*
X157593600Y-107178600D01*
G04 #@! TO.N,Net-(R5-Pad1)*
X155893600Y-107578600D02*
X154898600Y-108573600D01*
X154898600Y-108573600D02*
X153103600Y-108573600D01*
X153103600Y-108573600D02*
X152913600Y-108763600D01*
X155893600Y-107178600D02*
X155893600Y-107578600D01*
D23*
G04 #@! TO.N,Net-(U$1-PadP$26)*
X145763600Y-110086400D02*
X145650000Y-110200000D01*
X145763600Y-108763600D02*
X145763600Y-110086400D01*
G04 #@! TO.N,Net-(U$1-PadP$24)*
X147063600Y-109578946D02*
X147548026Y-110063372D01*
X147063600Y-108763600D02*
X147063600Y-109578946D01*
G04 #@! TO.N,Net-(U$1-PadP$22)*
X148222998Y-110672998D02*
X148400000Y-110850000D01*
X148363600Y-108763600D02*
X148222998Y-108904202D01*
X148222998Y-108904202D02*
X148222998Y-110672998D01*
D24*
G04 #@! TO.N,Net-(U$1-PadP$21)*
X149013600Y-110183166D02*
X148988593Y-110208173D01*
X149013600Y-108763600D02*
X149013600Y-110183166D01*
D23*
G04 #@! TO.N,Net-(U$1-PadP$20)*
X149663600Y-108763600D02*
X149663600Y-109624222D01*
X149663600Y-109624222D02*
X150098772Y-110059394D01*
D24*
G04 #@! TO.N,Net-(U$1-PadP$18)*
X150963600Y-108763600D02*
X150963600Y-111239970D01*
X150963600Y-111239970D02*
X150839970Y-111363600D01*
X150839970Y-111363600D02*
X149708600Y-111363600D01*
D23*
G04 #@! TO.N,Net-(D1-PadC)*
X152263600Y-108763600D02*
X151613600Y-108763600D01*
D24*
X154518600Y-109548600D02*
X155898600Y-109548600D01*
X152263600Y-108763600D02*
X152263600Y-109868400D01*
X152263600Y-109868400D02*
X152333800Y-109938600D01*
X154128600Y-109938600D02*
X154518600Y-109548600D01*
X152333800Y-109938600D02*
X154128600Y-109938600D01*
D23*
G04 #@! TO.N,Net-(U$1-PadP$7)*
X147438600Y-99033600D02*
X147202662Y-98797662D01*
X147202662Y-98797662D02*
X147202662Y-98629538D01*
D24*
G04 #@! TO.N,Net-(U$1-PadP$5)*
X144628600Y-98663600D02*
X144628600Y-98645190D01*
X145123600Y-99158600D02*
X144628600Y-98663600D01*
X146050000Y-99158600D02*
X146078600Y-99158600D01*
X146628600Y-99878600D02*
X146650000Y-99900000D01*
X146628600Y-99768600D02*
X146628600Y-99878600D01*
D23*
X146200000Y-99150000D02*
X146100000Y-99150000D01*
X146588600Y-99538600D02*
X146200000Y-99150000D01*
D29*
X146628600Y-100983600D02*
X146628600Y-99650000D01*
G04 #@! TD*
D30*
G04 #@! TO.N,/GND*
G36*
X144124844Y-97702728D02*
G01*
X143950658Y-97819115D01*
X143802525Y-97967248D01*
X143686138Y-98141434D01*
X143605970Y-98334978D01*
X143565100Y-98540444D01*
X143565100Y-98749936D01*
X143605970Y-98955402D01*
X143686138Y-99148946D01*
X143802525Y-99323132D01*
X143950658Y-99471265D01*
X144124844Y-99587652D01*
X144318388Y-99667820D01*
X144523854Y-99708690D01*
X144733346Y-99708690D01*
X144759337Y-99703520D01*
X144760981Y-100230046D01*
X144748600Y-100228826D01*
X143698600Y-100228826D01*
X143646945Y-100233914D01*
X143597275Y-100248981D01*
X143551499Y-100273448D01*
X143511377Y-100306377D01*
X143478448Y-100346499D01*
X143453981Y-100392275D01*
X143438914Y-100441945D01*
X143433826Y-100493600D01*
X143433826Y-101573600D01*
X143438914Y-101625255D01*
X143453981Y-101674925D01*
X143460990Y-101688039D01*
X143210203Y-101938826D01*
X142483600Y-101938826D01*
X142431945Y-101943914D01*
X142382275Y-101958981D01*
X142336499Y-101983448D01*
X142296377Y-102016377D01*
X142263448Y-102056499D01*
X142238981Y-102102275D01*
X142223914Y-102151945D01*
X142218826Y-102203600D01*
X142218826Y-103303600D01*
X142223914Y-103355255D01*
X142238981Y-103404925D01*
X142263448Y-103450701D01*
X142296377Y-103490823D01*
X142336499Y-103523752D01*
X142382275Y-103548219D01*
X142431945Y-103563286D01*
X142483600Y-103568374D01*
X143235656Y-103568374D01*
X143165204Y-103638826D01*
X142483600Y-103638826D01*
X142431945Y-103643914D01*
X142382275Y-103658981D01*
X142336499Y-103683448D01*
X142296377Y-103716377D01*
X142263448Y-103756499D01*
X142238981Y-103802275D01*
X142223914Y-103851945D01*
X142218826Y-103903600D01*
X142218826Y-105003600D01*
X142223914Y-105055255D01*
X142238981Y-105104925D01*
X142263448Y-105150701D01*
X142296377Y-105190823D01*
X142336499Y-105223752D01*
X142382275Y-105248219D01*
X142431945Y-105263286D01*
X142483600Y-105268374D01*
X143483600Y-105268374D01*
X143535255Y-105263286D01*
X143584925Y-105248219D01*
X143630701Y-105223752D01*
X143670823Y-105190823D01*
X143703752Y-105150701D01*
X143728219Y-105104925D01*
X143743286Y-105055255D01*
X143748374Y-105003600D01*
X143748374Y-104249072D01*
X143764699Y-104218529D01*
X143765943Y-104214427D01*
X144048826Y-103931544D01*
X144048826Y-103963600D01*
X144053914Y-104015255D01*
X144068981Y-104064925D01*
X144093448Y-104110701D01*
X144126377Y-104150823D01*
X144166499Y-104183752D01*
X144212275Y-104208219D01*
X144261945Y-104223286D01*
X144313600Y-104228374D01*
X144613600Y-104228374D01*
X144665255Y-104223286D01*
X144714925Y-104208219D01*
X144760701Y-104183752D01*
X144788600Y-104160855D01*
X144816499Y-104183752D01*
X144862275Y-104208219D01*
X144911945Y-104223286D01*
X144963600Y-104228374D01*
X145263600Y-104228374D01*
X145315255Y-104223286D01*
X145364925Y-104208219D01*
X145410701Y-104183752D01*
X145438600Y-104160855D01*
X145466499Y-104183752D01*
X145512275Y-104208219D01*
X145561945Y-104223286D01*
X145613600Y-104228374D01*
X145913600Y-104228374D01*
X145965255Y-104223286D01*
X146014925Y-104208219D01*
X146060701Y-104183752D01*
X146088600Y-104160855D01*
X146116499Y-104183752D01*
X146162275Y-104208219D01*
X146211945Y-104223286D01*
X146263600Y-104228374D01*
X146563600Y-104228374D01*
X146615255Y-104223286D01*
X146664925Y-104208219D01*
X146710701Y-104183752D01*
X146738600Y-104160855D01*
X146766499Y-104183752D01*
X146812275Y-104208219D01*
X146861945Y-104223286D01*
X146913600Y-104228374D01*
X147213600Y-104228374D01*
X147265255Y-104223286D01*
X147314925Y-104208219D01*
X147360701Y-104183752D01*
X147388600Y-104160855D01*
X147416499Y-104183752D01*
X147462275Y-104208219D01*
X147511945Y-104223286D01*
X147563600Y-104228374D01*
X147863600Y-104228374D01*
X147915255Y-104223286D01*
X147964925Y-104208219D01*
X148010701Y-104183752D01*
X148038600Y-104160855D01*
X148066499Y-104183752D01*
X148112275Y-104208219D01*
X148161945Y-104223286D01*
X148213600Y-104228374D01*
X148513600Y-104228374D01*
X148565255Y-104223286D01*
X148614925Y-104208219D01*
X148660701Y-104183752D01*
X148688600Y-104160855D01*
X148716499Y-104183752D01*
X148762275Y-104208219D01*
X148811945Y-104223286D01*
X148863600Y-104228374D01*
X149163600Y-104228374D01*
X149215255Y-104223286D01*
X149264925Y-104208219D01*
X149310701Y-104183752D01*
X149338600Y-104160855D01*
X149366499Y-104183752D01*
X149412275Y-104208219D01*
X149461945Y-104223286D01*
X149513600Y-104228374D01*
X149813600Y-104228374D01*
X149865255Y-104223286D01*
X149914925Y-104208219D01*
X149960701Y-104183752D01*
X149988600Y-104160855D01*
X150016499Y-104183752D01*
X150062275Y-104208219D01*
X150111945Y-104223286D01*
X150163600Y-104228374D01*
X150463600Y-104228374D01*
X150515255Y-104223286D01*
X150564925Y-104208219D01*
X150610701Y-104183752D01*
X150638600Y-104160855D01*
X150666499Y-104183752D01*
X150712275Y-104208219D01*
X150761945Y-104223286D01*
X150813600Y-104228374D01*
X151113600Y-104228374D01*
X151165255Y-104223286D01*
X151214925Y-104208219D01*
X151260701Y-104183752D01*
X151288600Y-104160855D01*
X151316499Y-104183752D01*
X151362275Y-104208219D01*
X151411945Y-104223286D01*
X151463600Y-104228374D01*
X151763600Y-104228374D01*
X151815255Y-104223286D01*
X151864925Y-104208219D01*
X151910701Y-104183752D01*
X151938600Y-104160855D01*
X151966499Y-104183752D01*
X152012275Y-104208219D01*
X152061945Y-104223286D01*
X152113600Y-104228374D01*
X152413600Y-104228374D01*
X152465255Y-104223286D01*
X152493739Y-104214646D01*
X152498743Y-104220926D01*
X152554034Y-104267653D01*
X152617378Y-104302695D01*
X152686342Y-104324706D01*
X152735225Y-104331100D01*
X152827100Y-104239225D01*
X152827100Y-103252100D01*
X153000100Y-103252100D01*
X153000100Y-104239225D01*
X153091975Y-104331100D01*
X153140858Y-104324706D01*
X153209822Y-104302695D01*
X153273166Y-104267653D01*
X153328457Y-104220926D01*
X153373570Y-104164311D01*
X153406771Y-104099982D01*
X153426784Y-104030412D01*
X153432840Y-103958275D01*
X153431100Y-103343975D01*
X153339225Y-103252100D01*
X153000100Y-103252100D01*
X152827100Y-103252100D01*
X152805100Y-103252100D01*
X152805100Y-103075100D01*
X152827100Y-103075100D01*
X152827100Y-103055100D01*
X153000100Y-103055100D01*
X153000100Y-103075100D01*
X153339225Y-103075100D01*
X153431100Y-102983225D01*
X153432840Y-102368925D01*
X153426784Y-102296788D01*
X153406771Y-102227218D01*
X153373570Y-102162889D01*
X153328457Y-102106274D01*
X153273166Y-102059547D01*
X153227887Y-102034499D01*
X153255445Y-101967967D01*
X153277100Y-101859100D01*
X153277100Y-101748100D01*
X153255445Y-101639233D01*
X153212968Y-101536682D01*
X153151299Y-101444389D01*
X153072811Y-101365901D01*
X152980518Y-101304232D01*
X152877967Y-101261755D01*
X152851621Y-101256514D01*
X152853878Y-101233600D01*
X152852100Y-100663975D01*
X152760225Y-100572100D01*
X152023100Y-100572100D01*
X152023100Y-100592100D01*
X151846100Y-100592100D01*
X151846100Y-100572100D01*
X151826100Y-100572100D01*
X151826100Y-100395100D01*
X151846100Y-100395100D01*
X151846100Y-100375100D01*
X152023100Y-100375100D01*
X152023100Y-100395100D01*
X152760225Y-100395100D01*
X152821170Y-100334155D01*
X152867872Y-100404049D01*
X152988147Y-100524324D01*
X153129575Y-100618824D01*
X153286722Y-100683916D01*
X153453549Y-100717100D01*
X153623643Y-100717100D01*
X153790470Y-100683916D01*
X153947617Y-100618824D01*
X154089045Y-100524324D01*
X154209320Y-100404049D01*
X154303820Y-100262621D01*
X154368912Y-100105474D01*
X154402096Y-99938647D01*
X154402096Y-99768553D01*
X154377400Y-99644400D01*
X154478388Y-99686230D01*
X154683854Y-99727100D01*
X154893346Y-99727100D01*
X155098812Y-99686230D01*
X155292356Y-99606062D01*
X155466542Y-99489675D01*
X155614675Y-99341542D01*
X155731062Y-99167356D01*
X155811230Y-98973812D01*
X155852100Y-98768346D01*
X155852100Y-98558854D01*
X155811230Y-98353388D01*
X155731062Y-98159844D01*
X155614675Y-97985658D01*
X155466542Y-97837525D01*
X155292356Y-97721138D01*
X155222254Y-97692101D01*
X157599268Y-97692101D01*
X157780562Y-97709877D01*
X157950782Y-97761269D01*
X158107783Y-97844748D01*
X158245573Y-97957126D01*
X158358915Y-98094133D01*
X158443487Y-98250545D01*
X158496066Y-98420403D01*
X158515091Y-98601412D01*
X158515100Y-98603904D01*
X158515099Y-111399268D01*
X158497323Y-111580561D01*
X158445930Y-111750783D01*
X158362451Y-111907785D01*
X158250074Y-112045573D01*
X158113067Y-112158915D01*
X157956655Y-112243487D01*
X157899553Y-112261162D01*
X158006542Y-112189675D01*
X158154675Y-112041542D01*
X158271062Y-111867356D01*
X158351230Y-111673812D01*
X158392100Y-111468346D01*
X158392100Y-111258854D01*
X158351230Y-111053388D01*
X158271062Y-110859844D01*
X158154675Y-110685658D01*
X158006542Y-110537525D01*
X157832356Y-110421138D01*
X157692900Y-110363374D01*
X158098600Y-110363374D01*
X158150255Y-110358286D01*
X158199925Y-110343219D01*
X158245701Y-110318752D01*
X158285823Y-110285823D01*
X158318752Y-110245701D01*
X158343219Y-110199925D01*
X158358286Y-110150255D01*
X158363374Y-110098600D01*
X158363374Y-108998600D01*
X158358286Y-108946945D01*
X158343219Y-108897275D01*
X158318752Y-108851499D01*
X158285823Y-108811377D01*
X158245701Y-108778448D01*
X158199925Y-108753981D01*
X158150255Y-108738914D01*
X158098600Y-108733826D01*
X158095712Y-108733826D01*
X158117968Y-108700518D01*
X158160445Y-108597967D01*
X158182100Y-108489100D01*
X158182100Y-108378100D01*
X158160445Y-108269233D01*
X158117968Y-108166682D01*
X158056299Y-108074389D01*
X157977811Y-107995901D01*
X157974029Y-107993374D01*
X158093600Y-107993374D01*
X158145255Y-107988286D01*
X158194925Y-107973219D01*
X158240701Y-107948752D01*
X158280823Y-107915823D01*
X158313752Y-107875701D01*
X158338219Y-107829925D01*
X158353286Y-107780255D01*
X158358374Y-107728600D01*
X158358374Y-106628600D01*
X158353286Y-106576945D01*
X158338219Y-106527275D01*
X158313752Y-106481499D01*
X158280823Y-106441377D01*
X158240701Y-106408448D01*
X158194925Y-106383981D01*
X158145255Y-106368914D01*
X158093600Y-106363826D01*
X158034500Y-106363826D01*
X158034500Y-100874017D01*
X158036511Y-100853599D01*
X158034500Y-100833181D01*
X158034500Y-100833172D01*
X158028482Y-100772069D01*
X158004700Y-100693672D01*
X157992147Y-100670187D01*
X157966081Y-100621420D01*
X157927130Y-100573959D01*
X157927129Y-100573958D01*
X157914108Y-100558092D01*
X157898243Y-100545072D01*
X157627133Y-100273963D01*
X157614108Y-100258092D01*
X157550779Y-100206119D01*
X157478528Y-100167500D01*
X157400131Y-100143718D01*
X157339028Y-100137700D01*
X157339018Y-100137700D01*
X157318600Y-100135689D01*
X157298182Y-100137700D01*
X156999610Y-100137700D01*
X156977811Y-100115901D01*
X156885518Y-100054232D01*
X156782967Y-100011755D01*
X156674100Y-99990100D01*
X156563100Y-99990100D01*
X156454233Y-100011755D01*
X156351682Y-100054232D01*
X156259389Y-100115901D01*
X156180901Y-100194389D01*
X156119232Y-100286682D01*
X156076755Y-100389233D01*
X156055100Y-100498100D01*
X156055100Y-100609100D01*
X156076755Y-100717967D01*
X156119232Y-100820518D01*
X156180901Y-100912811D01*
X156259389Y-100991299D01*
X156351682Y-101052968D01*
X156454233Y-101095445D01*
X156563100Y-101117100D01*
X156674100Y-101117100D01*
X156782967Y-101095445D01*
X156885518Y-101052968D01*
X156977811Y-100991299D01*
X156999610Y-100969500D01*
X157146330Y-100969500D01*
X157202700Y-101025871D01*
X157202701Y-106363826D01*
X157093600Y-106363826D01*
X157041945Y-106368914D01*
X156992275Y-106383981D01*
X156946499Y-106408448D01*
X156906377Y-106441377D01*
X156873448Y-106481499D01*
X156848981Y-106527275D01*
X156833914Y-106576945D01*
X156828826Y-106628600D01*
X156828826Y-107728600D01*
X156833914Y-107780255D01*
X156848981Y-107829925D01*
X156873448Y-107875701D01*
X156906377Y-107915823D01*
X156946499Y-107948752D01*
X156992275Y-107973219D01*
X157041945Y-107988286D01*
X157093600Y-107993374D01*
X157263171Y-107993374D01*
X157259389Y-107995901D01*
X157180901Y-108074389D01*
X157119232Y-108166682D01*
X157076755Y-108269233D01*
X157055100Y-108378100D01*
X157055100Y-108489100D01*
X157076755Y-108597967D01*
X157119232Y-108700518D01*
X157141488Y-108733826D01*
X157098600Y-108733826D01*
X157046945Y-108738914D01*
X156997275Y-108753981D01*
X156951499Y-108778448D01*
X156911377Y-108811377D01*
X156878448Y-108851499D01*
X156853981Y-108897275D01*
X156838914Y-108946945D01*
X156833826Y-108998600D01*
X156833826Y-110098600D01*
X156838914Y-110150255D01*
X156853981Y-110199925D01*
X156878448Y-110245701D01*
X156911377Y-110285823D01*
X156951499Y-110318752D01*
X156997275Y-110343219D01*
X157006328Y-110345965D01*
X156824844Y-110421138D01*
X156650658Y-110537525D01*
X156502525Y-110685658D01*
X156386138Y-110859844D01*
X156305970Y-111053388D01*
X156265100Y-111258854D01*
X156265100Y-111468346D01*
X156305970Y-111673812D01*
X156386138Y-111867356D01*
X156502525Y-112041542D01*
X156650658Y-112189675D01*
X156824844Y-112306062D01*
X156846661Y-112315099D01*
X155270539Y-112315099D01*
X155292356Y-112306062D01*
X155466542Y-112189675D01*
X155614675Y-112041542D01*
X155731062Y-111867356D01*
X155811230Y-111673812D01*
X155852100Y-111468346D01*
X155852100Y-111258854D01*
X155811230Y-111053388D01*
X155731062Y-110859844D01*
X155614675Y-110685658D01*
X155466542Y-110537525D01*
X155292356Y-110421138D01*
X155098812Y-110340970D01*
X154893346Y-110300100D01*
X154683854Y-110300100D01*
X154478388Y-110340970D01*
X154284844Y-110421138D01*
X154110658Y-110537525D01*
X154053576Y-110594607D01*
X154041845Y-110535633D01*
X153999368Y-110433082D01*
X153946861Y-110354500D01*
X154108182Y-110354500D01*
X154128600Y-110356511D01*
X154149018Y-110354500D01*
X154149028Y-110354500D01*
X154210131Y-110348482D01*
X154288528Y-110324700D01*
X154360779Y-110286081D01*
X154424108Y-110234108D01*
X154437133Y-110218237D01*
X154541997Y-110113374D01*
X154818600Y-110113374D01*
X154870255Y-110108286D01*
X154919925Y-110093219D01*
X154965701Y-110068752D01*
X155005823Y-110035823D01*
X155038752Y-109995701D01*
X155055429Y-109964500D01*
X155133826Y-109964500D01*
X155133826Y-110098600D01*
X155138914Y-110150255D01*
X155153981Y-110199925D01*
X155178448Y-110245701D01*
X155211377Y-110285823D01*
X155251499Y-110318752D01*
X155297275Y-110343219D01*
X155346945Y-110358286D01*
X155398600Y-110363374D01*
X156398600Y-110363374D01*
X156450255Y-110358286D01*
X156499925Y-110343219D01*
X156545701Y-110318752D01*
X156585823Y-110285823D01*
X156618752Y-110245701D01*
X156643219Y-110199925D01*
X156658286Y-110150255D01*
X156663374Y-110098600D01*
X156663374Y-108998600D01*
X156658286Y-108946945D01*
X156643219Y-108897275D01*
X156618752Y-108851499D01*
X156585823Y-108811377D01*
X156545701Y-108778448D01*
X156499925Y-108753981D01*
X156450255Y-108738914D01*
X156398600Y-108733826D01*
X155398600Y-108733826D01*
X155346945Y-108738914D01*
X155310358Y-108750012D01*
X156066998Y-107993374D01*
X156393600Y-107993374D01*
X156445255Y-107988286D01*
X156494925Y-107973219D01*
X156540701Y-107948752D01*
X156580823Y-107915823D01*
X156613752Y-107875701D01*
X156638219Y-107829925D01*
X156653286Y-107780255D01*
X156658374Y-107728600D01*
X156658374Y-106628600D01*
X156653286Y-106576945D01*
X156638219Y-106527275D01*
X156613752Y-106481499D01*
X156580823Y-106441377D01*
X156540701Y-106408448D01*
X156494925Y-106383981D01*
X156445255Y-106368914D01*
X156393600Y-106363826D01*
X155393600Y-106363826D01*
X155341945Y-106368914D01*
X155292275Y-106383981D01*
X155246499Y-106408448D01*
X155206377Y-106441377D01*
X155173448Y-106481499D01*
X155148981Y-106527275D01*
X155133914Y-106576945D01*
X155128826Y-106628600D01*
X155128826Y-106849395D01*
X155125643Y-106843440D01*
X155079719Y-106787481D01*
X155023760Y-106741557D01*
X154959917Y-106707432D01*
X154890643Y-106686418D01*
X154818600Y-106679322D01*
X154698975Y-106681100D01*
X154607100Y-106772975D01*
X154607100Y-107260100D01*
X154627100Y-107260100D01*
X154627100Y-107437100D01*
X154607100Y-107437100D01*
X154607100Y-107924225D01*
X154698975Y-108016100D01*
X154818600Y-108017878D01*
X154871347Y-108012683D01*
X154726330Y-108157700D01*
X153328374Y-108157700D01*
X153328374Y-107963600D01*
X153323286Y-107911945D01*
X153308219Y-107862275D01*
X153283752Y-107816499D01*
X153250823Y-107776377D01*
X153210701Y-107743448D01*
X153164925Y-107718981D01*
X153115255Y-107703914D01*
X153063600Y-107698826D01*
X152763600Y-107698826D01*
X152711945Y-107703914D01*
X152662275Y-107718981D01*
X152616499Y-107743448D01*
X152588600Y-107766345D01*
X152560701Y-107743448D01*
X152514925Y-107718981D01*
X152465255Y-107703914D01*
X152413600Y-107698826D01*
X152113600Y-107698826D01*
X152061945Y-107703914D01*
X152012275Y-107718981D01*
X151966499Y-107743448D01*
X151938600Y-107766345D01*
X151910701Y-107743448D01*
X151864925Y-107718981D01*
X151815255Y-107703914D01*
X151763600Y-107698826D01*
X151463600Y-107698826D01*
X151411945Y-107703914D01*
X151362275Y-107718981D01*
X151316499Y-107743448D01*
X151288600Y-107766345D01*
X151260701Y-107743448D01*
X151214925Y-107718981D01*
X151165255Y-107703914D01*
X151113600Y-107698826D01*
X150813600Y-107698826D01*
X150761945Y-107703914D01*
X150712275Y-107718981D01*
X150666499Y-107743448D01*
X150638600Y-107766345D01*
X150610701Y-107743448D01*
X150564925Y-107718981D01*
X150515255Y-107703914D01*
X150463600Y-107698826D01*
X150163600Y-107698826D01*
X150111945Y-107703914D01*
X150062275Y-107718981D01*
X150016499Y-107743448D01*
X149988600Y-107766345D01*
X149960701Y-107743448D01*
X149914925Y-107718981D01*
X149865255Y-107703914D01*
X149813600Y-107698826D01*
X149513600Y-107698826D01*
X149461945Y-107703914D01*
X149412275Y-107718981D01*
X149366499Y-107743448D01*
X149338600Y-107766345D01*
X149310701Y-107743448D01*
X149264925Y-107718981D01*
X149215255Y-107703914D01*
X149163600Y-107698826D01*
X148863600Y-107698826D01*
X148811945Y-107703914D01*
X148762275Y-107718981D01*
X148716499Y-107743448D01*
X148688600Y-107766345D01*
X148660701Y-107743448D01*
X148614925Y-107718981D01*
X148565255Y-107703914D01*
X148513600Y-107698826D01*
X148213600Y-107698826D01*
X148161945Y-107703914D01*
X148112275Y-107718981D01*
X148066499Y-107743448D01*
X148038600Y-107766345D01*
X148010701Y-107743448D01*
X147964925Y-107718981D01*
X147915255Y-107703914D01*
X147863600Y-107698826D01*
X147563600Y-107698826D01*
X147511945Y-107703914D01*
X147462275Y-107718981D01*
X147416499Y-107743448D01*
X147388600Y-107766345D01*
X147360701Y-107743448D01*
X147314925Y-107718981D01*
X147265255Y-107703914D01*
X147213600Y-107698826D01*
X146913600Y-107698826D01*
X146861945Y-107703914D01*
X146812275Y-107718981D01*
X146766499Y-107743448D01*
X146738600Y-107766345D01*
X146710701Y-107743448D01*
X146664925Y-107718981D01*
X146615255Y-107703914D01*
X146563600Y-107698826D01*
X146263600Y-107698826D01*
X146211945Y-107703914D01*
X146162275Y-107718981D01*
X146116499Y-107743448D01*
X146088600Y-107766345D01*
X146060701Y-107743448D01*
X146014925Y-107718981D01*
X145965255Y-107703914D01*
X145913600Y-107698826D01*
X145613600Y-107698826D01*
X145561945Y-107703914D01*
X145512275Y-107718981D01*
X145466499Y-107743448D01*
X145438600Y-107766345D01*
X145410701Y-107743448D01*
X145364925Y-107718981D01*
X145315255Y-107703914D01*
X145263600Y-107698826D01*
X144963600Y-107698826D01*
X144911945Y-107703914D01*
X144883461Y-107712554D01*
X144878457Y-107706274D01*
X144823166Y-107659547D01*
X144803378Y-107648600D01*
X153849322Y-107648600D01*
X153856418Y-107720643D01*
X153877432Y-107789917D01*
X153911557Y-107853760D01*
X153957481Y-107909719D01*
X154013440Y-107955643D01*
X154077283Y-107989768D01*
X154146557Y-108010782D01*
X154218600Y-108017878D01*
X154338225Y-108016100D01*
X154430100Y-107924225D01*
X154430100Y-107437100D01*
X153942975Y-107437100D01*
X153851100Y-107528975D01*
X153849322Y-107648600D01*
X144803378Y-107648600D01*
X144759822Y-107624505D01*
X144690858Y-107602494D01*
X144641975Y-107596100D01*
X144550100Y-107687975D01*
X144550100Y-108675100D01*
X144572100Y-108675100D01*
X144572100Y-108852100D01*
X144550100Y-108852100D01*
X144550100Y-108872100D01*
X144377100Y-108872100D01*
X144377100Y-108852100D01*
X144037975Y-108852100D01*
X143946100Y-108943975D01*
X143944591Y-109476730D01*
X143916299Y-109434389D01*
X143837811Y-109355901D01*
X143745518Y-109294232D01*
X143642967Y-109251755D01*
X143534100Y-109230100D01*
X143423100Y-109230100D01*
X143314233Y-109251755D01*
X143211682Y-109294232D01*
X143119389Y-109355901D01*
X143040901Y-109434389D01*
X142979232Y-109526682D01*
X142936755Y-109629233D01*
X142915100Y-109738100D01*
X142915100Y-109849100D01*
X142936755Y-109957967D01*
X142979232Y-110060518D01*
X143040901Y-110152811D01*
X143119389Y-110231299D01*
X143211682Y-110292968D01*
X143314233Y-110335445D01*
X143423100Y-110357100D01*
X143489681Y-110357100D01*
X143501139Y-110371061D01*
X143560600Y-110419860D01*
X143620325Y-110451783D01*
X143628439Y-110456120D01*
X143702048Y-110478449D01*
X143778599Y-110485989D01*
X143797778Y-110484100D01*
X144030614Y-110484100D01*
X143950658Y-110537525D01*
X143802525Y-110685658D01*
X143686138Y-110859844D01*
X143605970Y-111053388D01*
X143565100Y-111258854D01*
X143565100Y-111468346D01*
X143605970Y-111673812D01*
X143686138Y-111867356D01*
X143802525Y-112041542D01*
X143950658Y-112189675D01*
X144124844Y-112306062D01*
X144146661Y-112315099D01*
X142570539Y-112315099D01*
X142592356Y-112306062D01*
X142766542Y-112189675D01*
X142914675Y-112041542D01*
X143031062Y-111867356D01*
X143111230Y-111673812D01*
X143152100Y-111468346D01*
X143152100Y-111258854D01*
X143111230Y-111053388D01*
X143031062Y-110859844D01*
X142914675Y-110685658D01*
X142766542Y-110537525D01*
X142592356Y-110421138D01*
X142398812Y-110340970D01*
X142193346Y-110300100D01*
X141983854Y-110300100D01*
X141778388Y-110340970D01*
X141584844Y-110421138D01*
X141410658Y-110537525D01*
X141262525Y-110685658D01*
X141146138Y-110859844D01*
X141065970Y-111053388D01*
X141025100Y-111258854D01*
X141025100Y-111468346D01*
X141065970Y-111673812D01*
X141146138Y-111867356D01*
X141262525Y-112041542D01*
X141410658Y-112189675D01*
X141584844Y-112306062D01*
X141606661Y-112315099D01*
X140030539Y-112315099D01*
X140052356Y-112306062D01*
X140226542Y-112189675D01*
X140374675Y-112041542D01*
X140491062Y-111867356D01*
X140571230Y-111673812D01*
X140612100Y-111468346D01*
X140612100Y-111258854D01*
X140571230Y-111053388D01*
X140491062Y-110859844D01*
X140374675Y-110685658D01*
X140226542Y-110537525D01*
X140052356Y-110421138D01*
X139858812Y-110340970D01*
X139653346Y-110300100D01*
X139443854Y-110300100D01*
X139238388Y-110340970D01*
X139044844Y-110421138D01*
X138870658Y-110537525D01*
X138722525Y-110685658D01*
X138606138Y-110859844D01*
X138525970Y-111053388D01*
X138487101Y-111248794D01*
X138487101Y-107968925D01*
X143944360Y-107968925D01*
X143946100Y-108583225D01*
X144037975Y-108675100D01*
X144377100Y-108675100D01*
X144377100Y-107687975D01*
X144285225Y-107596100D01*
X144236342Y-107602494D01*
X144167378Y-107624505D01*
X144104034Y-107659547D01*
X144048743Y-107706274D01*
X144003630Y-107762889D01*
X143970429Y-107827218D01*
X143950416Y-107896788D01*
X143944360Y-107968925D01*
X138487101Y-107968925D01*
X138487101Y-107048600D01*
X153849322Y-107048600D01*
X153851100Y-107168225D01*
X153942975Y-107260100D01*
X154430100Y-107260100D01*
X154430100Y-106772975D01*
X154338225Y-106681100D01*
X154218600Y-106679322D01*
X154146557Y-106686418D01*
X154077283Y-106707432D01*
X154013440Y-106741557D01*
X153957481Y-106787481D01*
X153911557Y-106843440D01*
X153877432Y-106907283D01*
X153856418Y-106976557D01*
X153849322Y-107048600D01*
X138487101Y-107048600D01*
X138487101Y-103078600D01*
X138554322Y-103078600D01*
X138561418Y-103150643D01*
X138582432Y-103219917D01*
X138616557Y-103283760D01*
X138662481Y-103339719D01*
X138718440Y-103385643D01*
X138782283Y-103419768D01*
X138851557Y-103440782D01*
X138923600Y-103447878D01*
X139543225Y-103446100D01*
X139635100Y-103354225D01*
X139635100Y-102517100D01*
X139812100Y-102517100D01*
X139812100Y-103354225D01*
X139903975Y-103446100D01*
X140523600Y-103447878D01*
X140595643Y-103440782D01*
X140664917Y-103419768D01*
X140728760Y-103385643D01*
X140784719Y-103339719D01*
X140823410Y-103292573D01*
X141088225Y-103291100D01*
X141180100Y-103199225D01*
X141180100Y-102462100D01*
X141357100Y-102462100D01*
X141357100Y-103199225D01*
X141448975Y-103291100D01*
X141768600Y-103292878D01*
X141840643Y-103285782D01*
X141909917Y-103264768D01*
X141973760Y-103230643D01*
X142029719Y-103184719D01*
X142075643Y-103128760D01*
X142109768Y-103064917D01*
X142130782Y-102995643D01*
X142137878Y-102923600D01*
X142136100Y-102553975D01*
X142044225Y-102462100D01*
X141357100Y-102462100D01*
X141180100Y-102462100D01*
X140492975Y-102462100D01*
X140437975Y-102517100D01*
X139812100Y-102517100D01*
X139635100Y-102517100D01*
X138647975Y-102517100D01*
X138556100Y-102608975D01*
X138554322Y-103078600D01*
X138487101Y-103078600D01*
X138487101Y-101778600D01*
X138554322Y-101778600D01*
X138556100Y-102248225D01*
X138647975Y-102340100D01*
X139635100Y-102340100D01*
X139635100Y-101502975D01*
X139543225Y-101411100D01*
X138923600Y-101409322D01*
X138851557Y-101416418D01*
X138782283Y-101437432D01*
X138718440Y-101471557D01*
X138662481Y-101517481D01*
X138616557Y-101573440D01*
X138582432Y-101637283D01*
X138561418Y-101706557D01*
X138554322Y-101778600D01*
X138487101Y-101778600D01*
X138487101Y-98778406D01*
X138525970Y-98973812D01*
X138606138Y-99167356D01*
X138722525Y-99341542D01*
X138870658Y-99489675D01*
X138908961Y-99515268D01*
X138871945Y-99518914D01*
X138822275Y-99533981D01*
X138776499Y-99558448D01*
X138736377Y-99591377D01*
X138703448Y-99631499D01*
X138678981Y-99677275D01*
X138663914Y-99726945D01*
X138658826Y-99778600D01*
X138658826Y-101078600D01*
X138663914Y-101130255D01*
X138678981Y-101179925D01*
X138703448Y-101225701D01*
X138736377Y-101265823D01*
X138776499Y-101298752D01*
X138822275Y-101323219D01*
X138871945Y-101338286D01*
X138923600Y-101343374D01*
X140523600Y-101343374D01*
X140533330Y-101342416D01*
X140548448Y-101370701D01*
X140581377Y-101410823D01*
X140587178Y-101415584D01*
X140523600Y-101409322D01*
X139903975Y-101411100D01*
X139812100Y-101502975D01*
X139812100Y-102340100D01*
X140799225Y-102340100D01*
X140854225Y-102285100D01*
X141180100Y-102285100D01*
X141180100Y-102265100D01*
X141357100Y-102265100D01*
X141357100Y-102285100D01*
X142044225Y-102285100D01*
X142136100Y-102193225D01*
X142137807Y-101838374D01*
X142998600Y-101838374D01*
X143050255Y-101833286D01*
X143099925Y-101818219D01*
X143145701Y-101793752D01*
X143185823Y-101760823D01*
X143218752Y-101720701D01*
X143243219Y-101674925D01*
X143258286Y-101625255D01*
X143263374Y-101573600D01*
X143263374Y-100493600D01*
X143258286Y-100441945D01*
X143243219Y-100392275D01*
X143218752Y-100346499D01*
X143185823Y-100306377D01*
X143145701Y-100273448D01*
X143099925Y-100248981D01*
X143050255Y-100233914D01*
X142998600Y-100228826D01*
X142033374Y-100228826D01*
X142033374Y-100123600D01*
X142028286Y-100071945D01*
X142013219Y-100022275D01*
X141988752Y-99976499D01*
X141955823Y-99936377D01*
X141915701Y-99903448D01*
X141869925Y-99878981D01*
X141820255Y-99863914D01*
X141768600Y-99858826D01*
X140788374Y-99858826D01*
X140788374Y-99778600D01*
X140783286Y-99726945D01*
X140768219Y-99677275D01*
X140743752Y-99631499D01*
X140710823Y-99591377D01*
X140670701Y-99558448D01*
X140624925Y-99533981D01*
X140575255Y-99518914D01*
X140523600Y-99513826D01*
X140411215Y-99513826D01*
X140411810Y-99482881D01*
X140504290Y-99370194D01*
X140587722Y-99214104D01*
X140639099Y-99044736D01*
X140656446Y-98868600D01*
X140639099Y-98692463D01*
X140612100Y-98603459D01*
X140612100Y-98558854D01*
X140571230Y-98353388D01*
X140491062Y-98159844D01*
X140374675Y-97985658D01*
X140226542Y-97837525D01*
X140052356Y-97721138D01*
X139982254Y-97692101D01*
X144150500Y-97692101D01*
X144124844Y-97702728D01*
G37*
X144124844Y-97702728D02*
X143950658Y-97819115D01*
X143802525Y-97967248D01*
X143686138Y-98141434D01*
X143605970Y-98334978D01*
X143565100Y-98540444D01*
X143565100Y-98749936D01*
X143605970Y-98955402D01*
X143686138Y-99148946D01*
X143802525Y-99323132D01*
X143950658Y-99471265D01*
X144124844Y-99587652D01*
X144318388Y-99667820D01*
X144523854Y-99708690D01*
X144733346Y-99708690D01*
X144759337Y-99703520D01*
X144760981Y-100230046D01*
X144748600Y-100228826D01*
X143698600Y-100228826D01*
X143646945Y-100233914D01*
X143597275Y-100248981D01*
X143551499Y-100273448D01*
X143511377Y-100306377D01*
X143478448Y-100346499D01*
X143453981Y-100392275D01*
X143438914Y-100441945D01*
X143433826Y-100493600D01*
X143433826Y-101573600D01*
X143438914Y-101625255D01*
X143453981Y-101674925D01*
X143460990Y-101688039D01*
X143210203Y-101938826D01*
X142483600Y-101938826D01*
X142431945Y-101943914D01*
X142382275Y-101958981D01*
X142336499Y-101983448D01*
X142296377Y-102016377D01*
X142263448Y-102056499D01*
X142238981Y-102102275D01*
X142223914Y-102151945D01*
X142218826Y-102203600D01*
X142218826Y-103303600D01*
X142223914Y-103355255D01*
X142238981Y-103404925D01*
X142263448Y-103450701D01*
X142296377Y-103490823D01*
X142336499Y-103523752D01*
X142382275Y-103548219D01*
X142431945Y-103563286D01*
X142483600Y-103568374D01*
X143235656Y-103568374D01*
X143165204Y-103638826D01*
X142483600Y-103638826D01*
X142431945Y-103643914D01*
X142382275Y-103658981D01*
X142336499Y-103683448D01*
X142296377Y-103716377D01*
X142263448Y-103756499D01*
X142238981Y-103802275D01*
X142223914Y-103851945D01*
X142218826Y-103903600D01*
X142218826Y-105003600D01*
X142223914Y-105055255D01*
X142238981Y-105104925D01*
X142263448Y-105150701D01*
X142296377Y-105190823D01*
X142336499Y-105223752D01*
X142382275Y-105248219D01*
X142431945Y-105263286D01*
X142483600Y-105268374D01*
X143483600Y-105268374D01*
X143535255Y-105263286D01*
X143584925Y-105248219D01*
X143630701Y-105223752D01*
X143670823Y-105190823D01*
X143703752Y-105150701D01*
X143728219Y-105104925D01*
X143743286Y-105055255D01*
X143748374Y-105003600D01*
X143748374Y-104249072D01*
X143764699Y-104218529D01*
X143765943Y-104214427D01*
X144048826Y-103931544D01*
X144048826Y-103963600D01*
X144053914Y-104015255D01*
X144068981Y-104064925D01*
X144093448Y-104110701D01*
X144126377Y-104150823D01*
X144166499Y-104183752D01*
X144212275Y-104208219D01*
X144261945Y-104223286D01*
X144313600Y-104228374D01*
X144613600Y-104228374D01*
X144665255Y-104223286D01*
X144714925Y-104208219D01*
X144760701Y-104183752D01*
X144788600Y-104160855D01*
X144816499Y-104183752D01*
X144862275Y-104208219D01*
X144911945Y-104223286D01*
X144963600Y-104228374D01*
X145263600Y-104228374D01*
X145315255Y-104223286D01*
X145364925Y-104208219D01*
X145410701Y-104183752D01*
X145438600Y-104160855D01*
X145466499Y-104183752D01*
X145512275Y-104208219D01*
X145561945Y-104223286D01*
X145613600Y-104228374D01*
X145913600Y-104228374D01*
X145965255Y-104223286D01*
X146014925Y-104208219D01*
X146060701Y-104183752D01*
X146088600Y-104160855D01*
X146116499Y-104183752D01*
X146162275Y-104208219D01*
X146211945Y-104223286D01*
X146263600Y-104228374D01*
X146563600Y-104228374D01*
X146615255Y-104223286D01*
X146664925Y-104208219D01*
X146710701Y-104183752D01*
X146738600Y-104160855D01*
X146766499Y-104183752D01*
X146812275Y-104208219D01*
X146861945Y-104223286D01*
X146913600Y-104228374D01*
X147213600Y-104228374D01*
X147265255Y-104223286D01*
X147314925Y-104208219D01*
X147360701Y-104183752D01*
X147388600Y-104160855D01*
X147416499Y-104183752D01*
X147462275Y-104208219D01*
X147511945Y-104223286D01*
X147563600Y-104228374D01*
X147863600Y-104228374D01*
X147915255Y-104223286D01*
X147964925Y-104208219D01*
X148010701Y-104183752D01*
X148038600Y-104160855D01*
X148066499Y-104183752D01*
X148112275Y-104208219D01*
X148161945Y-104223286D01*
X148213600Y-104228374D01*
X148513600Y-104228374D01*
X148565255Y-104223286D01*
X148614925Y-104208219D01*
X148660701Y-104183752D01*
X148688600Y-104160855D01*
X148716499Y-104183752D01*
X148762275Y-104208219D01*
X148811945Y-104223286D01*
X148863600Y-104228374D01*
X149163600Y-104228374D01*
X149215255Y-104223286D01*
X149264925Y-104208219D01*
X149310701Y-104183752D01*
X149338600Y-104160855D01*
X149366499Y-104183752D01*
X149412275Y-104208219D01*
X149461945Y-104223286D01*
X149513600Y-104228374D01*
X149813600Y-104228374D01*
X149865255Y-104223286D01*
X149914925Y-104208219D01*
X149960701Y-104183752D01*
X149988600Y-104160855D01*
X150016499Y-104183752D01*
X150062275Y-104208219D01*
X150111945Y-104223286D01*
X150163600Y-104228374D01*
X150463600Y-104228374D01*
X150515255Y-104223286D01*
X150564925Y-104208219D01*
X150610701Y-104183752D01*
X150638600Y-104160855D01*
X150666499Y-104183752D01*
X150712275Y-104208219D01*
X150761945Y-104223286D01*
X150813600Y-104228374D01*
X151113600Y-104228374D01*
X151165255Y-104223286D01*
X151214925Y-104208219D01*
X151260701Y-104183752D01*
X151288600Y-104160855D01*
X151316499Y-104183752D01*
X151362275Y-104208219D01*
X151411945Y-104223286D01*
X151463600Y-104228374D01*
X151763600Y-104228374D01*
X151815255Y-104223286D01*
X151864925Y-104208219D01*
X151910701Y-104183752D01*
X151938600Y-104160855D01*
X151966499Y-104183752D01*
X152012275Y-104208219D01*
X152061945Y-104223286D01*
X152113600Y-104228374D01*
X152413600Y-104228374D01*
X152465255Y-104223286D01*
X152493739Y-104214646D01*
X152498743Y-104220926D01*
X152554034Y-104267653D01*
X152617378Y-104302695D01*
X152686342Y-104324706D01*
X152735225Y-104331100D01*
X152827100Y-104239225D01*
X152827100Y-103252100D01*
X153000100Y-103252100D01*
X153000100Y-104239225D01*
X153091975Y-104331100D01*
X153140858Y-104324706D01*
X153209822Y-104302695D01*
X153273166Y-104267653D01*
X153328457Y-104220926D01*
X153373570Y-104164311D01*
X153406771Y-104099982D01*
X153426784Y-104030412D01*
X153432840Y-103958275D01*
X153431100Y-103343975D01*
X153339225Y-103252100D01*
X153000100Y-103252100D01*
X152827100Y-103252100D01*
X152805100Y-103252100D01*
X152805100Y-103075100D01*
X152827100Y-103075100D01*
X152827100Y-103055100D01*
X153000100Y-103055100D01*
X153000100Y-103075100D01*
X153339225Y-103075100D01*
X153431100Y-102983225D01*
X153432840Y-102368925D01*
X153426784Y-102296788D01*
X153406771Y-102227218D01*
X153373570Y-102162889D01*
X153328457Y-102106274D01*
X153273166Y-102059547D01*
X153227887Y-102034499D01*
X153255445Y-101967967D01*
X153277100Y-101859100D01*
X153277100Y-101748100D01*
X153255445Y-101639233D01*
X153212968Y-101536682D01*
X153151299Y-101444389D01*
X153072811Y-101365901D01*
X152980518Y-101304232D01*
X152877967Y-101261755D01*
X152851621Y-101256514D01*
X152853878Y-101233600D01*
X152852100Y-100663975D01*
X152760225Y-100572100D01*
X152023100Y-100572100D01*
X152023100Y-100592100D01*
X151846100Y-100592100D01*
X151846100Y-100572100D01*
X151826100Y-100572100D01*
X151826100Y-100395100D01*
X151846100Y-100395100D01*
X151846100Y-100375100D01*
X152023100Y-100375100D01*
X152023100Y-100395100D01*
X152760225Y-100395100D01*
X152821170Y-100334155D01*
X152867872Y-100404049D01*
X152988147Y-100524324D01*
X153129575Y-100618824D01*
X153286722Y-100683916D01*
X153453549Y-100717100D01*
X153623643Y-100717100D01*
X153790470Y-100683916D01*
X153947617Y-100618824D01*
X154089045Y-100524324D01*
X154209320Y-100404049D01*
X154303820Y-100262621D01*
X154368912Y-100105474D01*
X154402096Y-99938647D01*
X154402096Y-99768553D01*
X154377400Y-99644400D01*
X154478388Y-99686230D01*
X154683854Y-99727100D01*
X154893346Y-99727100D01*
X155098812Y-99686230D01*
X155292356Y-99606062D01*
X155466542Y-99489675D01*
X155614675Y-99341542D01*
X155731062Y-99167356D01*
X155811230Y-98973812D01*
X155852100Y-98768346D01*
X155852100Y-98558854D01*
X155811230Y-98353388D01*
X155731062Y-98159844D01*
X155614675Y-97985658D01*
X155466542Y-97837525D01*
X155292356Y-97721138D01*
X155222254Y-97692101D01*
X157599268Y-97692101D01*
X157780562Y-97709877D01*
X157950782Y-97761269D01*
X158107783Y-97844748D01*
X158245573Y-97957126D01*
X158358915Y-98094133D01*
X158443487Y-98250545D01*
X158496066Y-98420403D01*
X158515091Y-98601412D01*
X158515100Y-98603904D01*
X158515099Y-111399268D01*
X158497323Y-111580561D01*
X158445930Y-111750783D01*
X158362451Y-111907785D01*
X158250074Y-112045573D01*
X158113067Y-112158915D01*
X157956655Y-112243487D01*
X157899553Y-112261162D01*
X158006542Y-112189675D01*
X158154675Y-112041542D01*
X158271062Y-111867356D01*
X158351230Y-111673812D01*
X158392100Y-111468346D01*
X158392100Y-111258854D01*
X158351230Y-111053388D01*
X158271062Y-110859844D01*
X158154675Y-110685658D01*
X158006542Y-110537525D01*
X157832356Y-110421138D01*
X157692900Y-110363374D01*
X158098600Y-110363374D01*
X158150255Y-110358286D01*
X158199925Y-110343219D01*
X158245701Y-110318752D01*
X158285823Y-110285823D01*
X158318752Y-110245701D01*
X158343219Y-110199925D01*
X158358286Y-110150255D01*
X158363374Y-110098600D01*
X158363374Y-108998600D01*
X158358286Y-108946945D01*
X158343219Y-108897275D01*
X158318752Y-108851499D01*
X158285823Y-108811377D01*
X158245701Y-108778448D01*
X158199925Y-108753981D01*
X158150255Y-108738914D01*
X158098600Y-108733826D01*
X158095712Y-108733826D01*
X158117968Y-108700518D01*
X158160445Y-108597967D01*
X158182100Y-108489100D01*
X158182100Y-108378100D01*
X158160445Y-108269233D01*
X158117968Y-108166682D01*
X158056299Y-108074389D01*
X157977811Y-107995901D01*
X157974029Y-107993374D01*
X158093600Y-107993374D01*
X158145255Y-107988286D01*
X158194925Y-107973219D01*
X158240701Y-107948752D01*
X158280823Y-107915823D01*
X158313752Y-107875701D01*
X158338219Y-107829925D01*
X158353286Y-107780255D01*
X158358374Y-107728600D01*
X158358374Y-106628600D01*
X158353286Y-106576945D01*
X158338219Y-106527275D01*
X158313752Y-106481499D01*
X158280823Y-106441377D01*
X158240701Y-106408448D01*
X158194925Y-106383981D01*
X158145255Y-106368914D01*
X158093600Y-106363826D01*
X158034500Y-106363826D01*
X158034500Y-100874017D01*
X158036511Y-100853599D01*
X158034500Y-100833181D01*
X158034500Y-100833172D01*
X158028482Y-100772069D01*
X158004700Y-100693672D01*
X157992147Y-100670187D01*
X157966081Y-100621420D01*
X157927130Y-100573959D01*
X157927129Y-100573958D01*
X157914108Y-100558092D01*
X157898243Y-100545072D01*
X157627133Y-100273963D01*
X157614108Y-100258092D01*
X157550779Y-100206119D01*
X157478528Y-100167500D01*
X157400131Y-100143718D01*
X157339028Y-100137700D01*
X157339018Y-100137700D01*
X157318600Y-100135689D01*
X157298182Y-100137700D01*
X156999610Y-100137700D01*
X156977811Y-100115901D01*
X156885518Y-100054232D01*
X156782967Y-100011755D01*
X156674100Y-99990100D01*
X156563100Y-99990100D01*
X156454233Y-100011755D01*
X156351682Y-100054232D01*
X156259389Y-100115901D01*
X156180901Y-100194389D01*
X156119232Y-100286682D01*
X156076755Y-100389233D01*
X156055100Y-100498100D01*
X156055100Y-100609100D01*
X156076755Y-100717967D01*
X156119232Y-100820518D01*
X156180901Y-100912811D01*
X156259389Y-100991299D01*
X156351682Y-101052968D01*
X156454233Y-101095445D01*
X156563100Y-101117100D01*
X156674100Y-101117100D01*
X156782967Y-101095445D01*
X156885518Y-101052968D01*
X156977811Y-100991299D01*
X156999610Y-100969500D01*
X157146330Y-100969500D01*
X157202700Y-101025871D01*
X157202701Y-106363826D01*
X157093600Y-106363826D01*
X157041945Y-106368914D01*
X156992275Y-106383981D01*
X156946499Y-106408448D01*
X156906377Y-106441377D01*
X156873448Y-106481499D01*
X156848981Y-106527275D01*
X156833914Y-106576945D01*
X156828826Y-106628600D01*
X156828826Y-107728600D01*
X156833914Y-107780255D01*
X156848981Y-107829925D01*
X156873448Y-107875701D01*
X156906377Y-107915823D01*
X156946499Y-107948752D01*
X156992275Y-107973219D01*
X157041945Y-107988286D01*
X157093600Y-107993374D01*
X157263171Y-107993374D01*
X157259389Y-107995901D01*
X157180901Y-108074389D01*
X157119232Y-108166682D01*
X157076755Y-108269233D01*
X157055100Y-108378100D01*
X157055100Y-108489100D01*
X157076755Y-108597967D01*
X157119232Y-108700518D01*
X157141488Y-108733826D01*
X157098600Y-108733826D01*
X157046945Y-108738914D01*
X156997275Y-108753981D01*
X156951499Y-108778448D01*
X156911377Y-108811377D01*
X156878448Y-108851499D01*
X156853981Y-108897275D01*
X156838914Y-108946945D01*
X156833826Y-108998600D01*
X156833826Y-110098600D01*
X156838914Y-110150255D01*
X156853981Y-110199925D01*
X156878448Y-110245701D01*
X156911377Y-110285823D01*
X156951499Y-110318752D01*
X156997275Y-110343219D01*
X157006328Y-110345965D01*
X156824844Y-110421138D01*
X156650658Y-110537525D01*
X156502525Y-110685658D01*
X156386138Y-110859844D01*
X156305970Y-111053388D01*
X156265100Y-111258854D01*
X156265100Y-111468346D01*
X156305970Y-111673812D01*
X156386138Y-111867356D01*
X156502525Y-112041542D01*
X156650658Y-112189675D01*
X156824844Y-112306062D01*
X156846661Y-112315099D01*
X155270539Y-112315099D01*
X155292356Y-112306062D01*
X155466542Y-112189675D01*
X155614675Y-112041542D01*
X155731062Y-111867356D01*
X155811230Y-111673812D01*
X155852100Y-111468346D01*
X155852100Y-111258854D01*
X155811230Y-111053388D01*
X155731062Y-110859844D01*
X155614675Y-110685658D01*
X155466542Y-110537525D01*
X155292356Y-110421138D01*
X155098812Y-110340970D01*
X154893346Y-110300100D01*
X154683854Y-110300100D01*
X154478388Y-110340970D01*
X154284844Y-110421138D01*
X154110658Y-110537525D01*
X154053576Y-110594607D01*
X154041845Y-110535633D01*
X153999368Y-110433082D01*
X153946861Y-110354500D01*
X154108182Y-110354500D01*
X154128600Y-110356511D01*
X154149018Y-110354500D01*
X154149028Y-110354500D01*
X154210131Y-110348482D01*
X154288528Y-110324700D01*
X154360779Y-110286081D01*
X154424108Y-110234108D01*
X154437133Y-110218237D01*
X154541997Y-110113374D01*
X154818600Y-110113374D01*
X154870255Y-110108286D01*
X154919925Y-110093219D01*
X154965701Y-110068752D01*
X155005823Y-110035823D01*
X155038752Y-109995701D01*
X155055429Y-109964500D01*
X155133826Y-109964500D01*
X155133826Y-110098600D01*
X155138914Y-110150255D01*
X155153981Y-110199925D01*
X155178448Y-110245701D01*
X155211377Y-110285823D01*
X155251499Y-110318752D01*
X155297275Y-110343219D01*
X155346945Y-110358286D01*
X155398600Y-110363374D01*
X156398600Y-110363374D01*
X156450255Y-110358286D01*
X156499925Y-110343219D01*
X156545701Y-110318752D01*
X156585823Y-110285823D01*
X156618752Y-110245701D01*
X156643219Y-110199925D01*
X156658286Y-110150255D01*
X156663374Y-110098600D01*
X156663374Y-108998600D01*
X156658286Y-108946945D01*
X156643219Y-108897275D01*
X156618752Y-108851499D01*
X156585823Y-108811377D01*
X156545701Y-108778448D01*
X156499925Y-108753981D01*
X156450255Y-108738914D01*
X156398600Y-108733826D01*
X155398600Y-108733826D01*
X155346945Y-108738914D01*
X155310358Y-108750012D01*
X156066998Y-107993374D01*
X156393600Y-107993374D01*
X156445255Y-107988286D01*
X156494925Y-107973219D01*
X156540701Y-107948752D01*
X156580823Y-107915823D01*
X156613752Y-107875701D01*
X156638219Y-107829925D01*
X156653286Y-107780255D01*
X156658374Y-107728600D01*
X156658374Y-106628600D01*
X156653286Y-106576945D01*
X156638219Y-106527275D01*
X156613752Y-106481499D01*
X156580823Y-106441377D01*
X156540701Y-106408448D01*
X156494925Y-106383981D01*
X156445255Y-106368914D01*
X156393600Y-106363826D01*
X155393600Y-106363826D01*
X155341945Y-106368914D01*
X155292275Y-106383981D01*
X155246499Y-106408448D01*
X155206377Y-106441377D01*
X155173448Y-106481499D01*
X155148981Y-106527275D01*
X155133914Y-106576945D01*
X155128826Y-106628600D01*
X155128826Y-106849395D01*
X155125643Y-106843440D01*
X155079719Y-106787481D01*
X155023760Y-106741557D01*
X154959917Y-106707432D01*
X154890643Y-106686418D01*
X154818600Y-106679322D01*
X154698975Y-106681100D01*
X154607100Y-106772975D01*
X154607100Y-107260100D01*
X154627100Y-107260100D01*
X154627100Y-107437100D01*
X154607100Y-107437100D01*
X154607100Y-107924225D01*
X154698975Y-108016100D01*
X154818600Y-108017878D01*
X154871347Y-108012683D01*
X154726330Y-108157700D01*
X153328374Y-108157700D01*
X153328374Y-107963600D01*
X153323286Y-107911945D01*
X153308219Y-107862275D01*
X153283752Y-107816499D01*
X153250823Y-107776377D01*
X153210701Y-107743448D01*
X153164925Y-107718981D01*
X153115255Y-107703914D01*
X153063600Y-107698826D01*
X152763600Y-107698826D01*
X152711945Y-107703914D01*
X152662275Y-107718981D01*
X152616499Y-107743448D01*
X152588600Y-107766345D01*
X152560701Y-107743448D01*
X152514925Y-107718981D01*
X152465255Y-107703914D01*
X152413600Y-107698826D01*
X152113600Y-107698826D01*
X152061945Y-107703914D01*
X152012275Y-107718981D01*
X151966499Y-107743448D01*
X151938600Y-107766345D01*
X151910701Y-107743448D01*
X151864925Y-107718981D01*
X151815255Y-107703914D01*
X151763600Y-107698826D01*
X151463600Y-107698826D01*
X151411945Y-107703914D01*
X151362275Y-107718981D01*
X151316499Y-107743448D01*
X151288600Y-107766345D01*
X151260701Y-107743448D01*
X151214925Y-107718981D01*
X151165255Y-107703914D01*
X151113600Y-107698826D01*
X150813600Y-107698826D01*
X150761945Y-107703914D01*
X150712275Y-107718981D01*
X150666499Y-107743448D01*
X150638600Y-107766345D01*
X150610701Y-107743448D01*
X150564925Y-107718981D01*
X150515255Y-107703914D01*
X150463600Y-107698826D01*
X150163600Y-107698826D01*
X150111945Y-107703914D01*
X150062275Y-107718981D01*
X150016499Y-107743448D01*
X149988600Y-107766345D01*
X149960701Y-107743448D01*
X149914925Y-107718981D01*
X149865255Y-107703914D01*
X149813600Y-107698826D01*
X149513600Y-107698826D01*
X149461945Y-107703914D01*
X149412275Y-107718981D01*
X149366499Y-107743448D01*
X149338600Y-107766345D01*
X149310701Y-107743448D01*
X149264925Y-107718981D01*
X149215255Y-107703914D01*
X149163600Y-107698826D01*
X148863600Y-107698826D01*
X148811945Y-107703914D01*
X148762275Y-107718981D01*
X148716499Y-107743448D01*
X148688600Y-107766345D01*
X148660701Y-107743448D01*
X148614925Y-107718981D01*
X148565255Y-107703914D01*
X148513600Y-107698826D01*
X148213600Y-107698826D01*
X148161945Y-107703914D01*
X148112275Y-107718981D01*
X148066499Y-107743448D01*
X148038600Y-107766345D01*
X148010701Y-107743448D01*
X147964925Y-107718981D01*
X147915255Y-107703914D01*
X147863600Y-107698826D01*
X147563600Y-107698826D01*
X147511945Y-107703914D01*
X147462275Y-107718981D01*
X147416499Y-107743448D01*
X147388600Y-107766345D01*
X147360701Y-107743448D01*
X147314925Y-107718981D01*
X147265255Y-107703914D01*
X147213600Y-107698826D01*
X146913600Y-107698826D01*
X146861945Y-107703914D01*
X146812275Y-107718981D01*
X146766499Y-107743448D01*
X146738600Y-107766345D01*
X146710701Y-107743448D01*
X146664925Y-107718981D01*
X146615255Y-107703914D01*
X146563600Y-107698826D01*
X146263600Y-107698826D01*
X146211945Y-107703914D01*
X146162275Y-107718981D01*
X146116499Y-107743448D01*
X146088600Y-107766345D01*
X146060701Y-107743448D01*
X146014925Y-107718981D01*
X145965255Y-107703914D01*
X145913600Y-107698826D01*
X145613600Y-107698826D01*
X145561945Y-107703914D01*
X145512275Y-107718981D01*
X145466499Y-107743448D01*
X145438600Y-107766345D01*
X145410701Y-107743448D01*
X145364925Y-107718981D01*
X145315255Y-107703914D01*
X145263600Y-107698826D01*
X144963600Y-107698826D01*
X144911945Y-107703914D01*
X144883461Y-107712554D01*
X144878457Y-107706274D01*
X144823166Y-107659547D01*
X144803378Y-107648600D01*
X153849322Y-107648600D01*
X153856418Y-107720643D01*
X153877432Y-107789917D01*
X153911557Y-107853760D01*
X153957481Y-107909719D01*
X154013440Y-107955643D01*
X154077283Y-107989768D01*
X154146557Y-108010782D01*
X154218600Y-108017878D01*
X154338225Y-108016100D01*
X154430100Y-107924225D01*
X154430100Y-107437100D01*
X153942975Y-107437100D01*
X153851100Y-107528975D01*
X153849322Y-107648600D01*
X144803378Y-107648600D01*
X144759822Y-107624505D01*
X144690858Y-107602494D01*
X144641975Y-107596100D01*
X144550100Y-107687975D01*
X144550100Y-108675100D01*
X144572100Y-108675100D01*
X144572100Y-108852100D01*
X144550100Y-108852100D01*
X144550100Y-108872100D01*
X144377100Y-108872100D01*
X144377100Y-108852100D01*
X144037975Y-108852100D01*
X143946100Y-108943975D01*
X143944591Y-109476730D01*
X143916299Y-109434389D01*
X143837811Y-109355901D01*
X143745518Y-109294232D01*
X143642967Y-109251755D01*
X143534100Y-109230100D01*
X143423100Y-109230100D01*
X143314233Y-109251755D01*
X143211682Y-109294232D01*
X143119389Y-109355901D01*
X143040901Y-109434389D01*
X142979232Y-109526682D01*
X142936755Y-109629233D01*
X142915100Y-109738100D01*
X142915100Y-109849100D01*
X142936755Y-109957967D01*
X142979232Y-110060518D01*
X143040901Y-110152811D01*
X143119389Y-110231299D01*
X143211682Y-110292968D01*
X143314233Y-110335445D01*
X143423100Y-110357100D01*
X143489681Y-110357100D01*
X143501139Y-110371061D01*
X143560600Y-110419860D01*
X143620325Y-110451783D01*
X143628439Y-110456120D01*
X143702048Y-110478449D01*
X143778599Y-110485989D01*
X143797778Y-110484100D01*
X144030614Y-110484100D01*
X143950658Y-110537525D01*
X143802525Y-110685658D01*
X143686138Y-110859844D01*
X143605970Y-111053388D01*
X143565100Y-111258854D01*
X143565100Y-111468346D01*
X143605970Y-111673812D01*
X143686138Y-111867356D01*
X143802525Y-112041542D01*
X143950658Y-112189675D01*
X144124844Y-112306062D01*
X144146661Y-112315099D01*
X142570539Y-112315099D01*
X142592356Y-112306062D01*
X142766542Y-112189675D01*
X142914675Y-112041542D01*
X143031062Y-111867356D01*
X143111230Y-111673812D01*
X143152100Y-111468346D01*
X143152100Y-111258854D01*
X143111230Y-111053388D01*
X143031062Y-110859844D01*
X142914675Y-110685658D01*
X142766542Y-110537525D01*
X142592356Y-110421138D01*
X142398812Y-110340970D01*
X142193346Y-110300100D01*
X141983854Y-110300100D01*
X141778388Y-110340970D01*
X141584844Y-110421138D01*
X141410658Y-110537525D01*
X141262525Y-110685658D01*
X141146138Y-110859844D01*
X141065970Y-111053388D01*
X141025100Y-111258854D01*
X141025100Y-111468346D01*
X141065970Y-111673812D01*
X141146138Y-111867356D01*
X141262525Y-112041542D01*
X141410658Y-112189675D01*
X141584844Y-112306062D01*
X141606661Y-112315099D01*
X140030539Y-112315099D01*
X140052356Y-112306062D01*
X140226542Y-112189675D01*
X140374675Y-112041542D01*
X140491062Y-111867356D01*
X140571230Y-111673812D01*
X140612100Y-111468346D01*
X140612100Y-111258854D01*
X140571230Y-111053388D01*
X140491062Y-110859844D01*
X140374675Y-110685658D01*
X140226542Y-110537525D01*
X140052356Y-110421138D01*
X139858812Y-110340970D01*
X139653346Y-110300100D01*
X139443854Y-110300100D01*
X139238388Y-110340970D01*
X139044844Y-110421138D01*
X138870658Y-110537525D01*
X138722525Y-110685658D01*
X138606138Y-110859844D01*
X138525970Y-111053388D01*
X138487101Y-111248794D01*
X138487101Y-107968925D01*
X143944360Y-107968925D01*
X143946100Y-108583225D01*
X144037975Y-108675100D01*
X144377100Y-108675100D01*
X144377100Y-107687975D01*
X144285225Y-107596100D01*
X144236342Y-107602494D01*
X144167378Y-107624505D01*
X144104034Y-107659547D01*
X144048743Y-107706274D01*
X144003630Y-107762889D01*
X143970429Y-107827218D01*
X143950416Y-107896788D01*
X143944360Y-107968925D01*
X138487101Y-107968925D01*
X138487101Y-107048600D01*
X153849322Y-107048600D01*
X153851100Y-107168225D01*
X153942975Y-107260100D01*
X154430100Y-107260100D01*
X154430100Y-106772975D01*
X154338225Y-106681100D01*
X154218600Y-106679322D01*
X154146557Y-106686418D01*
X154077283Y-106707432D01*
X154013440Y-106741557D01*
X153957481Y-106787481D01*
X153911557Y-106843440D01*
X153877432Y-106907283D01*
X153856418Y-106976557D01*
X153849322Y-107048600D01*
X138487101Y-107048600D01*
X138487101Y-103078600D01*
X138554322Y-103078600D01*
X138561418Y-103150643D01*
X138582432Y-103219917D01*
X138616557Y-103283760D01*
X138662481Y-103339719D01*
X138718440Y-103385643D01*
X138782283Y-103419768D01*
X138851557Y-103440782D01*
X138923600Y-103447878D01*
X139543225Y-103446100D01*
X139635100Y-103354225D01*
X139635100Y-102517100D01*
X139812100Y-102517100D01*
X139812100Y-103354225D01*
X139903975Y-103446100D01*
X140523600Y-103447878D01*
X140595643Y-103440782D01*
X140664917Y-103419768D01*
X140728760Y-103385643D01*
X140784719Y-103339719D01*
X140823410Y-103292573D01*
X141088225Y-103291100D01*
X141180100Y-103199225D01*
X141180100Y-102462100D01*
X141357100Y-102462100D01*
X141357100Y-103199225D01*
X141448975Y-103291100D01*
X141768600Y-103292878D01*
X141840643Y-103285782D01*
X141909917Y-103264768D01*
X141973760Y-103230643D01*
X142029719Y-103184719D01*
X142075643Y-103128760D01*
X142109768Y-103064917D01*
X142130782Y-102995643D01*
X142137878Y-102923600D01*
X142136100Y-102553975D01*
X142044225Y-102462100D01*
X141357100Y-102462100D01*
X141180100Y-102462100D01*
X140492975Y-102462100D01*
X140437975Y-102517100D01*
X139812100Y-102517100D01*
X139635100Y-102517100D01*
X138647975Y-102517100D01*
X138556100Y-102608975D01*
X138554322Y-103078600D01*
X138487101Y-103078600D01*
X138487101Y-101778600D01*
X138554322Y-101778600D01*
X138556100Y-102248225D01*
X138647975Y-102340100D01*
X139635100Y-102340100D01*
X139635100Y-101502975D01*
X139543225Y-101411100D01*
X138923600Y-101409322D01*
X138851557Y-101416418D01*
X138782283Y-101437432D01*
X138718440Y-101471557D01*
X138662481Y-101517481D01*
X138616557Y-101573440D01*
X138582432Y-101637283D01*
X138561418Y-101706557D01*
X138554322Y-101778600D01*
X138487101Y-101778600D01*
X138487101Y-98778406D01*
X138525970Y-98973812D01*
X138606138Y-99167356D01*
X138722525Y-99341542D01*
X138870658Y-99489675D01*
X138908961Y-99515268D01*
X138871945Y-99518914D01*
X138822275Y-99533981D01*
X138776499Y-99558448D01*
X138736377Y-99591377D01*
X138703448Y-99631499D01*
X138678981Y-99677275D01*
X138663914Y-99726945D01*
X138658826Y-99778600D01*
X138658826Y-101078600D01*
X138663914Y-101130255D01*
X138678981Y-101179925D01*
X138703448Y-101225701D01*
X138736377Y-101265823D01*
X138776499Y-101298752D01*
X138822275Y-101323219D01*
X138871945Y-101338286D01*
X138923600Y-101343374D01*
X140523600Y-101343374D01*
X140533330Y-101342416D01*
X140548448Y-101370701D01*
X140581377Y-101410823D01*
X140587178Y-101415584D01*
X140523600Y-101409322D01*
X139903975Y-101411100D01*
X139812100Y-101502975D01*
X139812100Y-102340100D01*
X140799225Y-102340100D01*
X140854225Y-102285100D01*
X141180100Y-102285100D01*
X141180100Y-102265100D01*
X141357100Y-102265100D01*
X141357100Y-102285100D01*
X142044225Y-102285100D01*
X142136100Y-102193225D01*
X142137807Y-101838374D01*
X142998600Y-101838374D01*
X143050255Y-101833286D01*
X143099925Y-101818219D01*
X143145701Y-101793752D01*
X143185823Y-101760823D01*
X143218752Y-101720701D01*
X143243219Y-101674925D01*
X143258286Y-101625255D01*
X143263374Y-101573600D01*
X143263374Y-100493600D01*
X143258286Y-100441945D01*
X143243219Y-100392275D01*
X143218752Y-100346499D01*
X143185823Y-100306377D01*
X143145701Y-100273448D01*
X143099925Y-100248981D01*
X143050255Y-100233914D01*
X142998600Y-100228826D01*
X142033374Y-100228826D01*
X142033374Y-100123600D01*
X142028286Y-100071945D01*
X142013219Y-100022275D01*
X141988752Y-99976499D01*
X141955823Y-99936377D01*
X141915701Y-99903448D01*
X141869925Y-99878981D01*
X141820255Y-99863914D01*
X141768600Y-99858826D01*
X140788374Y-99858826D01*
X140788374Y-99778600D01*
X140783286Y-99726945D01*
X140768219Y-99677275D01*
X140743752Y-99631499D01*
X140710823Y-99591377D01*
X140670701Y-99558448D01*
X140624925Y-99533981D01*
X140575255Y-99518914D01*
X140523600Y-99513826D01*
X140411215Y-99513826D01*
X140411810Y-99482881D01*
X140504290Y-99370194D01*
X140587722Y-99214104D01*
X140639099Y-99044736D01*
X140656446Y-98868600D01*
X140639099Y-98692463D01*
X140612100Y-98603459D01*
X140612100Y-98558854D01*
X140571230Y-98353388D01*
X140491062Y-98159844D01*
X140374675Y-97985658D01*
X140226542Y-97837525D01*
X140052356Y-97721138D01*
X139982254Y-97692101D01*
X144150500Y-97692101D01*
X144124844Y-97702728D01*
G36*
X145767100Y-100360100D02*
G01*
X145787100Y-100360100D01*
X145787100Y-100537100D01*
X145767100Y-100537100D01*
X145767100Y-100557100D01*
X145590100Y-100557100D01*
X145590100Y-100537100D01*
X145570100Y-100537100D01*
X145570100Y-100360100D01*
X145590100Y-100360100D01*
X145590100Y-100340100D01*
X145767100Y-100340100D01*
X145767100Y-100360100D01*
G37*
X145767100Y-100360100D02*
X145787100Y-100360100D01*
X145787100Y-100537100D01*
X145767100Y-100537100D01*
X145767100Y-100557100D01*
X145590100Y-100557100D01*
X145590100Y-100537100D01*
X145570100Y-100537100D01*
X145570100Y-100360100D01*
X145590100Y-100360100D01*
X145590100Y-100340100D01*
X145767100Y-100340100D01*
X145767100Y-100360100D01*
G04 #@! TD*
M02*
