G04 #@! TF.GenerationSoftware,KiCad,Pcbnew,5.1.6-c6e7f7d~87~ubuntu18.04.1*
G04 #@! TF.CreationDate,2020-09-14T18:26:16+02:00*
G04 #@! TF.ProjectId,cooldrv,636f6f6c-6472-4762-9e6b-696361645f70,rev?*
G04 #@! TF.SameCoordinates,Original*
G04 #@! TF.FileFunction,Soldermask,Bot*
G04 #@! TF.FilePolarity,Negative*
%FSLAX46Y46*%
G04 Gerber Fmt 4.6, Leading zero omitted, Abs format (unit mm)*
G04 Created by KiCad (PCBNEW 5.1.6-c6e7f7d~87~ubuntu18.04.1) date 2020-09-14 18:26:16*
%MOMM*%
%LPD*%
G01*
G04 APERTURE LIST*
%ADD10C,0.800000*%
%ADD11C,0.100000*%
%ADD12R,9.801600X3.501600*%
%ADD13R,0.401600X1.701600*%
%ADD14C,0.711200*%
%ADD15R,1.201600X1.601600*%
%ADD16R,1.701600X1.401600*%
%ADD17R,1.151600X1.181600*%
%ADD18R,1.101600X1.201600*%
%ADD19R,0.701600X0.701600*%
G04 APERTURE END LIST*
D10*
X157730000Y-98660000D02*
G75*
G03*
X157730000Y-98660000I-400000J0D01*
G01*
X155190000Y-98660000D02*
G75*
G03*
X155190000Y-98660000I-400000J0D01*
G01*
X152650000Y-98660000D02*
G75*
G03*
X152650000Y-98660000I-400000J0D01*
G01*
X150110000Y-98660000D02*
G75*
G03*
X150110000Y-98660000I-400000J0D01*
G01*
X147570000Y-98660000D02*
G75*
G03*
X147570000Y-98660000I-400000J0D01*
G01*
X145030000Y-98660000D02*
G75*
G03*
X145030000Y-98660000I-400000J0D01*
G01*
X142490000Y-98660000D02*
G75*
G03*
X142490000Y-98660000I-400000J0D01*
G01*
X139950000Y-98660000D02*
G75*
G03*
X139950000Y-98660000I-400000J0D01*
G01*
X157730000Y-111360000D02*
G75*
G03*
X157730000Y-111360000I-400000J0D01*
G01*
X155190000Y-111360000D02*
G75*
G03*
X155190000Y-111360000I-400000J0D01*
G01*
X152650000Y-111360000D02*
G75*
G03*
X152650000Y-111360000I-400000J0D01*
G01*
X150110000Y-111360000D02*
G75*
G03*
X150110000Y-111360000I-400000J0D01*
G01*
X147570000Y-111360000D02*
G75*
G03*
X147570000Y-111360000I-400000J0D01*
G01*
X145030000Y-111360000D02*
G75*
G03*
X145030000Y-111360000I-400000J0D01*
G01*
X142490000Y-111360000D02*
G75*
G03*
X142490000Y-111360000I-400000J0D01*
G01*
X139950000Y-111360000D02*
G75*
G03*
X139950000Y-111360000I-400000J0D01*
G01*
D11*
G04 #@! TO.C,U$1*
G36*
X147188600Y-104463600D02*
G01*
X147188600Y-107463600D01*
X146288600Y-107463600D01*
X146288600Y-104463600D01*
X147188600Y-104463600D01*
G37*
G36*
X148488600Y-104463600D02*
G01*
X148488600Y-107463600D01*
X147588600Y-107463600D01*
X147588600Y-104463600D01*
X148488600Y-104463600D01*
G37*
G36*
X149788600Y-104463600D02*
G01*
X149788600Y-107463600D01*
X148888600Y-107463600D01*
X148888600Y-104463600D01*
X149788600Y-104463600D01*
G37*
G36*
X151088600Y-104463600D02*
G01*
X151088600Y-107463600D01*
X150188600Y-107463600D01*
X150188600Y-104463600D01*
X151088600Y-104463600D01*
G37*
G36*
X151288600Y-106163600D02*
G01*
X151288600Y-107063600D01*
X146088600Y-107063600D01*
X146088600Y-106163600D01*
X151288600Y-106163600D01*
G37*
G36*
X151288600Y-104863600D02*
G01*
X151288600Y-105763600D01*
X146088600Y-105763600D01*
X146088600Y-104863600D01*
X151288600Y-104863600D01*
G37*
G04 #@! TD*
D12*
G04 #@! TO.C,U$1*
X148688600Y-105963600D03*
D13*
X144463600Y-108763600D03*
X145113600Y-108763600D03*
X145763600Y-108763600D03*
X146413600Y-108763600D03*
X147063600Y-108763600D03*
X147713600Y-108763600D03*
X148363600Y-108763600D03*
X149013600Y-108763600D03*
X149663600Y-108763600D03*
X150313600Y-108763600D03*
X150963600Y-108763600D03*
X151613600Y-108763600D03*
X152263600Y-108763600D03*
X152913600Y-108763600D03*
X152913600Y-103163600D03*
X152263600Y-103163600D03*
X151613600Y-103163600D03*
X150963600Y-103163600D03*
X150313600Y-103163600D03*
X149663600Y-103163600D03*
X149013600Y-103163600D03*
X148363600Y-103163600D03*
X147713600Y-103163600D03*
X147063600Y-103163600D03*
X146413600Y-103163600D03*
X145763600Y-103163600D03*
X145113600Y-103163600D03*
X144463600Y-103163600D03*
D14*
X152588600Y-107263600D03*
X152588600Y-105963600D03*
X152588600Y-104663600D03*
X151288600Y-104663600D03*
X151288600Y-105963600D03*
X151288600Y-107263600D03*
X149988600Y-107263600D03*
X149988600Y-105963600D03*
X149988600Y-104663600D03*
X144788600Y-104663600D03*
X144788600Y-107263600D03*
X144788600Y-105963600D03*
X146088600Y-104663600D03*
X146088600Y-107263600D03*
X146088600Y-105963600D03*
X147388600Y-104663600D03*
X147388600Y-107263600D03*
X147388600Y-105963600D03*
X148688600Y-104663600D03*
X148688600Y-107263600D03*
X148688600Y-105963600D03*
G04 #@! TD*
D15*
G04 #@! TO.C,R1*
X151934600Y-100483600D03*
X150034600Y-100483600D03*
G04 #@! TD*
G04 #@! TO.C,R2*
X147578600Y-100448600D03*
X145678600Y-100448600D03*
G04 #@! TD*
D16*
G04 #@! TO.C,C3*
X139723600Y-100428600D03*
X139723600Y-102428600D03*
G04 #@! TD*
D17*
G04 #@! TO.C,C4*
X142473600Y-101033600D03*
X144223600Y-101033600D03*
G04 #@! TD*
D18*
G04 #@! TO.C,C6*
X142983600Y-104453600D03*
X142983600Y-102753600D03*
G04 #@! TD*
G04 #@! TO.C,R5*
X157593600Y-107178600D03*
X155893600Y-107178600D03*
G04 #@! TD*
D19*
G04 #@! TO.C,D1*
X154518600Y-107348600D03*
X154518600Y-109548600D03*
G04 #@! TD*
D18*
G04 #@! TO.C,R3*
X157598600Y-109548600D03*
X155898600Y-109548600D03*
G04 #@! TD*
G04 #@! TO.C,C1*
X141268600Y-100673600D03*
X141268600Y-102373600D03*
G04 #@! TD*
M02*
