G04 #@! TF.GenerationSoftware,KiCad,Pcbnew,5.1.6-c6e7f7d~87~ubuntu18.04.1*
G04 #@! TF.CreationDate,2020-09-14T18:26:16+02:00*
G04 #@! TF.ProjectId,cooldrv,636f6f6c-6472-4762-9e6b-696361645f70,rev?*
G04 #@! TF.SameCoordinates,Original*
G04 #@! TF.FileFunction,Legend,Top*
G04 #@! TF.FilePolarity,Positive*
%FSLAX46Y46*%
G04 Gerber Fmt 4.6, Leading zero omitted, Abs format (unit mm)*
G04 Created by KiCad (PCBNEW 5.1.6-c6e7f7d~87~ubuntu18.04.1) date 2020-09-14 18:26:16*
%MOMM*%
%LPD*%
G01*
G04 APERTURE LIST*
%ADD10C,0.120000*%
%ADD11C,0.254000*%
%ADD12C,0.186944*%
%ADD13C,0.065024*%
%ADD14C,0.115824*%
%ADD15C,0.130000*%
%ADD16C,0.406400*%
%ADD17C,0.127000*%
%ADD18C,0.600000*%
%ADD19C,0.800000*%
%ADD20C,0.100000*%
%ADD21R,1.601600X1.701600*%
%ADD22R,1.301600X1.301600*%
G04 APERTURE END LIST*
D10*
X146050000Y-101975000D02*
X146050000Y-101375000D01*
X151575000Y-101975000D02*
X151575000Y-101375000D01*
D11*
X146418600Y-98183601D02*
G75*
G03*
X145338600Y-98083600I-604706J-648823D01*
G01*
X151548600Y-98073601D02*
G75*
G03*
X150428600Y-98113600I-534118J-744705D01*
G01*
D12*
X140630914Y-110483990D02*
X140630914Y-109969217D01*
X140630914Y-110042756D02*
X140667684Y-110005986D01*
X140741223Y-109969217D01*
X140851532Y-109969217D01*
X140925071Y-110005986D01*
X140961840Y-110079525D01*
X140961840Y-110483990D01*
X140961840Y-110079525D02*
X140998610Y-110005986D01*
X141072149Y-109969217D01*
X141182457Y-109969217D01*
X141255996Y-110005986D01*
X141292766Y-110079525D01*
X141292766Y-110483990D01*
X141623692Y-110447220D02*
X141697231Y-110483990D01*
X141844309Y-110483990D01*
X141917848Y-110447220D01*
X141954617Y-110373681D01*
X141954617Y-110336912D01*
X141917848Y-110263373D01*
X141844309Y-110226603D01*
X141734000Y-110226603D01*
X141660461Y-110189834D01*
X141623692Y-110116295D01*
X141623692Y-110079525D01*
X141660461Y-110005986D01*
X141734000Y-109969217D01*
X141844309Y-109969217D01*
X141917848Y-110005986D01*
X142690008Y-110483990D02*
X142248774Y-110483990D01*
X142469391Y-110483990D02*
X142469391Y-109711830D01*
X142395852Y-109822139D01*
X142322313Y-109895678D01*
X142248774Y-109932447D01*
X143543961Y-110556830D02*
X143543961Y-110042057D01*
X143543961Y-110115596D02*
X143580730Y-110078826D01*
X143654269Y-110042057D01*
X143764578Y-110042057D01*
X143838117Y-110078826D01*
X143874886Y-110152365D01*
X143874886Y-110556830D01*
X143874886Y-110152365D02*
X143911656Y-110078826D01*
X143985195Y-110042057D01*
X144095504Y-110042057D01*
X144169043Y-110078826D01*
X144205812Y-110152365D01*
X144205812Y-110556830D01*
X144536738Y-110520060D02*
X144610277Y-110556830D01*
X144757355Y-110556830D01*
X144830894Y-110520060D01*
X144867664Y-110446521D01*
X144867664Y-110409752D01*
X144830894Y-110336213D01*
X144757355Y-110299443D01*
X144647046Y-110299443D01*
X144573507Y-110262674D01*
X144536738Y-110189135D01*
X144536738Y-110152365D01*
X144573507Y-110078826D01*
X144647046Y-110042057D01*
X144757355Y-110042057D01*
X144830894Y-110078826D01*
X145161820Y-109858209D02*
X145198589Y-109821440D01*
X145272128Y-109784670D01*
X145455976Y-109784670D01*
X145529515Y-109821440D01*
X145566285Y-109858209D01*
X145603054Y-109931748D01*
X145603054Y-110005287D01*
X145566285Y-110115596D01*
X145125050Y-110556830D01*
X145603054Y-110556830D01*
X145930914Y-110508990D02*
X145930914Y-109994217D01*
X145930914Y-110067756D02*
X145967684Y-110030986D01*
X146041223Y-109994217D01*
X146151532Y-109994217D01*
X146225071Y-110030986D01*
X146261840Y-110104525D01*
X146261840Y-110508990D01*
X146261840Y-110104525D02*
X146298610Y-110030986D01*
X146372149Y-109994217D01*
X146482457Y-109994217D01*
X146555996Y-110030986D01*
X146592766Y-110104525D01*
X146592766Y-110508990D01*
X146923692Y-110472220D02*
X146997231Y-110508990D01*
X147144309Y-110508990D01*
X147217848Y-110472220D01*
X147254617Y-110398681D01*
X147254617Y-110361912D01*
X147217848Y-110288373D01*
X147144309Y-110251603D01*
X147034000Y-110251603D01*
X146960461Y-110214834D01*
X146923692Y-110141295D01*
X146923692Y-110104525D01*
X146960461Y-110030986D01*
X147034000Y-109994217D01*
X147144309Y-109994217D01*
X147217848Y-110030986D01*
X147512004Y-109736830D02*
X147990008Y-109736830D01*
X147732621Y-110030986D01*
X147842930Y-110030986D01*
X147916469Y-110067756D01*
X147953238Y-110104525D01*
X147990008Y-110178064D01*
X147990008Y-110361912D01*
X147953238Y-110435451D01*
X147916469Y-110472220D01*
X147842930Y-110508990D01*
X147622313Y-110508990D01*
X147548774Y-110472220D01*
X147512004Y-110435451D01*
X151488961Y-110546830D02*
X151488961Y-109774670D01*
X151488961Y-110142365D02*
X151930195Y-110142365D01*
X151930195Y-110546830D02*
X151930195Y-109774670D01*
X152444968Y-109774670D02*
X152592046Y-109774670D01*
X152665585Y-109811440D01*
X152739125Y-109884979D01*
X152775894Y-110032057D01*
X152775894Y-110289443D01*
X152739125Y-110436521D01*
X152665585Y-110510060D01*
X152592046Y-110546830D01*
X152444968Y-110546830D01*
X152371429Y-110510060D01*
X152297890Y-110436521D01*
X152261121Y-110289443D01*
X152261121Y-110032057D01*
X152297890Y-109884979D01*
X152371429Y-109811440D01*
X152444968Y-109774670D01*
X153106820Y-110546830D02*
X153106820Y-109774670D01*
X153364206Y-110326213D01*
X153621593Y-109774670D01*
X153621593Y-110546830D01*
X149221347Y-110152365D02*
X148963961Y-110152365D01*
X148963961Y-110556830D02*
X148963961Y-109784670D01*
X149331656Y-109784670D01*
X149993507Y-110556830D02*
X149625812Y-110556830D01*
X149625812Y-109784670D01*
X150140585Y-109784670D02*
X150581820Y-109784670D01*
X150361203Y-110556830D02*
X150361203Y-109784670D01*
X153958301Y-110497220D02*
X154068610Y-110533990D01*
X154252457Y-110533990D01*
X154325996Y-110497220D01*
X154362766Y-110460451D01*
X154399535Y-110386912D01*
X154399535Y-110313373D01*
X154362766Y-110239834D01*
X154325996Y-110203064D01*
X154252457Y-110166295D01*
X154105379Y-110129525D01*
X154031840Y-110092756D01*
X153995071Y-110055986D01*
X153958301Y-109982447D01*
X153958301Y-109908908D01*
X153995071Y-109835369D01*
X154031840Y-109798600D01*
X154105379Y-109761830D01*
X154289227Y-109761830D01*
X154399535Y-109798600D01*
X154620153Y-109761830D02*
X155061387Y-109761830D01*
X154840770Y-110533990D02*
X154840770Y-109761830D01*
X155318774Y-110533990D02*
X155318774Y-109761830D01*
X155612930Y-109761830D01*
X155686469Y-109798600D01*
X155723238Y-109835369D01*
X155760008Y-109908908D01*
X155760008Y-110019217D01*
X155723238Y-110092756D01*
X155686469Y-110129525D01*
X155612930Y-110166295D01*
X155318774Y-110166295D01*
X156243918Y-110543990D02*
X156243918Y-109771830D01*
X156427766Y-109771830D01*
X156538074Y-109808600D01*
X156611614Y-109882139D01*
X156648383Y-109955678D01*
X156685153Y-110102756D01*
X156685153Y-110213064D01*
X156648383Y-110360142D01*
X156611614Y-110433681D01*
X156538074Y-110507220D01*
X156427766Y-110543990D01*
X156243918Y-110543990D01*
X157016078Y-110543990D02*
X157016078Y-109771830D01*
X157825008Y-110543990D02*
X157567621Y-110176295D01*
X157383774Y-110543990D02*
X157383774Y-109771830D01*
X157677930Y-109771830D01*
X157751469Y-109808600D01*
X157788238Y-109845369D01*
X157825008Y-109918908D01*
X157825008Y-110029217D01*
X157788238Y-110102756D01*
X157751469Y-110139525D01*
X157677930Y-110176295D01*
X157383774Y-110176295D01*
X138918383Y-109959525D02*
X139175770Y-109959525D01*
X139286078Y-110363990D02*
X138918383Y-110363990D01*
X138918383Y-109591830D01*
X139286078Y-109591830D01*
X139617004Y-110363990D02*
X139617004Y-109591830D01*
X140058238Y-110363990D01*
X140058238Y-109591830D01*
X138806830Y-102458136D02*
X139578990Y-102200749D01*
X138806830Y-101943363D01*
X139578990Y-101685976D02*
X138806830Y-101685976D01*
X139358373Y-101428589D01*
X138806830Y-101171203D01*
X139578990Y-101171203D01*
X138806830Y-100656429D02*
X138806830Y-100509351D01*
X138843600Y-100435812D01*
X138917139Y-100362273D01*
X139064217Y-100325504D01*
X139321603Y-100325504D01*
X139468681Y-100362273D01*
X139542220Y-100435812D01*
X139578990Y-100509351D01*
X139578990Y-100656429D01*
X139542220Y-100729968D01*
X139468681Y-100803507D01*
X139321603Y-100840277D01*
X139064217Y-100840277D01*
X138917139Y-100803507D01*
X138843600Y-100729968D01*
X138806830Y-100656429D01*
X138806830Y-100104886D02*
X138806830Y-99663652D01*
X139578990Y-99884269D02*
X138806830Y-99884269D01*
X141798425Y-99526440D02*
X141724886Y-99489670D01*
X141614578Y-99489670D01*
X141504269Y-99526440D01*
X141430730Y-99599979D01*
X141393961Y-99673518D01*
X141357191Y-99820596D01*
X141357191Y-99930904D01*
X141393961Y-100077982D01*
X141430730Y-100151521D01*
X141504269Y-100225060D01*
X141614578Y-100261830D01*
X141688117Y-100261830D01*
X141798425Y-100225060D01*
X141835195Y-100188291D01*
X141835195Y-99930904D01*
X141688117Y-99930904D01*
X142166121Y-100261830D02*
X142166121Y-99489670D01*
X142607355Y-100261830D01*
X142607355Y-99489670D01*
X142975050Y-100261830D02*
X142975050Y-99489670D01*
X143158898Y-99489670D01*
X143269206Y-99526440D01*
X143342745Y-99599979D01*
X143379515Y-99673518D01*
X143416285Y-99820596D01*
X143416285Y-99930904D01*
X143379515Y-100077982D01*
X143342745Y-100151521D01*
X143269206Y-100225060D01*
X143158898Y-100261830D01*
X142975050Y-100261830D01*
X151912747Y-99908765D02*
X152023056Y-99945535D01*
X152059825Y-99982304D01*
X152096595Y-100055843D01*
X152096595Y-100166152D01*
X152059825Y-100239691D01*
X152023056Y-100276460D01*
X151949517Y-100313230D01*
X151655361Y-100313230D01*
X151655361Y-99541070D01*
X151912747Y-99541070D01*
X151986286Y-99577840D01*
X152023056Y-99614609D01*
X152059825Y-99688148D01*
X152059825Y-99761687D01*
X152023056Y-99835226D01*
X151986286Y-99871996D01*
X151912747Y-99908765D01*
X151655361Y-99908765D01*
X152831985Y-100313230D02*
X152390751Y-100313230D01*
X152611368Y-100313230D02*
X152611368Y-99541070D01*
X152537829Y-99651379D01*
X152464290Y-99724918D01*
X152390751Y-99761687D01*
X149661347Y-99852365D02*
X149771656Y-99889135D01*
X149808425Y-99925904D01*
X149845195Y-99999443D01*
X149845195Y-100109752D01*
X149808425Y-100183291D01*
X149771656Y-100220060D01*
X149698117Y-100256830D01*
X149403961Y-100256830D01*
X149403961Y-99484670D01*
X149661347Y-99484670D01*
X149734886Y-99521440D01*
X149771656Y-99558209D01*
X149808425Y-99631748D01*
X149808425Y-99705287D01*
X149771656Y-99778826D01*
X149734886Y-99815596D01*
X149661347Y-99852365D01*
X149403961Y-99852365D01*
X150139351Y-99558209D02*
X150176121Y-99521440D01*
X150249660Y-99484670D01*
X150433507Y-99484670D01*
X150507046Y-99521440D01*
X150543816Y-99558209D01*
X150580585Y-99631748D01*
X150580585Y-99705287D01*
X150543816Y-99815596D01*
X150102582Y-100256830D01*
X150580585Y-100256830D01*
X146797191Y-100036213D02*
X147164886Y-100036213D01*
X146723652Y-100256830D02*
X146981039Y-99484670D01*
X147238425Y-100256830D01*
X147459043Y-99558209D02*
X147495812Y-99521440D01*
X147569351Y-99484670D01*
X147753199Y-99484670D01*
X147826738Y-99521440D01*
X147863507Y-99558209D01*
X147900277Y-99631748D01*
X147900277Y-99705287D01*
X147863507Y-99815596D01*
X147422273Y-100256830D01*
X147900277Y-100256830D01*
X144247191Y-99996213D02*
X144614886Y-99996213D01*
X144173652Y-100216830D02*
X144431039Y-99444670D01*
X144688425Y-100216830D01*
X145350277Y-100216830D02*
X144909043Y-100216830D01*
X145129660Y-100216830D02*
X145129660Y-99444670D01*
X145056121Y-99554979D01*
X144982582Y-99628518D01*
X144909043Y-99665287D01*
X153329217Y-99101738D02*
X153843990Y-99101738D01*
X153402756Y-99101738D02*
X153365986Y-99064968D01*
X153329217Y-98991429D01*
X153329217Y-98881121D01*
X153365986Y-98807582D01*
X153439525Y-98770812D01*
X153843990Y-98770812D01*
X153807220Y-98072191D02*
X153843990Y-98145730D01*
X153843990Y-98292808D01*
X153807220Y-98366347D01*
X153770451Y-98403117D01*
X153696912Y-98439886D01*
X153476295Y-98439886D01*
X153402756Y-98403117D01*
X153365986Y-98366347D01*
X153329217Y-98292808D01*
X153329217Y-98145730D01*
X153365986Y-98072191D01*
X156383238Y-98913600D02*
X156309699Y-98876830D01*
X156199391Y-98876830D01*
X156089082Y-98913600D01*
X156015543Y-98987139D01*
X155978774Y-99060678D01*
X155942004Y-99207756D01*
X155942004Y-99318064D01*
X155978774Y-99465142D01*
X156015543Y-99538681D01*
X156089082Y-99612220D01*
X156199391Y-99648990D01*
X156272930Y-99648990D01*
X156383238Y-99612220D01*
X156420008Y-99575451D01*
X156420008Y-99318064D01*
X156272930Y-99318064D01*
D13*
X157805451Y-108105884D02*
X157842220Y-108142654D01*
X157878990Y-108252962D01*
X157878990Y-108326501D01*
X157842220Y-108436810D01*
X157768681Y-108510349D01*
X157695142Y-108547118D01*
X157548064Y-108583888D01*
X157437756Y-108583888D01*
X157290678Y-108547118D01*
X157217139Y-108510349D01*
X157143600Y-108436810D01*
X157106830Y-108326501D01*
X157106830Y-108252962D01*
X157143600Y-108142654D01*
X157180369Y-108105884D01*
X157106830Y-107627880D02*
X157106830Y-107480802D01*
X157143600Y-107407263D01*
X157217139Y-107333724D01*
X157364217Y-107296955D01*
X157621603Y-107296955D01*
X157768681Y-107333724D01*
X157842220Y-107407263D01*
X157878990Y-107480802D01*
X157878990Y-107627880D01*
X157842220Y-107701419D01*
X157768681Y-107774958D01*
X157621603Y-107811728D01*
X157364217Y-107811728D01*
X157217139Y-107774958D01*
X157143600Y-107701419D01*
X157106830Y-107627880D01*
X157106830Y-106818951D02*
X157106830Y-106671873D01*
X157143600Y-106598334D01*
X157217139Y-106524795D01*
X157364217Y-106488025D01*
X157621603Y-106488025D01*
X157768681Y-106524795D01*
X157842220Y-106598334D01*
X157878990Y-106671873D01*
X157878990Y-106818951D01*
X157842220Y-106892490D01*
X157768681Y-106966029D01*
X157621603Y-107002798D01*
X157364217Y-107002798D01*
X157217139Y-106966029D01*
X157143600Y-106892490D01*
X157106830Y-106818951D01*
X157878990Y-105789404D02*
X157878990Y-106157099D01*
X157106830Y-106157099D01*
X158088990Y-105433189D02*
X157316830Y-105433189D01*
X157316830Y-105249341D01*
X157353600Y-105139033D01*
X157427139Y-105065494D01*
X157500678Y-105028724D01*
X157647756Y-104991955D01*
X157758064Y-104991955D01*
X157905142Y-105028724D01*
X157978681Y-105065494D01*
X158052220Y-105139033D01*
X158088990Y-105249341D01*
X158088990Y-105433189D01*
X158088990Y-104219795D02*
X157721295Y-104477181D01*
X158088990Y-104661029D02*
X157316830Y-104661029D01*
X157316830Y-104366873D01*
X157353600Y-104293334D01*
X157390369Y-104256564D01*
X157463908Y-104219795D01*
X157574217Y-104219795D01*
X157647756Y-104256564D01*
X157684525Y-104293334D01*
X157721295Y-104366873D01*
X157721295Y-104661029D01*
X157316830Y-103999177D02*
X158088990Y-103741791D01*
X157316830Y-103484404D01*
X140311787Y-101928990D02*
X140311787Y-101414217D01*
X140311787Y-101561295D02*
X140348557Y-101487756D01*
X140385326Y-101450986D01*
X140458865Y-101414217D01*
X140532404Y-101414217D01*
X140753022Y-101230369D02*
X140789791Y-101193600D01*
X140863330Y-101156830D01*
X141047178Y-101156830D01*
X141120717Y-101193600D01*
X141157486Y-101230369D01*
X141194256Y-101303908D01*
X141194256Y-101377447D01*
X141157486Y-101487756D01*
X140716252Y-101928990D01*
X141194256Y-101928990D01*
X146864713Y-101196830D02*
X146864713Y-100424670D01*
X147305947Y-101196830D02*
X146975021Y-100755596D01*
X147305947Y-100424670D02*
X146864713Y-100865904D01*
X147747181Y-101196830D02*
X147673642Y-101160060D01*
X147636873Y-101086521D01*
X147636873Y-100424670D01*
X148041337Y-101196830D02*
X148041337Y-100682057D01*
X148041337Y-100424670D02*
X148004568Y-100461440D01*
X148041337Y-100498209D01*
X148078107Y-100461440D01*
X148041337Y-100424670D01*
X148041337Y-100498209D01*
X148409033Y-101196830D02*
X148409033Y-100682057D01*
X148409033Y-100755596D02*
X148445802Y-100718826D01*
X148519341Y-100682057D01*
X148629650Y-100682057D01*
X148703189Y-100718826D01*
X148739958Y-100792365D01*
X148739958Y-101196830D01*
X148739958Y-100792365D02*
X148776728Y-100718826D01*
X148850267Y-100682057D01*
X148960576Y-100682057D01*
X149034115Y-100718826D01*
X149070884Y-100792365D01*
X149070884Y-101196830D01*
X149732736Y-101160060D02*
X149659197Y-101196830D01*
X149512118Y-101196830D01*
X149438579Y-101160060D01*
X149401810Y-101086521D01*
X149401810Y-100792365D01*
X149438579Y-100718826D01*
X149512118Y-100682057D01*
X149659197Y-100682057D01*
X149732736Y-100718826D01*
X149769505Y-100792365D01*
X149769505Y-100865904D01*
X149401810Y-100939443D01*
X150100431Y-100682057D02*
X150100431Y-101196830D01*
X150100431Y-100755596D02*
X150137200Y-100718826D01*
X150210739Y-100682057D01*
X150321048Y-100682057D01*
X150394587Y-100718826D01*
X150431357Y-100792365D01*
X150431357Y-101196830D01*
X150688743Y-100682057D02*
X150982899Y-100682057D01*
X150799052Y-100424670D02*
X150799052Y-101086521D01*
X150835821Y-101160060D01*
X150909360Y-101196830D01*
X150982899Y-101196830D01*
X141740638Y-101181830D02*
X141740638Y-100409670D01*
X141740638Y-101145060D02*
X141667099Y-101181830D01*
X141520021Y-101181830D01*
X141446482Y-101145060D01*
X141409713Y-101108291D01*
X141372943Y-101034752D01*
X141372943Y-100814135D01*
X141409713Y-100740596D01*
X141446482Y-100703826D01*
X141520021Y-100667057D01*
X141667099Y-100667057D01*
X141740638Y-100703826D01*
X142402490Y-101145060D02*
X142328951Y-101181830D01*
X142181873Y-101181830D01*
X142108334Y-101145060D01*
X142071564Y-101071521D01*
X142071564Y-100777365D01*
X142108334Y-100703826D01*
X142181873Y-100667057D01*
X142328951Y-100667057D01*
X142402490Y-100703826D01*
X142439259Y-100777365D01*
X142439259Y-100850904D01*
X142071564Y-100924443D01*
X142733416Y-101145060D02*
X142806955Y-101181830D01*
X142954033Y-101181830D01*
X143027572Y-101145060D01*
X143064341Y-101071521D01*
X143064341Y-101034752D01*
X143027572Y-100961213D01*
X142954033Y-100924443D01*
X142843724Y-100924443D01*
X142770185Y-100887674D01*
X142733416Y-100814135D01*
X142733416Y-100777365D01*
X142770185Y-100703826D01*
X142843724Y-100667057D01*
X142954033Y-100667057D01*
X143027572Y-100703826D01*
X143395267Y-101181830D02*
X143395267Y-100667057D01*
X143395267Y-100409670D02*
X143358497Y-100446440D01*
X143395267Y-100483209D01*
X143432037Y-100446440D01*
X143395267Y-100409670D01*
X143395267Y-100483209D01*
X144093888Y-100667057D02*
X144093888Y-101292139D01*
X144057118Y-101365678D01*
X144020349Y-101402447D01*
X143946810Y-101439217D01*
X143836501Y-101439217D01*
X143762962Y-101402447D01*
X144093888Y-101145060D02*
X144020349Y-101181830D01*
X143873271Y-101181830D01*
X143799732Y-101145060D01*
X143762962Y-101108291D01*
X143726193Y-101034752D01*
X143726193Y-100814135D01*
X143762962Y-100740596D01*
X143799732Y-100703826D01*
X143873271Y-100667057D01*
X144020349Y-100667057D01*
X144093888Y-100703826D01*
X144461583Y-100667057D02*
X144461583Y-101181830D01*
X144461583Y-100740596D02*
X144498353Y-100703826D01*
X144571892Y-100667057D01*
X144682200Y-100667057D01*
X144755739Y-100703826D01*
X144792509Y-100777365D01*
X144792509Y-101181830D01*
X145160204Y-101108291D02*
X145196974Y-101145060D01*
X145160204Y-101181830D01*
X145123435Y-101145060D01*
X145160204Y-101108291D01*
X145160204Y-101181830D01*
X145160204Y-100703826D02*
X145196974Y-100740596D01*
X145160204Y-100777365D01*
X145123435Y-100740596D01*
X145160204Y-100703826D01*
X145160204Y-100777365D01*
D14*
X157959062Y-109102788D02*
X158345142Y-109102788D01*
X157738445Y-109240674D02*
X158152102Y-109378559D01*
X158152102Y-109020057D01*
X158345142Y-108716708D02*
X158317565Y-108771862D01*
X158262411Y-108799439D01*
X157766022Y-108799439D01*
X158345142Y-108247897D02*
X158041794Y-108247897D01*
X157986640Y-108275474D01*
X157959062Y-108330628D01*
X157959062Y-108440937D01*
X157986640Y-108496091D01*
X158317565Y-108247897D02*
X158345142Y-108303051D01*
X158345142Y-108440937D01*
X158317565Y-108496091D01*
X158262411Y-108523668D01*
X158207257Y-108523668D01*
X158152102Y-108496091D01*
X158124525Y-108440937D01*
X158124525Y-108303051D01*
X158096948Y-108247897D01*
X157959062Y-108027279D02*
X158345142Y-107889394D01*
X157959062Y-107751508D02*
X158345142Y-107889394D01*
X158483028Y-107944548D01*
X158510605Y-107972125D01*
X158538182Y-108027279D01*
X158317565Y-107310274D02*
X158345142Y-107365428D01*
X158345142Y-107475737D01*
X158317565Y-107530891D01*
X158262411Y-107558468D01*
X158041794Y-107558468D01*
X157986640Y-107530891D01*
X157959062Y-107475737D01*
X157959062Y-107365428D01*
X157986640Y-107310274D01*
X158041794Y-107282697D01*
X158096948Y-107282697D01*
X158152102Y-107558468D01*
X158345142Y-107034502D02*
X157959062Y-107034502D01*
X158069371Y-107034502D02*
X158014217Y-107006925D01*
X157986640Y-106979348D01*
X157959062Y-106924194D01*
X157959062Y-106869039D01*
D15*
X151660345Y-101901542D02*
X151550037Y-101984274D01*
X151439728Y-101901542D01*
X151246688Y-101377577D02*
X151246688Y-101956697D01*
X150915762Y-101377577D02*
X151163957Y-101708502D01*
X150915762Y-101956697D02*
X151246688Y-101625771D01*
X150667568Y-101680925D02*
X150474528Y-101680925D01*
X150391797Y-101377577D02*
X150667568Y-101377577D01*
X150667568Y-101956697D01*
X150391797Y-101956697D01*
X150143602Y-101680925D02*
X149950562Y-101680925D01*
X149867831Y-101377577D02*
X150143602Y-101377577D01*
X150143602Y-101956697D01*
X149867831Y-101956697D01*
X149619637Y-101377577D02*
X149619637Y-101956697D01*
X149399020Y-101956697D01*
X149343865Y-101929120D01*
X149316288Y-101901542D01*
X149288711Y-101846388D01*
X149288711Y-101763657D01*
X149316288Y-101708502D01*
X149343865Y-101680925D01*
X149399020Y-101653348D01*
X149619637Y-101653348D01*
X148268357Y-101432731D02*
X148295934Y-101405154D01*
X148378665Y-101377577D01*
X148433820Y-101377577D01*
X148516551Y-101405154D01*
X148571705Y-101460308D01*
X148599282Y-101515462D01*
X148626860Y-101625771D01*
X148626860Y-101708502D01*
X148599282Y-101818811D01*
X148571705Y-101873965D01*
X148516551Y-101929120D01*
X148433820Y-101956697D01*
X148378665Y-101956697D01*
X148295934Y-101929120D01*
X148268357Y-101901542D01*
X147909854Y-101956697D02*
X147799545Y-101956697D01*
X147744391Y-101929120D01*
X147689237Y-101873965D01*
X147661660Y-101763657D01*
X147661660Y-101570617D01*
X147689237Y-101460308D01*
X147744391Y-101405154D01*
X147799545Y-101377577D01*
X147909854Y-101377577D01*
X147965008Y-101405154D01*
X148020162Y-101460308D01*
X148047740Y-101570617D01*
X148047740Y-101763657D01*
X148020162Y-101873965D01*
X147965008Y-101929120D01*
X147909854Y-101956697D01*
X147303157Y-101956697D02*
X147192848Y-101956697D01*
X147137694Y-101929120D01*
X147082540Y-101873965D01*
X147054962Y-101763657D01*
X147054962Y-101570617D01*
X147082540Y-101460308D01*
X147137694Y-101405154D01*
X147192848Y-101377577D01*
X147303157Y-101377577D01*
X147358311Y-101405154D01*
X147413465Y-101460308D01*
X147441042Y-101570617D01*
X147441042Y-101763657D01*
X147413465Y-101873965D01*
X147358311Y-101929120D01*
X147303157Y-101956697D01*
X146530997Y-101377577D02*
X146806768Y-101377577D01*
X146806768Y-101956697D01*
X146337957Y-101432731D02*
X146310380Y-101405154D01*
X146337957Y-101377577D01*
X146365534Y-101405154D01*
X146337957Y-101432731D01*
X146337957Y-101377577D01*
X146337957Y-101598194D02*
X146365534Y-101929120D01*
X146337957Y-101956697D01*
X146310380Y-101929120D01*
X146337957Y-101598194D01*
X146337957Y-101956697D01*
X146144917Y-101901542D02*
X146034608Y-101984274D01*
X145924300Y-101901542D01*
D16*
X138918600Y-102833600D02*
X138978600Y-102833600D01*
X138978600Y-102833600D02*
X140238600Y-102833600D01*
X140238600Y-102833600D02*
X140238600Y-102313600D01*
X140238600Y-102313600D02*
X153198600Y-102313600D01*
X153198600Y-102313600D02*
X153198600Y-103353600D01*
X153198600Y-103353600D02*
X156938600Y-103353600D01*
X156938600Y-103353600D02*
X156938600Y-109453600D01*
X156938600Y-109453600D02*
X147958600Y-109453600D01*
X147958600Y-109453600D02*
X147958600Y-109293600D01*
X147958600Y-109293600D02*
X138978600Y-109293600D01*
X138978600Y-109293600D02*
X138978600Y-102833600D01*
D14*
X152126782Y-100900142D02*
X152126782Y-100514062D01*
X152126782Y-100624371D02*
X152154360Y-100569217D01*
X152181937Y-100541640D01*
X152237091Y-100514062D01*
X152292245Y-100514062D01*
X152705902Y-100872565D02*
X152650748Y-100900142D01*
X152540440Y-100900142D01*
X152485285Y-100872565D01*
X152457708Y-100817411D01*
X152457708Y-100596794D01*
X152485285Y-100541640D01*
X152540440Y-100514062D01*
X152650748Y-100514062D01*
X152705902Y-100541640D01*
X152733480Y-100596794D01*
X152733480Y-100651948D01*
X152457708Y-100707102D01*
X152898942Y-100514062D02*
X153119560Y-100514062D01*
X152981674Y-100900142D02*
X152981674Y-100403754D01*
X153009251Y-100348600D01*
X153064405Y-100321022D01*
X153119560Y-100321022D01*
D17*
G04 #@! TO.C,U$2*
X157818600Y-103023600D02*
X154368600Y-103023600D01*
X157818600Y-99923600D02*
X157818600Y-103023600D01*
X154368600Y-99923600D02*
X157818600Y-99923600D01*
X154368600Y-103023600D02*
X154368600Y-99923600D01*
G04 #@! TD*
%LPC*%
D18*
X153825000Y-99850000D02*
G75*
G03*
X153825000Y-99850000I-300000J0D01*
G01*
D19*
X157730000Y-98660000D02*
G75*
G03*
X157730000Y-98660000I-400000J0D01*
G01*
X155190000Y-98660000D02*
G75*
G03*
X155190000Y-98660000I-400000J0D01*
G01*
X152650000Y-98660000D02*
G75*
G03*
X152650000Y-98660000I-400000J0D01*
G01*
X150110000Y-98660000D02*
G75*
G03*
X150110000Y-98660000I-400000J0D01*
G01*
X147570000Y-98660000D02*
G75*
G03*
X147570000Y-98660000I-400000J0D01*
G01*
X145030000Y-98660000D02*
G75*
G03*
X145030000Y-98660000I-400000J0D01*
G01*
X142490000Y-98660000D02*
G75*
G03*
X142490000Y-98660000I-400000J0D01*
G01*
X139950000Y-98660000D02*
G75*
G03*
X139950000Y-98660000I-400000J0D01*
G01*
X157730000Y-111360000D02*
G75*
G03*
X157730000Y-111360000I-400000J0D01*
G01*
X155190000Y-111360000D02*
G75*
G03*
X155190000Y-111360000I-400000J0D01*
G01*
X152650000Y-111360000D02*
G75*
G03*
X152650000Y-111360000I-400000J0D01*
G01*
X150110000Y-111360000D02*
G75*
G03*
X150110000Y-111360000I-400000J0D01*
G01*
X147570000Y-111360000D02*
G75*
G03*
X147570000Y-111360000I-400000J0D01*
G01*
X145030000Y-111360000D02*
G75*
G03*
X145030000Y-111360000I-400000J0D01*
G01*
X142490000Y-111360000D02*
G75*
G03*
X142490000Y-111360000I-400000J0D01*
G01*
X139950000Y-111360000D02*
G75*
G03*
X139950000Y-111360000I-400000J0D01*
G01*
D20*
G36*
X145800000Y-107975000D02*
G01*
X145100000Y-108000000D01*
X145100000Y-104150000D01*
X145800000Y-104125000D01*
X145800000Y-107975000D01*
G37*
X145800000Y-107975000D02*
X145100000Y-108000000D01*
X145100000Y-104150000D01*
X145800000Y-104125000D01*
X145800000Y-107975000D01*
G36*
X147100000Y-107975000D02*
G01*
X146400000Y-108000000D01*
X146400000Y-104150000D01*
X147100000Y-104125000D01*
X147100000Y-107975000D01*
G37*
X147100000Y-107975000D02*
X146400000Y-108000000D01*
X146400000Y-104150000D01*
X147100000Y-104125000D01*
X147100000Y-107975000D01*
G36*
X148400000Y-107975000D02*
G01*
X147700000Y-108000000D01*
X147700000Y-104150000D01*
X148400000Y-104125000D01*
X148400000Y-107975000D01*
G37*
X148400000Y-107975000D02*
X147700000Y-108000000D01*
X147700000Y-104150000D01*
X148400000Y-104125000D01*
X148400000Y-107975000D01*
G36*
X149700000Y-107975000D02*
G01*
X149000000Y-108000000D01*
X149000000Y-104150000D01*
X149700000Y-104125000D01*
X149700000Y-107975000D01*
G37*
X149700000Y-107975000D02*
X149000000Y-108000000D01*
X149000000Y-104150000D01*
X149700000Y-104125000D01*
X149700000Y-107975000D01*
G36*
X151000000Y-107975000D02*
G01*
X150300000Y-108000000D01*
X150300000Y-104150000D01*
X151000000Y-104125000D01*
X151000000Y-107975000D01*
G37*
X151000000Y-107975000D02*
X150300000Y-108000000D01*
X150300000Y-104150000D01*
X151000000Y-104125000D01*
X151000000Y-107975000D01*
G36*
X152300000Y-107975000D02*
G01*
X151600000Y-108000000D01*
X151600000Y-104150000D01*
X152300000Y-104125000D01*
X152300000Y-107975000D01*
G37*
X152300000Y-107975000D02*
X151600000Y-108000000D01*
X151600000Y-104150000D01*
X152300000Y-104125000D01*
X152300000Y-107975000D01*
G36*
X153000000Y-105700000D02*
G01*
X144250000Y-105700000D01*
X144250000Y-104975000D01*
X153000000Y-104975000D01*
X153000000Y-105700000D01*
G37*
X153000000Y-105700000D02*
X144250000Y-105700000D01*
X144250000Y-104975000D01*
X153000000Y-104975000D01*
X153000000Y-105700000D01*
G36*
X153000000Y-106950000D02*
G01*
X144250000Y-106950000D01*
X144250000Y-106275000D01*
X153000000Y-106275000D01*
X153000000Y-106950000D01*
G37*
X153000000Y-106950000D02*
X144250000Y-106950000D01*
X144250000Y-106275000D01*
X153000000Y-106275000D01*
X153000000Y-106950000D01*
G36*
X152900000Y-103000000D02*
G01*
X152925000Y-104400000D01*
X144475000Y-104400000D01*
X144525000Y-107600000D01*
X139150000Y-107700000D01*
X139100000Y-103000000D01*
X140550000Y-103000000D01*
X140550000Y-102550000D01*
X152900000Y-102500000D01*
X152900000Y-103000000D01*
G37*
X152900000Y-103000000D02*
X152925000Y-104400000D01*
X144475000Y-104400000D01*
X144525000Y-107600000D01*
X139150000Y-107700000D01*
X139100000Y-103000000D01*
X140550000Y-103000000D01*
X140550000Y-102550000D01*
X152900000Y-102500000D01*
X152900000Y-103000000D01*
G36*
X152900000Y-109200000D02*
G01*
X139100000Y-109200000D01*
X139125000Y-107550000D01*
X152925000Y-107550000D01*
X152900000Y-109200000D01*
G37*
X152900000Y-109200000D02*
X139100000Y-109200000D01*
X139125000Y-107550000D01*
X152925000Y-107550000D01*
X152900000Y-109200000D01*
G36*
X156750000Y-109250000D02*
G01*
X152900000Y-109250000D01*
X152900000Y-103550000D01*
X156750000Y-103550000D01*
X156750000Y-109250000D01*
G37*
X156750000Y-109250000D02*
X152900000Y-109250000D01*
X152900000Y-103550000D01*
X156750000Y-103550000D01*
X156750000Y-109250000D01*
D21*
G04 #@! TO.C,U$2*
X154268600Y-101473600D03*
D22*
X157518600Y-102473600D03*
X157518600Y-100473600D03*
G04 #@! TD*
M02*
