G04 #@! TF.GenerationSoftware,KiCad,Pcbnew,5.1.6-c6e7f7d~87~ubuntu18.04.1*
G04 #@! TF.CreationDate,2020-09-14T18:26:16+02:00*
G04 #@! TF.ProjectId,cooldrv,636f6f6c-6472-4762-9e6b-696361645f70,rev?*
G04 #@! TF.SameCoordinates,Original*
G04 #@! TF.FileFunction,Copper,L2,Inr*
G04 #@! TF.FilePolarity,Positive*
%FSLAX46Y46*%
G04 Gerber Fmt 4.6, Leading zero omitted, Abs format (unit mm)*
G04 Created by KiCad (PCBNEW 5.1.6-c6e7f7d~87~ubuntu18.04.1) date 2020-09-14 18:26:16*
%MOMM*%
%LPD*%
G01*
G04 APERTURE LIST*
G04 #@! TA.AperFunction,ViaPad*
%ADD10C,0.609600*%
G04 #@! TD*
G04 #@! TA.AperFunction,ViaPad*
%ADD11C,1.600000*%
G04 #@! TD*
G04 #@! TA.AperFunction,ViaPad*
%ADD12C,0.600000*%
G04 #@! TD*
G04 #@! TA.AperFunction,ViaPad*
%ADD13C,0.700000*%
G04 #@! TD*
G04 #@! TA.AperFunction,ViaPad*
%ADD14C,1.200000*%
G04 #@! TD*
G04 #@! TA.AperFunction,ViaPad*
%ADD15C,1.500000*%
G04 #@! TD*
G04 #@! TA.AperFunction,Conductor*
%ADD16C,1.016000*%
G04 #@! TD*
G04 #@! TA.AperFunction,Conductor*
%ADD17C,0.304800*%
G04 #@! TD*
G04 #@! TA.AperFunction,Conductor*
%ADD18C,1.270000*%
G04 #@! TD*
G04 #@! TA.AperFunction,Conductor*
%ADD19C,0.254000*%
G04 #@! TD*
G04 #@! TA.AperFunction,Conductor*
%ADD20C,0.127000*%
G04 #@! TD*
G04 APERTURE END LIST*
D10*
G04 #@! TO.N,/GND*
G04 #@! TO.C,U$1*
X152588600Y-107263600D03*
X152588600Y-105963600D03*
X152588600Y-104663600D03*
X151288600Y-104663600D03*
X151288600Y-105963600D03*
X151288600Y-107263600D03*
X149988600Y-107263600D03*
X149988600Y-105963600D03*
X149988600Y-104663600D03*
X144788600Y-104663600D03*
X144788600Y-107263600D03*
X144788600Y-105963600D03*
X146088600Y-104663600D03*
X146088600Y-107263600D03*
X146088600Y-105963600D03*
X147388600Y-104663600D03*
X147388600Y-107263600D03*
X147388600Y-105963600D03*
X148688600Y-104663600D03*
X148688600Y-107263600D03*
X148688600Y-105963600D03*
G04 #@! TD*
D11*
G04 #@! TO.N,Net-(U$1-PadP$27)*
X152248600Y-111363600D03*
D12*
X143478600Y-109793600D03*
D11*
G04 #@! TO.N,Net-(U$1-PadP$10)*
X152248600Y-98663600D03*
G04 #@! TO.N,Net-(U$1-PadP$8)*
X149708600Y-98663600D03*
G04 #@! TO.N,Net-(U$1-PadP$21)*
X139548600Y-111363600D03*
G04 #@! TO.N,Net-(U$1-PadP$24)*
X142088600Y-111363600D03*
G04 #@! TO.N,NC*
X154788600Y-98663600D03*
G04 #@! TO.N,Net-(U$1-PadP$25)*
X144628600Y-111363600D03*
G04 #@! TO.N,/GND*
X142088600Y-98663600D03*
D12*
X139773600Y-106863600D03*
X139773600Y-106263600D03*
X140373600Y-106863600D03*
X140373600Y-106263600D03*
X140973600Y-106863600D03*
X140973600Y-106263600D03*
X141573600Y-106263600D03*
X141573600Y-106863600D03*
X142173600Y-106863600D03*
X142173600Y-106263600D03*
X142773600Y-106863600D03*
X142773600Y-106263600D03*
X143373600Y-106863600D03*
X143373600Y-106263600D03*
X153908600Y-103168600D03*
X154508600Y-103168600D03*
X153908600Y-103768600D03*
X154508600Y-103768600D03*
X154508600Y-104368600D03*
X153908600Y-104368600D03*
X156188600Y-102458600D03*
X155108600Y-104368600D03*
X155108600Y-103768600D03*
X155108600Y-103168600D03*
X143373600Y-105663600D03*
X142773600Y-105663600D03*
X142173600Y-105663600D03*
X141573600Y-105663600D03*
X140973600Y-105663600D03*
X140373600Y-105663600D03*
X139773600Y-105663600D03*
X139448600Y-107808600D03*
X140048600Y-107808600D03*
X139448600Y-108408600D03*
X140048600Y-108408600D03*
X139448600Y-109008600D03*
X140048600Y-109008600D03*
X141488600Y-107648600D03*
X140888600Y-107648600D03*
X140888600Y-108248600D03*
X141488600Y-108248600D03*
X153808600Y-105068600D03*
X154408600Y-105068600D03*
X153808600Y-105668600D03*
X156828600Y-104808600D03*
X155708600Y-103168600D03*
X156308600Y-103168600D03*
X155708600Y-103768600D03*
X156308600Y-103768600D03*
X156308600Y-104368600D03*
X155708600Y-104368600D03*
X139153600Y-106923600D03*
X140593600Y-108783600D03*
X139213600Y-105023600D03*
X156848600Y-104148600D03*
X155008600Y-105068600D03*
X142088600Y-108248600D03*
X142088600Y-107648600D03*
X140708600Y-104988600D03*
X140708600Y-104388600D03*
X141308600Y-104388600D03*
X141308600Y-104988600D03*
X142688600Y-107648600D03*
X142688600Y-108248600D03*
X155608600Y-105068600D03*
X155608600Y-105668600D03*
X139553600Y-104463600D03*
X153673600Y-107083600D03*
X139153600Y-106283600D03*
X139193600Y-105683600D03*
X143073600Y-108883600D03*
X140033600Y-105043600D03*
X140588600Y-109448600D03*
X156208600Y-105068600D03*
X143288600Y-108248600D03*
X143288600Y-107648600D03*
X141908600Y-104988600D03*
X141908600Y-104388600D03*
X155588600Y-102458600D03*
X153788600Y-106388600D03*
X156868600Y-103548600D03*
X141228600Y-109128600D03*
X141828600Y-109128600D03*
X142428600Y-109128600D03*
D11*
X157328600Y-98663600D03*
G04 #@! TO.N,Net-(U$1-PadP$22)*
X154788600Y-111363600D03*
G04 #@! TO.N,Net-(U$1-PadP$20)*
X157328600Y-111363600D03*
G04 #@! TO.N,Net-(U$1-PadP$26)*
X147168600Y-111363600D03*
G04 #@! TO.N,Net-(U$1-PadP$18)*
X149708600Y-111363600D03*
G04 #@! TO.N,Net-(C1-Pad2)*
X139548600Y-98663600D03*
D13*
X151563600Y-101808600D03*
X146148600Y-101833600D03*
D12*
X157618600Y-108433600D03*
G04 #@! TO.N,Net-(U$1-PadP$12)*
X152713600Y-101803600D03*
D14*
X153538596Y-99853600D03*
D12*
G04 #@! TO.N,Net-(R5-Pad2)*
X156618600Y-100553600D03*
G04 #@! TO.N,Net-(U$1-PadP$26)*
X145650000Y-110200000D03*
G04 #@! TO.N,Net-(U$1-PadP$24)*
X147548026Y-110063372D03*
G04 #@! TO.N,Net-(U$1-PadP$22)*
X148400000Y-110850000D03*
G04 #@! TO.N,Net-(U$1-PadP$21)*
X148988593Y-110208173D03*
G04 #@! TO.N,Net-(U$1-PadP$20)*
X153500000Y-110700000D03*
X150098772Y-110059394D03*
D15*
G04 #@! TO.N,Net-(U$1-PadP$7)*
X147202662Y-98629538D03*
D11*
G04 #@! TO.N,Net-(U$1-PadP$5)*
X144628600Y-98645190D03*
G04 #@! TD*
D16*
G04 #@! TO.N,Net-(C1-Pad2)*
X151563600Y-101808600D02*
X146148600Y-101833600D01*
D17*
X157618600Y-108433600D02*
X157678600Y-108573600D01*
X157678600Y-108573600D02*
X157918600Y-108333600D01*
X157918600Y-108333600D02*
X157918600Y-102413600D01*
X157918600Y-102413600D02*
X156898600Y-101393600D01*
X156898600Y-101393600D02*
X155898600Y-101393600D01*
X151563600Y-101808600D02*
X151663600Y-101213600D01*
X151663600Y-101213600D02*
X151663600Y-101108600D01*
X155898600Y-101393600D02*
X155598600Y-101093600D01*
X155598600Y-101093600D02*
X153318600Y-101093600D01*
X153318600Y-101093600D02*
X153058600Y-100833600D01*
X153058600Y-100833600D02*
X152043600Y-100833600D01*
X152043600Y-100833600D02*
X151663600Y-101213600D01*
D18*
X146148600Y-101833600D02*
X142323600Y-101758600D01*
X142323600Y-101758600D02*
X140278600Y-99713600D01*
X140278600Y-99713600D02*
X140278600Y-99393600D01*
X140278600Y-99393600D02*
X139548600Y-98663600D01*
D19*
G04 #@! TO.N,Net-(U$1-PadP$26)*
X146005000Y-110200000D02*
X145650000Y-110200000D01*
X147168600Y-111363600D02*
X146005000Y-110200000D01*
G04 #@! TO.N,Net-(U$1-PadP$24)*
X142928600Y-111363600D02*
X144769202Y-109522998D01*
X147007652Y-109522998D02*
X147548026Y-110063372D01*
X142088600Y-111363600D02*
X142928600Y-111363600D01*
X144769202Y-109522998D02*
X147007652Y-109522998D01*
G04 #@! TO.N,Net-(U$1-PadP$22)*
X153669970Y-109113600D02*
X148778600Y-109113600D01*
X154788600Y-110232230D02*
X153669970Y-109113600D01*
X148222999Y-110672999D02*
X148400000Y-110850000D01*
X148778600Y-109113600D02*
X148222999Y-109669201D01*
X148222999Y-109669201D02*
X148222999Y-110672999D01*
X154788600Y-111363600D02*
X154788600Y-110232230D01*
G04 #@! TO.N,Net-(U$1-PadP$20)*
X152913600Y-110113600D02*
X153500000Y-110700000D01*
X149978600Y-110113600D02*
X152913600Y-110113600D01*
G04 #@! TD*
D20*
G04 #@! TO.N,/GND*
G36*
X157780562Y-97709877D02*
G01*
X157950782Y-97761269D01*
X158107783Y-97844748D01*
X158245573Y-97957126D01*
X158358915Y-98094133D01*
X158443487Y-98250545D01*
X158496066Y-98420403D01*
X158515091Y-98601412D01*
X158515100Y-98603904D01*
X158515099Y-111399268D01*
X158497323Y-111580561D01*
X158445930Y-111750783D01*
X158362451Y-111907785D01*
X158250074Y-112045573D01*
X158113067Y-112158915D01*
X157956655Y-112243487D01*
X157899553Y-112261162D01*
X158006542Y-112189675D01*
X158154675Y-112041542D01*
X158271062Y-111867356D01*
X158351230Y-111673812D01*
X158392100Y-111468346D01*
X158392100Y-111258854D01*
X158351230Y-111053388D01*
X158271062Y-110859844D01*
X158154675Y-110685658D01*
X158006542Y-110537525D01*
X157832356Y-110421138D01*
X157638812Y-110340970D01*
X157433346Y-110300100D01*
X157223854Y-110300100D01*
X157018388Y-110340970D01*
X156824844Y-110421138D01*
X156650658Y-110537525D01*
X156502525Y-110685658D01*
X156386138Y-110859844D01*
X156305970Y-111053388D01*
X156265100Y-111258854D01*
X156265100Y-111468346D01*
X156305970Y-111673812D01*
X156386138Y-111867356D01*
X156502525Y-112041542D01*
X156650658Y-112189675D01*
X156824844Y-112306062D01*
X156846661Y-112315099D01*
X155270539Y-112315099D01*
X155292356Y-112306062D01*
X155466542Y-112189675D01*
X155614675Y-112041542D01*
X155731062Y-111867356D01*
X155811230Y-111673812D01*
X155852100Y-111468346D01*
X155852100Y-111258854D01*
X155811230Y-111053388D01*
X155731062Y-110859844D01*
X155614675Y-110685658D01*
X155466542Y-110537525D01*
X155292356Y-110421138D01*
X155179100Y-110374226D01*
X155179100Y-110251411D01*
X155180989Y-110232230D01*
X155173450Y-110155678D01*
X155151120Y-110082069D01*
X155139601Y-110060518D01*
X155114860Y-110014230D01*
X155066061Y-109954769D01*
X155051165Y-109942544D01*
X153959660Y-108851040D01*
X153947431Y-108836139D01*
X153887970Y-108787340D01*
X153820131Y-108751080D01*
X153746521Y-108728751D01*
X153689148Y-108723100D01*
X153669970Y-108721211D01*
X153650792Y-108723100D01*
X148797770Y-108723100D01*
X148778599Y-108721212D01*
X148759428Y-108723100D01*
X148759422Y-108723100D01*
X148709963Y-108727971D01*
X148702048Y-108728751D01*
X148686304Y-108733527D01*
X148628439Y-108751080D01*
X148560600Y-108787340D01*
X148501139Y-108836139D01*
X148488910Y-108851040D01*
X147960439Y-109379511D01*
X147945538Y-109391740D01*
X147896739Y-109451202D01*
X147870725Y-109499872D01*
X147860479Y-109519041D01*
X147841464Y-109581724D01*
X147814944Y-109564004D01*
X147712393Y-109521527D01*
X147603526Y-109499872D01*
X147536776Y-109499872D01*
X147297342Y-109260438D01*
X147285113Y-109245537D01*
X147225652Y-109196738D01*
X147157813Y-109160478D01*
X147084203Y-109138149D01*
X147026830Y-109132498D01*
X147007652Y-109130609D01*
X146988474Y-109132498D01*
X144788372Y-109132498D01*
X144769201Y-109130610D01*
X144750030Y-109132498D01*
X144750024Y-109132498D01*
X144700565Y-109137369D01*
X144692650Y-109138149D01*
X144675518Y-109143346D01*
X144619041Y-109160478D01*
X144551202Y-109196738D01*
X144491741Y-109245537D01*
X144479512Y-109260438D01*
X144035422Y-109704528D01*
X144020445Y-109629233D01*
X143977968Y-109526682D01*
X143916299Y-109434389D01*
X143837811Y-109355901D01*
X143745518Y-109294232D01*
X143642967Y-109251755D01*
X143534100Y-109230100D01*
X143423100Y-109230100D01*
X143314233Y-109251755D01*
X143211682Y-109294232D01*
X143119389Y-109355901D01*
X143040901Y-109434389D01*
X142979232Y-109526682D01*
X142936755Y-109629233D01*
X142915100Y-109738100D01*
X142915100Y-109849100D01*
X142936755Y-109957967D01*
X142979232Y-110060518D01*
X143040901Y-110152811D01*
X143119389Y-110231299D01*
X143211682Y-110292968D01*
X143314233Y-110335445D01*
X143389528Y-110350422D01*
X142970598Y-110769352D01*
X142914675Y-110685658D01*
X142766542Y-110537525D01*
X142592356Y-110421138D01*
X142398812Y-110340970D01*
X142193346Y-110300100D01*
X141983854Y-110300100D01*
X141778388Y-110340970D01*
X141584844Y-110421138D01*
X141410658Y-110537525D01*
X141262525Y-110685658D01*
X141146138Y-110859844D01*
X141065970Y-111053388D01*
X141025100Y-111258854D01*
X141025100Y-111468346D01*
X141065970Y-111673812D01*
X141146138Y-111867356D01*
X141262525Y-112041542D01*
X141410658Y-112189675D01*
X141584844Y-112306062D01*
X141606661Y-112315099D01*
X140030539Y-112315099D01*
X140052356Y-112306062D01*
X140226542Y-112189675D01*
X140374675Y-112041542D01*
X140491062Y-111867356D01*
X140571230Y-111673812D01*
X140612100Y-111468346D01*
X140612100Y-111258854D01*
X140571230Y-111053388D01*
X140491062Y-110859844D01*
X140374675Y-110685658D01*
X140226542Y-110537525D01*
X140052356Y-110421138D01*
X139858812Y-110340970D01*
X139653346Y-110300100D01*
X139443854Y-110300100D01*
X139238388Y-110340970D01*
X139044844Y-110421138D01*
X138870658Y-110537525D01*
X138722525Y-110685658D01*
X138606138Y-110859844D01*
X138525970Y-111053388D01*
X138487101Y-111248794D01*
X138487101Y-98778406D01*
X138525970Y-98973812D01*
X138606138Y-99167356D01*
X138722525Y-99341542D01*
X138870658Y-99489675D01*
X139044844Y-99606062D01*
X139238388Y-99686230D01*
X139315997Y-99701667D01*
X139380978Y-99766649D01*
X139393101Y-99889736D01*
X139444478Y-100059104D01*
X139527910Y-100215194D01*
X139640191Y-100352009D01*
X139674477Y-100380147D01*
X141650816Y-102356487D01*
X141672799Y-102384370D01*
X141713221Y-102418892D01*
X141719473Y-102425144D01*
X141746825Y-102447591D01*
X141807385Y-102499312D01*
X141815135Y-102503652D01*
X141822005Y-102509290D01*
X141892309Y-102546868D01*
X141961810Y-102585788D01*
X141970256Y-102588532D01*
X141978095Y-102592722D01*
X142054391Y-102615866D01*
X142130138Y-102640475D01*
X142138956Y-102641518D01*
X142147463Y-102644099D01*
X142226761Y-102651909D01*
X142261859Y-102656062D01*
X142270691Y-102656235D01*
X142323600Y-102661446D01*
X142358940Y-102657966D01*
X146175113Y-102732792D01*
X146307343Y-102722381D01*
X146477686Y-102674335D01*
X146617793Y-102602941D01*
X151605052Y-102579916D01*
X151718348Y-102568229D01*
X151863571Y-102523443D01*
X151997267Y-102451186D01*
X152114297Y-102354235D01*
X152210163Y-102236315D01*
X152260891Y-102140347D01*
X152275901Y-102162811D01*
X152354389Y-102241299D01*
X152446682Y-102302968D01*
X152549233Y-102345445D01*
X152658100Y-102367100D01*
X152769100Y-102367100D01*
X152877967Y-102345445D01*
X152980518Y-102302968D01*
X153072811Y-102241299D01*
X153151299Y-102162811D01*
X153212968Y-102070518D01*
X153255445Y-101967967D01*
X153277100Y-101859100D01*
X153277100Y-101748100D01*
X153255445Y-101639233D01*
X153212968Y-101536682D01*
X153179017Y-101485872D01*
X153237069Y-101503482D01*
X153298172Y-101509500D01*
X153298182Y-101509500D01*
X153318600Y-101511511D01*
X153339018Y-101509500D01*
X155426330Y-101509500D01*
X155590069Y-101673240D01*
X155603092Y-101689108D01*
X155618958Y-101702129D01*
X155618959Y-101702130D01*
X155666420Y-101741081D01*
X155726466Y-101773176D01*
X155738672Y-101779700D01*
X155817069Y-101803482D01*
X155878172Y-101809500D01*
X155878181Y-101809500D01*
X155898599Y-101811511D01*
X155919017Y-101809500D01*
X156726330Y-101809500D01*
X157502701Y-102585872D01*
X157502700Y-107882114D01*
X157454233Y-107891755D01*
X157351682Y-107934232D01*
X157259389Y-107995901D01*
X157180901Y-108074389D01*
X157119232Y-108166682D01*
X157076755Y-108269233D01*
X157055100Y-108378100D01*
X157055100Y-108489100D01*
X157076755Y-108597967D01*
X157119232Y-108700518D01*
X157180901Y-108792811D01*
X157259389Y-108871299D01*
X157351682Y-108932968D01*
X157454233Y-108975445D01*
X157563100Y-108997100D01*
X157674100Y-108997100D01*
X157725342Y-108986907D01*
X157760130Y-108983481D01*
X157762576Y-108982739D01*
X157765121Y-108982457D01*
X157801759Y-108970853D01*
X157838527Y-108959700D01*
X157840785Y-108958493D01*
X157843223Y-108957721D01*
X157876851Y-108939215D01*
X157910779Y-108921081D01*
X157912760Y-108919455D01*
X157914999Y-108918223D01*
X157943615Y-108894148D01*
X157977811Y-108871299D01*
X158056299Y-108792811D01*
X158073898Y-108766472D01*
X158198243Y-108642128D01*
X158214108Y-108629108D01*
X158255515Y-108578654D01*
X158266081Y-108565780D01*
X158279533Y-108540613D01*
X158304700Y-108493528D01*
X158328482Y-108415131D01*
X158334500Y-108354028D01*
X158334500Y-108354019D01*
X158336511Y-108333601D01*
X158334500Y-108313183D01*
X158334500Y-102434018D01*
X158336511Y-102413600D01*
X158334500Y-102393182D01*
X158334500Y-102393172D01*
X158328482Y-102332069D01*
X158304700Y-102253672D01*
X158300269Y-102245382D01*
X158266081Y-102181420D01*
X158227130Y-102133959D01*
X158227129Y-102133958D01*
X158214108Y-102118092D01*
X158198242Y-102105071D01*
X157207133Y-101113963D01*
X157194108Y-101098092D01*
X157130779Y-101046119D01*
X157058528Y-101007500D01*
X156984168Y-100984942D01*
X157056299Y-100912811D01*
X157117968Y-100820518D01*
X157160445Y-100717967D01*
X157182100Y-100609100D01*
X157182100Y-100498100D01*
X157160445Y-100389233D01*
X157117968Y-100286682D01*
X157056299Y-100194389D01*
X156977811Y-100115901D01*
X156885518Y-100054232D01*
X156782967Y-100011755D01*
X156674100Y-99990100D01*
X156563100Y-99990100D01*
X156454233Y-100011755D01*
X156351682Y-100054232D01*
X156259389Y-100115901D01*
X156180901Y-100194389D01*
X156119232Y-100286682D01*
X156076755Y-100389233D01*
X156055100Y-100498100D01*
X156055100Y-100609100D01*
X156076755Y-100717967D01*
X156119232Y-100820518D01*
X156180901Y-100912811D01*
X156245790Y-100977700D01*
X156070871Y-100977700D01*
X155907133Y-100813963D01*
X155894108Y-100798092D01*
X155830779Y-100746119D01*
X155758528Y-100707500D01*
X155680131Y-100683718D01*
X155619028Y-100677700D01*
X155619018Y-100677700D01*
X155598600Y-100675689D01*
X155578182Y-100677700D01*
X153805477Y-100677700D01*
X153947617Y-100618824D01*
X154089045Y-100524324D01*
X154209320Y-100404049D01*
X154303820Y-100262621D01*
X154368912Y-100105474D01*
X154402096Y-99938647D01*
X154402096Y-99768553D01*
X154377400Y-99644400D01*
X154478388Y-99686230D01*
X154683854Y-99727100D01*
X154893346Y-99727100D01*
X155098812Y-99686230D01*
X155292356Y-99606062D01*
X155466542Y-99489675D01*
X155614675Y-99341542D01*
X155731062Y-99167356D01*
X155811230Y-98973812D01*
X155852100Y-98768346D01*
X155852100Y-98558854D01*
X155811230Y-98353388D01*
X155731062Y-98159844D01*
X155614675Y-97985658D01*
X155466542Y-97837525D01*
X155292356Y-97721138D01*
X155222254Y-97692101D01*
X157599268Y-97692101D01*
X157780562Y-97709877D01*
G37*
X157780562Y-97709877D02*
X157950782Y-97761269D01*
X158107783Y-97844748D01*
X158245573Y-97957126D01*
X158358915Y-98094133D01*
X158443487Y-98250545D01*
X158496066Y-98420403D01*
X158515091Y-98601412D01*
X158515100Y-98603904D01*
X158515099Y-111399268D01*
X158497323Y-111580561D01*
X158445930Y-111750783D01*
X158362451Y-111907785D01*
X158250074Y-112045573D01*
X158113067Y-112158915D01*
X157956655Y-112243487D01*
X157899553Y-112261162D01*
X158006542Y-112189675D01*
X158154675Y-112041542D01*
X158271062Y-111867356D01*
X158351230Y-111673812D01*
X158392100Y-111468346D01*
X158392100Y-111258854D01*
X158351230Y-111053388D01*
X158271062Y-110859844D01*
X158154675Y-110685658D01*
X158006542Y-110537525D01*
X157832356Y-110421138D01*
X157638812Y-110340970D01*
X157433346Y-110300100D01*
X157223854Y-110300100D01*
X157018388Y-110340970D01*
X156824844Y-110421138D01*
X156650658Y-110537525D01*
X156502525Y-110685658D01*
X156386138Y-110859844D01*
X156305970Y-111053388D01*
X156265100Y-111258854D01*
X156265100Y-111468346D01*
X156305970Y-111673812D01*
X156386138Y-111867356D01*
X156502525Y-112041542D01*
X156650658Y-112189675D01*
X156824844Y-112306062D01*
X156846661Y-112315099D01*
X155270539Y-112315099D01*
X155292356Y-112306062D01*
X155466542Y-112189675D01*
X155614675Y-112041542D01*
X155731062Y-111867356D01*
X155811230Y-111673812D01*
X155852100Y-111468346D01*
X155852100Y-111258854D01*
X155811230Y-111053388D01*
X155731062Y-110859844D01*
X155614675Y-110685658D01*
X155466542Y-110537525D01*
X155292356Y-110421138D01*
X155179100Y-110374226D01*
X155179100Y-110251411D01*
X155180989Y-110232230D01*
X155173450Y-110155678D01*
X155151120Y-110082069D01*
X155139601Y-110060518D01*
X155114860Y-110014230D01*
X155066061Y-109954769D01*
X155051165Y-109942544D01*
X153959660Y-108851040D01*
X153947431Y-108836139D01*
X153887970Y-108787340D01*
X153820131Y-108751080D01*
X153746521Y-108728751D01*
X153689148Y-108723100D01*
X153669970Y-108721211D01*
X153650792Y-108723100D01*
X148797770Y-108723100D01*
X148778599Y-108721212D01*
X148759428Y-108723100D01*
X148759422Y-108723100D01*
X148709963Y-108727971D01*
X148702048Y-108728751D01*
X148686304Y-108733527D01*
X148628439Y-108751080D01*
X148560600Y-108787340D01*
X148501139Y-108836139D01*
X148488910Y-108851040D01*
X147960439Y-109379511D01*
X147945538Y-109391740D01*
X147896739Y-109451202D01*
X147870725Y-109499872D01*
X147860479Y-109519041D01*
X147841464Y-109581724D01*
X147814944Y-109564004D01*
X147712393Y-109521527D01*
X147603526Y-109499872D01*
X147536776Y-109499872D01*
X147297342Y-109260438D01*
X147285113Y-109245537D01*
X147225652Y-109196738D01*
X147157813Y-109160478D01*
X147084203Y-109138149D01*
X147026830Y-109132498D01*
X147007652Y-109130609D01*
X146988474Y-109132498D01*
X144788372Y-109132498D01*
X144769201Y-109130610D01*
X144750030Y-109132498D01*
X144750024Y-109132498D01*
X144700565Y-109137369D01*
X144692650Y-109138149D01*
X144675518Y-109143346D01*
X144619041Y-109160478D01*
X144551202Y-109196738D01*
X144491741Y-109245537D01*
X144479512Y-109260438D01*
X144035422Y-109704528D01*
X144020445Y-109629233D01*
X143977968Y-109526682D01*
X143916299Y-109434389D01*
X143837811Y-109355901D01*
X143745518Y-109294232D01*
X143642967Y-109251755D01*
X143534100Y-109230100D01*
X143423100Y-109230100D01*
X143314233Y-109251755D01*
X143211682Y-109294232D01*
X143119389Y-109355901D01*
X143040901Y-109434389D01*
X142979232Y-109526682D01*
X142936755Y-109629233D01*
X142915100Y-109738100D01*
X142915100Y-109849100D01*
X142936755Y-109957967D01*
X142979232Y-110060518D01*
X143040901Y-110152811D01*
X143119389Y-110231299D01*
X143211682Y-110292968D01*
X143314233Y-110335445D01*
X143389528Y-110350422D01*
X142970598Y-110769352D01*
X142914675Y-110685658D01*
X142766542Y-110537525D01*
X142592356Y-110421138D01*
X142398812Y-110340970D01*
X142193346Y-110300100D01*
X141983854Y-110300100D01*
X141778388Y-110340970D01*
X141584844Y-110421138D01*
X141410658Y-110537525D01*
X141262525Y-110685658D01*
X141146138Y-110859844D01*
X141065970Y-111053388D01*
X141025100Y-111258854D01*
X141025100Y-111468346D01*
X141065970Y-111673812D01*
X141146138Y-111867356D01*
X141262525Y-112041542D01*
X141410658Y-112189675D01*
X141584844Y-112306062D01*
X141606661Y-112315099D01*
X140030539Y-112315099D01*
X140052356Y-112306062D01*
X140226542Y-112189675D01*
X140374675Y-112041542D01*
X140491062Y-111867356D01*
X140571230Y-111673812D01*
X140612100Y-111468346D01*
X140612100Y-111258854D01*
X140571230Y-111053388D01*
X140491062Y-110859844D01*
X140374675Y-110685658D01*
X140226542Y-110537525D01*
X140052356Y-110421138D01*
X139858812Y-110340970D01*
X139653346Y-110300100D01*
X139443854Y-110300100D01*
X139238388Y-110340970D01*
X139044844Y-110421138D01*
X138870658Y-110537525D01*
X138722525Y-110685658D01*
X138606138Y-110859844D01*
X138525970Y-111053388D01*
X138487101Y-111248794D01*
X138487101Y-98778406D01*
X138525970Y-98973812D01*
X138606138Y-99167356D01*
X138722525Y-99341542D01*
X138870658Y-99489675D01*
X139044844Y-99606062D01*
X139238388Y-99686230D01*
X139315997Y-99701667D01*
X139380978Y-99766649D01*
X139393101Y-99889736D01*
X139444478Y-100059104D01*
X139527910Y-100215194D01*
X139640191Y-100352009D01*
X139674477Y-100380147D01*
X141650816Y-102356487D01*
X141672799Y-102384370D01*
X141713221Y-102418892D01*
X141719473Y-102425144D01*
X141746825Y-102447591D01*
X141807385Y-102499312D01*
X141815135Y-102503652D01*
X141822005Y-102509290D01*
X141892309Y-102546868D01*
X141961810Y-102585788D01*
X141970256Y-102588532D01*
X141978095Y-102592722D01*
X142054391Y-102615866D01*
X142130138Y-102640475D01*
X142138956Y-102641518D01*
X142147463Y-102644099D01*
X142226761Y-102651909D01*
X142261859Y-102656062D01*
X142270691Y-102656235D01*
X142323600Y-102661446D01*
X142358940Y-102657966D01*
X146175113Y-102732792D01*
X146307343Y-102722381D01*
X146477686Y-102674335D01*
X146617793Y-102602941D01*
X151605052Y-102579916D01*
X151718348Y-102568229D01*
X151863571Y-102523443D01*
X151997267Y-102451186D01*
X152114297Y-102354235D01*
X152210163Y-102236315D01*
X152260891Y-102140347D01*
X152275901Y-102162811D01*
X152354389Y-102241299D01*
X152446682Y-102302968D01*
X152549233Y-102345445D01*
X152658100Y-102367100D01*
X152769100Y-102367100D01*
X152877967Y-102345445D01*
X152980518Y-102302968D01*
X153072811Y-102241299D01*
X153151299Y-102162811D01*
X153212968Y-102070518D01*
X153255445Y-101967967D01*
X153277100Y-101859100D01*
X153277100Y-101748100D01*
X153255445Y-101639233D01*
X153212968Y-101536682D01*
X153179017Y-101485872D01*
X153237069Y-101503482D01*
X153298172Y-101509500D01*
X153298182Y-101509500D01*
X153318600Y-101511511D01*
X153339018Y-101509500D01*
X155426330Y-101509500D01*
X155590069Y-101673240D01*
X155603092Y-101689108D01*
X155618958Y-101702129D01*
X155618959Y-101702130D01*
X155666420Y-101741081D01*
X155726466Y-101773176D01*
X155738672Y-101779700D01*
X155817069Y-101803482D01*
X155878172Y-101809500D01*
X155878181Y-101809500D01*
X155898599Y-101811511D01*
X155919017Y-101809500D01*
X156726330Y-101809500D01*
X157502701Y-102585872D01*
X157502700Y-107882114D01*
X157454233Y-107891755D01*
X157351682Y-107934232D01*
X157259389Y-107995901D01*
X157180901Y-108074389D01*
X157119232Y-108166682D01*
X157076755Y-108269233D01*
X157055100Y-108378100D01*
X157055100Y-108489100D01*
X157076755Y-108597967D01*
X157119232Y-108700518D01*
X157180901Y-108792811D01*
X157259389Y-108871299D01*
X157351682Y-108932968D01*
X157454233Y-108975445D01*
X157563100Y-108997100D01*
X157674100Y-108997100D01*
X157725342Y-108986907D01*
X157760130Y-108983481D01*
X157762576Y-108982739D01*
X157765121Y-108982457D01*
X157801759Y-108970853D01*
X157838527Y-108959700D01*
X157840785Y-108958493D01*
X157843223Y-108957721D01*
X157876851Y-108939215D01*
X157910779Y-108921081D01*
X157912760Y-108919455D01*
X157914999Y-108918223D01*
X157943615Y-108894148D01*
X157977811Y-108871299D01*
X158056299Y-108792811D01*
X158073898Y-108766472D01*
X158198243Y-108642128D01*
X158214108Y-108629108D01*
X158255515Y-108578654D01*
X158266081Y-108565780D01*
X158279533Y-108540613D01*
X158304700Y-108493528D01*
X158328482Y-108415131D01*
X158334500Y-108354028D01*
X158334500Y-108354019D01*
X158336511Y-108333601D01*
X158334500Y-108313183D01*
X158334500Y-102434018D01*
X158336511Y-102413600D01*
X158334500Y-102393182D01*
X158334500Y-102393172D01*
X158328482Y-102332069D01*
X158304700Y-102253672D01*
X158300269Y-102245382D01*
X158266081Y-102181420D01*
X158227130Y-102133959D01*
X158227129Y-102133958D01*
X158214108Y-102118092D01*
X158198242Y-102105071D01*
X157207133Y-101113963D01*
X157194108Y-101098092D01*
X157130779Y-101046119D01*
X157058528Y-101007500D01*
X156984168Y-100984942D01*
X157056299Y-100912811D01*
X157117968Y-100820518D01*
X157160445Y-100717967D01*
X157182100Y-100609100D01*
X157182100Y-100498100D01*
X157160445Y-100389233D01*
X157117968Y-100286682D01*
X157056299Y-100194389D01*
X156977811Y-100115901D01*
X156885518Y-100054232D01*
X156782967Y-100011755D01*
X156674100Y-99990100D01*
X156563100Y-99990100D01*
X156454233Y-100011755D01*
X156351682Y-100054232D01*
X156259389Y-100115901D01*
X156180901Y-100194389D01*
X156119232Y-100286682D01*
X156076755Y-100389233D01*
X156055100Y-100498100D01*
X156055100Y-100609100D01*
X156076755Y-100717967D01*
X156119232Y-100820518D01*
X156180901Y-100912811D01*
X156245790Y-100977700D01*
X156070871Y-100977700D01*
X155907133Y-100813963D01*
X155894108Y-100798092D01*
X155830779Y-100746119D01*
X155758528Y-100707500D01*
X155680131Y-100683718D01*
X155619028Y-100677700D01*
X155619018Y-100677700D01*
X155598600Y-100675689D01*
X155578182Y-100677700D01*
X153805477Y-100677700D01*
X153947617Y-100618824D01*
X154089045Y-100524324D01*
X154209320Y-100404049D01*
X154303820Y-100262621D01*
X154368912Y-100105474D01*
X154402096Y-99938647D01*
X154402096Y-99768553D01*
X154377400Y-99644400D01*
X154478388Y-99686230D01*
X154683854Y-99727100D01*
X154893346Y-99727100D01*
X155098812Y-99686230D01*
X155292356Y-99606062D01*
X155466542Y-99489675D01*
X155614675Y-99341542D01*
X155731062Y-99167356D01*
X155811230Y-98973812D01*
X155852100Y-98768346D01*
X155852100Y-98558854D01*
X155811230Y-98353388D01*
X155731062Y-98159844D01*
X155614675Y-97985658D01*
X155466542Y-97837525D01*
X155292356Y-97721138D01*
X155222254Y-97692101D01*
X157599268Y-97692101D01*
X157780562Y-97709877D01*
G36*
X144124844Y-97702728D02*
G01*
X143950658Y-97819115D01*
X143802525Y-97967248D01*
X143686138Y-98141434D01*
X143605970Y-98334978D01*
X143565100Y-98540444D01*
X143565100Y-98749936D01*
X143605970Y-98955402D01*
X143686138Y-99148946D01*
X143802525Y-99323132D01*
X143950658Y-99471265D01*
X144124844Y-99587652D01*
X144318388Y-99667820D01*
X144523854Y-99708690D01*
X144733346Y-99708690D01*
X144938812Y-99667820D01*
X145132356Y-99587652D01*
X145306542Y-99471265D01*
X145454675Y-99323132D01*
X145571062Y-99148946D01*
X145651230Y-98955402D01*
X145692100Y-98749936D01*
X145692100Y-98540444D01*
X145651230Y-98334978D01*
X145571062Y-98141434D01*
X145454675Y-97967248D01*
X145306542Y-97819115D01*
X145132356Y-97702728D01*
X145106700Y-97692101D01*
X146817432Y-97692101D01*
X146722590Y-97731386D01*
X146556593Y-97842301D01*
X146415425Y-97983469D01*
X146304510Y-98149466D01*
X146228110Y-98333911D01*
X146189162Y-98529717D01*
X146189162Y-98729359D01*
X146228110Y-98925165D01*
X146304510Y-99109610D01*
X146415425Y-99275607D01*
X146556593Y-99416775D01*
X146722590Y-99527690D01*
X146907035Y-99604090D01*
X147102841Y-99643038D01*
X147302483Y-99643038D01*
X147498289Y-99604090D01*
X147682734Y-99527690D01*
X147848731Y-99416775D01*
X147989899Y-99275607D01*
X148100814Y-99109610D01*
X148177214Y-98925165D01*
X148216162Y-98729359D01*
X148216162Y-98529717D01*
X148177214Y-98333911D01*
X148100814Y-98149466D01*
X147989899Y-97983469D01*
X147848731Y-97842301D01*
X147682734Y-97731386D01*
X147587892Y-97692101D01*
X149274946Y-97692101D01*
X149204844Y-97721138D01*
X149030658Y-97837525D01*
X148882525Y-97985658D01*
X148766138Y-98159844D01*
X148685970Y-98353388D01*
X148645100Y-98558854D01*
X148645100Y-98768346D01*
X148685970Y-98973812D01*
X148766138Y-99167356D01*
X148882525Y-99341542D01*
X149030658Y-99489675D01*
X149204844Y-99606062D01*
X149398388Y-99686230D01*
X149603854Y-99727100D01*
X149813346Y-99727100D01*
X150018812Y-99686230D01*
X150212356Y-99606062D01*
X150386542Y-99489675D01*
X150534675Y-99341542D01*
X150651062Y-99167356D01*
X150731230Y-98973812D01*
X150772100Y-98768346D01*
X150772100Y-98558854D01*
X150731230Y-98353388D01*
X150651062Y-98159844D01*
X150534675Y-97985658D01*
X150386542Y-97837525D01*
X150212356Y-97721138D01*
X150142254Y-97692101D01*
X151814946Y-97692101D01*
X151744844Y-97721138D01*
X151570658Y-97837525D01*
X151422525Y-97985658D01*
X151306138Y-98159844D01*
X151225970Y-98353388D01*
X151185100Y-98558854D01*
X151185100Y-98768346D01*
X151225970Y-98973812D01*
X151306138Y-99167356D01*
X151422525Y-99341542D01*
X151570658Y-99489675D01*
X151744844Y-99606062D01*
X151938388Y-99686230D01*
X152143854Y-99727100D01*
X152353346Y-99727100D01*
X152558812Y-99686230D01*
X152703383Y-99626347D01*
X152675096Y-99768553D01*
X152675096Y-99938647D01*
X152708280Y-100105474D01*
X152773372Y-100262621D01*
X152867872Y-100404049D01*
X152881523Y-100417700D01*
X152064017Y-100417700D01*
X152043599Y-100415689D01*
X152023181Y-100417700D01*
X152023172Y-100417700D01*
X151962069Y-100423718D01*
X151883672Y-100447500D01*
X151836587Y-100472667D01*
X151811420Y-100486119D01*
X151763958Y-100525070D01*
X151763952Y-100525076D01*
X151748092Y-100538092D01*
X151735075Y-100553953D01*
X151591211Y-100697818D01*
X151582070Y-100698718D01*
X151503673Y-100722500D01*
X151431422Y-100761119D01*
X151368092Y-100813092D01*
X151316119Y-100876421D01*
X151277500Y-100948672D01*
X151253718Y-101027069D01*
X151252589Y-101038528D01*
X146606050Y-101059981D01*
X146510390Y-101006412D01*
X146342062Y-100951725D01*
X146210341Y-100936138D01*
X142703039Y-100867368D01*
X141176222Y-99340552D01*
X141164099Y-99217464D01*
X141162444Y-99212006D01*
X141112722Y-99048095D01*
X141029290Y-98892005D01*
X140945144Y-98789473D01*
X140945142Y-98789471D01*
X140917009Y-98755191D01*
X140882728Y-98727057D01*
X140586667Y-98430997D01*
X140571230Y-98353388D01*
X140491062Y-98159844D01*
X140374675Y-97985658D01*
X140226542Y-97837525D01*
X140052356Y-97721138D01*
X139982254Y-97692101D01*
X144150500Y-97692101D01*
X144124844Y-97702728D01*
G37*
X144124844Y-97702728D02*
X143950658Y-97819115D01*
X143802525Y-97967248D01*
X143686138Y-98141434D01*
X143605970Y-98334978D01*
X143565100Y-98540444D01*
X143565100Y-98749936D01*
X143605970Y-98955402D01*
X143686138Y-99148946D01*
X143802525Y-99323132D01*
X143950658Y-99471265D01*
X144124844Y-99587652D01*
X144318388Y-99667820D01*
X144523854Y-99708690D01*
X144733346Y-99708690D01*
X144938812Y-99667820D01*
X145132356Y-99587652D01*
X145306542Y-99471265D01*
X145454675Y-99323132D01*
X145571062Y-99148946D01*
X145651230Y-98955402D01*
X145692100Y-98749936D01*
X145692100Y-98540444D01*
X145651230Y-98334978D01*
X145571062Y-98141434D01*
X145454675Y-97967248D01*
X145306542Y-97819115D01*
X145132356Y-97702728D01*
X145106700Y-97692101D01*
X146817432Y-97692101D01*
X146722590Y-97731386D01*
X146556593Y-97842301D01*
X146415425Y-97983469D01*
X146304510Y-98149466D01*
X146228110Y-98333911D01*
X146189162Y-98529717D01*
X146189162Y-98729359D01*
X146228110Y-98925165D01*
X146304510Y-99109610D01*
X146415425Y-99275607D01*
X146556593Y-99416775D01*
X146722590Y-99527690D01*
X146907035Y-99604090D01*
X147102841Y-99643038D01*
X147302483Y-99643038D01*
X147498289Y-99604090D01*
X147682734Y-99527690D01*
X147848731Y-99416775D01*
X147989899Y-99275607D01*
X148100814Y-99109610D01*
X148177214Y-98925165D01*
X148216162Y-98729359D01*
X148216162Y-98529717D01*
X148177214Y-98333911D01*
X148100814Y-98149466D01*
X147989899Y-97983469D01*
X147848731Y-97842301D01*
X147682734Y-97731386D01*
X147587892Y-97692101D01*
X149274946Y-97692101D01*
X149204844Y-97721138D01*
X149030658Y-97837525D01*
X148882525Y-97985658D01*
X148766138Y-98159844D01*
X148685970Y-98353388D01*
X148645100Y-98558854D01*
X148645100Y-98768346D01*
X148685970Y-98973812D01*
X148766138Y-99167356D01*
X148882525Y-99341542D01*
X149030658Y-99489675D01*
X149204844Y-99606062D01*
X149398388Y-99686230D01*
X149603854Y-99727100D01*
X149813346Y-99727100D01*
X150018812Y-99686230D01*
X150212356Y-99606062D01*
X150386542Y-99489675D01*
X150534675Y-99341542D01*
X150651062Y-99167356D01*
X150731230Y-98973812D01*
X150772100Y-98768346D01*
X150772100Y-98558854D01*
X150731230Y-98353388D01*
X150651062Y-98159844D01*
X150534675Y-97985658D01*
X150386542Y-97837525D01*
X150212356Y-97721138D01*
X150142254Y-97692101D01*
X151814946Y-97692101D01*
X151744844Y-97721138D01*
X151570658Y-97837525D01*
X151422525Y-97985658D01*
X151306138Y-98159844D01*
X151225970Y-98353388D01*
X151185100Y-98558854D01*
X151185100Y-98768346D01*
X151225970Y-98973812D01*
X151306138Y-99167356D01*
X151422525Y-99341542D01*
X151570658Y-99489675D01*
X151744844Y-99606062D01*
X151938388Y-99686230D01*
X152143854Y-99727100D01*
X152353346Y-99727100D01*
X152558812Y-99686230D01*
X152703383Y-99626347D01*
X152675096Y-99768553D01*
X152675096Y-99938647D01*
X152708280Y-100105474D01*
X152773372Y-100262621D01*
X152867872Y-100404049D01*
X152881523Y-100417700D01*
X152064017Y-100417700D01*
X152043599Y-100415689D01*
X152023181Y-100417700D01*
X152023172Y-100417700D01*
X151962069Y-100423718D01*
X151883672Y-100447500D01*
X151836587Y-100472667D01*
X151811420Y-100486119D01*
X151763958Y-100525070D01*
X151763952Y-100525076D01*
X151748092Y-100538092D01*
X151735075Y-100553953D01*
X151591211Y-100697818D01*
X151582070Y-100698718D01*
X151503673Y-100722500D01*
X151431422Y-100761119D01*
X151368092Y-100813092D01*
X151316119Y-100876421D01*
X151277500Y-100948672D01*
X151253718Y-101027069D01*
X151252589Y-101038528D01*
X146606050Y-101059981D01*
X146510390Y-101006412D01*
X146342062Y-100951725D01*
X146210341Y-100936138D01*
X142703039Y-100867368D01*
X141176222Y-99340552D01*
X141164099Y-99217464D01*
X141162444Y-99212006D01*
X141112722Y-99048095D01*
X141029290Y-98892005D01*
X140945144Y-98789473D01*
X140945142Y-98789471D01*
X140917009Y-98755191D01*
X140882728Y-98727057D01*
X140586667Y-98430997D01*
X140571230Y-98353388D01*
X140491062Y-98159844D01*
X140374675Y-97985658D01*
X140226542Y-97837525D01*
X140052356Y-97721138D01*
X139982254Y-97692101D01*
X144150500Y-97692101D01*
X144124844Y-97702728D01*
G04 #@! TD*
M02*
