M48
; DRILL file {KiCad 5.1.6-c6e7f7d~87~ubuntu18.04.1} date Mon Sep 14 18:26:08 2020
; FORMAT={-:-/ absolute / inch / decimal}
; #@! TF.CreationDate,2020-09-14T18:26:08+02:00
; #@! TF.GenerationSoftware,Kicad,Pcbnew,5.1.6-c6e7f7d~87~ubuntu18.04.1
; #@! TF.FileFunction,Plated,1,4,PTH
FMAT,2
INCH
T1C0.0118
T2C0.0157
T3C0.0236
T4C0.0354
%
G90
G05
T1
X5.4785Y-4.1844
X5.4785Y-4.2096
X5.4801Y-4.1608
X5.4809Y-4.1348
X5.4901Y-4.2444
X5.4901Y-4.2681
X5.4901Y-4.2917
X5.4942Y-4.1127
X5.5029Y-4.16
X5.5029Y-4.1836
X5.5029Y-4.2072
X5.5131Y-4.1356
X5.5137Y-4.2444
X5.5137Y-4.2681
X5.5137Y-4.2917
X5.5265Y-4.16
X5.5265Y-4.1836
X5.5265Y-4.2072
X5.535Y-4.309
X5.5352Y-4.2828
X5.5397Y-4.1098
X5.5397Y-4.1334
X5.5468Y-4.2381
X5.5468Y-4.2618
X5.5501Y-4.16
X5.5501Y-4.1836
X5.5501Y-4.2072
X5.5602Y-4.2964
X5.5633Y-4.1098
X5.5633Y-4.1334
X5.5704Y-4.2381
X5.5704Y-4.2618
X5.5738Y-4.16
X5.5738Y-4.1836
X5.5738Y-4.2072
X5.5838Y-4.2964
X5.587Y-4.1098
X5.587Y-4.1334
X5.594Y-4.2381
X5.594Y-4.2618
X5.5974Y-4.16
X5.5974Y-4.1836
X5.5974Y-4.2072
X5.6074Y-4.2964
X5.6177Y-4.2381
X5.6177Y-4.2618
X5.621Y-4.16
X5.621Y-4.1836
X5.621Y-4.2072
X5.6328Y-4.2868
X5.6413Y-4.2381
X5.6413Y-4.2618
X5.6446Y-4.16
X5.6446Y-4.1836
X5.6446Y-4.2072
X5.6488Y-4.3226
X5.7343Y-4.3386
X5.809Y-4.3332
X5.8425Y-4.3642
X5.8657Y-4.3389
X5.9094Y-4.333
X6.0123Y-4.008
X6.0433Y-4.3583
X6.0501Y-4.2159
X6.0547Y-4.1885
X6.0555Y-4.1366
X6.0555Y-4.1602
X6.0594Y-4.0618
X6.0594Y-4.0854
X6.0594Y-4.109
X6.0791Y-4.1366
X6.083Y-4.0618
X6.083Y-4.0854
X6.083Y-4.109
X6.1027Y-4.1366
X6.1066Y-4.0618
X6.1066Y-4.0854
X6.1066Y-4.109
X6.1255Y-4.0338
X6.1263Y-4.1366
X6.1263Y-4.1602
X6.1303Y-4.0618
X6.1303Y-4.0854
X6.1303Y-4.109
X6.1492Y-4.0338
X6.1499Y-4.1366
X6.1539Y-4.0618
X6.1539Y-4.0854
X6.1539Y-4.109
X6.1661Y-3.9588
X6.1744Y-4.1263
X6.1751Y-4.1003
X6.1759Y-4.0767
X6.2055Y-4.269
X5.7003Y-4.1206
X5.7003Y-4.1718
X5.7003Y-4.223
X5.7515Y-4.1206
X5.7515Y-4.1718
X5.7515Y-4.223
X5.8027Y-4.1206
X5.8027Y-4.1718
X5.8027Y-4.223
X5.8539Y-4.1206
X5.8539Y-4.1718
X5.8539Y-4.223
X5.9051Y-4.1206
X5.9051Y-4.1718
X5.9051Y-4.223
X5.9562Y-4.1206
X5.9562Y-4.1718
X5.9562Y-4.223
X6.0074Y-4.1206
X6.0074Y-4.1718
X6.0074Y-4.223
T2
X5.7539Y-4.0092
X5.9671Y-4.0082
T3
X6.0448Y-3.9312
T4
X5.494Y-3.8844
X5.494Y-4.3844
X5.594Y-3.8844
X5.594Y-4.3844
X5.694Y-3.8837
X5.694Y-4.3844
X5.794Y-4.3844
X5.7954Y-3.8831
X5.894Y-3.8844
X5.894Y-4.3844
X5.994Y-3.8844
X5.994Y-4.3844
X6.094Y-3.8844
X6.094Y-4.3844
X6.194Y-3.8844
X6.194Y-4.3844
T0
M30
