G04 #@! TF.GenerationSoftware,KiCad,Pcbnew,5.1.6-c6e7f7d~87~ubuntu18.04.1*
G04 #@! TF.CreationDate,2020-09-14T18:26:16+02:00*
G04 #@! TF.ProjectId,cooldrv,636f6f6c-6472-4762-9e6b-696361645f70,rev?*
G04 #@! TF.SameCoordinates,Original*
G04 #@! TF.FileFunction,Soldermask,Top*
G04 #@! TF.FilePolarity,Negative*
%FSLAX46Y46*%
G04 Gerber Fmt 4.6, Leading zero omitted, Abs format (unit mm)*
G04 Created by KiCad (PCBNEW 5.1.6-c6e7f7d~87~ubuntu18.04.1) date 2020-09-14 18:26:16*
%MOMM*%
%LPD*%
G01*
G04 APERTURE LIST*
%ADD10C,0.600000*%
%ADD11C,0.800000*%
%ADD12C,0.100000*%
%ADD13R,1.601600X1.701600*%
%ADD14R,1.301600X1.301600*%
G04 APERTURE END LIST*
D10*
X153825000Y-99850000D02*
G75*
G03*
X153825000Y-99850000I-300000J0D01*
G01*
D11*
X157730000Y-98660000D02*
G75*
G03*
X157730000Y-98660000I-400000J0D01*
G01*
X155190000Y-98660000D02*
G75*
G03*
X155190000Y-98660000I-400000J0D01*
G01*
X152650000Y-98660000D02*
G75*
G03*
X152650000Y-98660000I-400000J0D01*
G01*
X150110000Y-98660000D02*
G75*
G03*
X150110000Y-98660000I-400000J0D01*
G01*
X147570000Y-98660000D02*
G75*
G03*
X147570000Y-98660000I-400000J0D01*
G01*
X145030000Y-98660000D02*
G75*
G03*
X145030000Y-98660000I-400000J0D01*
G01*
X142490000Y-98660000D02*
G75*
G03*
X142490000Y-98660000I-400000J0D01*
G01*
X139950000Y-98660000D02*
G75*
G03*
X139950000Y-98660000I-400000J0D01*
G01*
X157730000Y-111360000D02*
G75*
G03*
X157730000Y-111360000I-400000J0D01*
G01*
X155190000Y-111360000D02*
G75*
G03*
X155190000Y-111360000I-400000J0D01*
G01*
X152650000Y-111360000D02*
G75*
G03*
X152650000Y-111360000I-400000J0D01*
G01*
X150110000Y-111360000D02*
G75*
G03*
X150110000Y-111360000I-400000J0D01*
G01*
X147570000Y-111360000D02*
G75*
G03*
X147570000Y-111360000I-400000J0D01*
G01*
X145030000Y-111360000D02*
G75*
G03*
X145030000Y-111360000I-400000J0D01*
G01*
X142490000Y-111360000D02*
G75*
G03*
X142490000Y-111360000I-400000J0D01*
G01*
X139950000Y-111360000D02*
G75*
G03*
X139950000Y-111360000I-400000J0D01*
G01*
D12*
G36*
X145800000Y-107975000D02*
G01*
X145100000Y-108000000D01*
X145100000Y-104150000D01*
X145800000Y-104125000D01*
X145800000Y-107975000D01*
G37*
X145800000Y-107975000D02*
X145100000Y-108000000D01*
X145100000Y-104150000D01*
X145800000Y-104125000D01*
X145800000Y-107975000D01*
G36*
X147100000Y-107975000D02*
G01*
X146400000Y-108000000D01*
X146400000Y-104150000D01*
X147100000Y-104125000D01*
X147100000Y-107975000D01*
G37*
X147100000Y-107975000D02*
X146400000Y-108000000D01*
X146400000Y-104150000D01*
X147100000Y-104125000D01*
X147100000Y-107975000D01*
G36*
X148400000Y-107975000D02*
G01*
X147700000Y-108000000D01*
X147700000Y-104150000D01*
X148400000Y-104125000D01*
X148400000Y-107975000D01*
G37*
X148400000Y-107975000D02*
X147700000Y-108000000D01*
X147700000Y-104150000D01*
X148400000Y-104125000D01*
X148400000Y-107975000D01*
G36*
X149700000Y-107975000D02*
G01*
X149000000Y-108000000D01*
X149000000Y-104150000D01*
X149700000Y-104125000D01*
X149700000Y-107975000D01*
G37*
X149700000Y-107975000D02*
X149000000Y-108000000D01*
X149000000Y-104150000D01*
X149700000Y-104125000D01*
X149700000Y-107975000D01*
G36*
X151000000Y-107975000D02*
G01*
X150300000Y-108000000D01*
X150300000Y-104150000D01*
X151000000Y-104125000D01*
X151000000Y-107975000D01*
G37*
X151000000Y-107975000D02*
X150300000Y-108000000D01*
X150300000Y-104150000D01*
X151000000Y-104125000D01*
X151000000Y-107975000D01*
G36*
X152300000Y-107975000D02*
G01*
X151600000Y-108000000D01*
X151600000Y-104150000D01*
X152300000Y-104125000D01*
X152300000Y-107975000D01*
G37*
X152300000Y-107975000D02*
X151600000Y-108000000D01*
X151600000Y-104150000D01*
X152300000Y-104125000D01*
X152300000Y-107975000D01*
G36*
X153000000Y-105700000D02*
G01*
X144250000Y-105700000D01*
X144250000Y-104975000D01*
X153000000Y-104975000D01*
X153000000Y-105700000D01*
G37*
X153000000Y-105700000D02*
X144250000Y-105700000D01*
X144250000Y-104975000D01*
X153000000Y-104975000D01*
X153000000Y-105700000D01*
G36*
X153000000Y-106950000D02*
G01*
X144250000Y-106950000D01*
X144250000Y-106275000D01*
X153000000Y-106275000D01*
X153000000Y-106950000D01*
G37*
X153000000Y-106950000D02*
X144250000Y-106950000D01*
X144250000Y-106275000D01*
X153000000Y-106275000D01*
X153000000Y-106950000D01*
G36*
X152900000Y-103000000D02*
G01*
X152925000Y-104400000D01*
X144475000Y-104400000D01*
X144525000Y-107600000D01*
X139150000Y-107700000D01*
X139100000Y-103000000D01*
X140550000Y-103000000D01*
X140550000Y-102550000D01*
X152900000Y-102500000D01*
X152900000Y-103000000D01*
G37*
X152900000Y-103000000D02*
X152925000Y-104400000D01*
X144475000Y-104400000D01*
X144525000Y-107600000D01*
X139150000Y-107700000D01*
X139100000Y-103000000D01*
X140550000Y-103000000D01*
X140550000Y-102550000D01*
X152900000Y-102500000D01*
X152900000Y-103000000D01*
G36*
X152900000Y-109200000D02*
G01*
X139100000Y-109200000D01*
X139125000Y-107550000D01*
X152925000Y-107550000D01*
X152900000Y-109200000D01*
G37*
X152900000Y-109200000D02*
X139100000Y-109200000D01*
X139125000Y-107550000D01*
X152925000Y-107550000D01*
X152900000Y-109200000D01*
G36*
X156750000Y-109250000D02*
G01*
X152900000Y-109250000D01*
X152900000Y-103550000D01*
X156750000Y-103550000D01*
X156750000Y-109250000D01*
G37*
X156750000Y-109250000D02*
X152900000Y-109250000D01*
X152900000Y-103550000D01*
X156750000Y-103550000D01*
X156750000Y-109250000D01*
D13*
G04 #@! TO.C,U$2*
X154268600Y-101473600D03*
D14*
X157518600Y-102473600D03*
X157518600Y-100473600D03*
G04 #@! TD*
M02*
